%TF.GenerationSoftware,KiCad,Pcbnew,9.0.0*%
%TF.CreationDate,2025-04-23T22:05:31+03:00*%
%TF.ProjectId,LoRa,4c6f5261-2e6b-4696-9361-645f70636258,rev?*%
%TF.SameCoordinates,Original*%
%TF.FileFunction,Paste,Top*%
%TF.FilePolarity,Positive*%
%FSLAX46Y46*%
G04 Gerber Fmt 4.6, Leading zero omitted, Abs format (unit mm)*
G04 Created by KiCad (PCBNEW 9.0.0) date 2025-04-23 22:05:31*
%MOMM*%
%LPD*%
G01*
G04 APERTURE LIST*
G04 Aperture macros list*
%AMRoundRect*
0 Rectangle with rounded corners*
0 $1 Rounding radius*
0 $2 $3 $4 $5 $6 $7 $8 $9 X,Y pos of 4 corners*
0 Add a 4 corners polygon primitive as box body*
4,1,4,$2,$3,$4,$5,$6,$7,$8,$9,$2,$3,0*
0 Add four circle primitives for the rounded corners*
1,1,$1+$1,$2,$3*
1,1,$1+$1,$4,$5*
1,1,$1+$1,$6,$7*
1,1,$1+$1,$8,$9*
0 Add four rect primitives between the rounded corners*
20,1,$1+$1,$2,$3,$4,$5,0*
20,1,$1+$1,$4,$5,$6,$7,0*
20,1,$1+$1,$6,$7,$8,$9,0*
20,1,$1+$1,$8,$9,$2,$3,0*%
G04 Aperture macros list end*
%ADD10RoundRect,0.200000X-0.275000X0.200000X-0.275000X-0.200000X0.275000X-0.200000X0.275000X0.200000X0*%
%ADD11RoundRect,0.250000X0.450000X-0.325000X0.450000X0.325000X-0.450000X0.325000X-0.450000X-0.325000X0*%
%ADD12RoundRect,0.075000X-0.075000X-0.662500X0.075000X-0.662500X0.075000X0.662500X-0.075000X0.662500X0*%
%ADD13RoundRect,0.075000X-0.662500X-0.075000X0.662500X-0.075000X0.662500X0.075000X-0.662500X0.075000X0*%
%ADD14RoundRect,0.237500X0.300000X0.237500X-0.300000X0.237500X-0.300000X-0.237500X0.300000X-0.237500X0*%
%ADD15RoundRect,0.200000X-0.200000X-0.275000X0.200000X-0.275000X0.200000X0.275000X-0.200000X0.275000X0*%
%ADD16RoundRect,0.250000X-0.325000X-0.450000X0.325000X-0.450000X0.325000X0.450000X-0.325000X0.450000X0*%
%ADD17RoundRect,0.237500X-0.237500X0.300000X-0.237500X-0.300000X0.237500X-0.300000X0.237500X0.300000X0*%
%ADD18RoundRect,0.300000X-1.075000X-0.700000X1.075000X-0.700000X1.075000X0.700000X-1.075000X0.700000X0*%
%ADD19RoundRect,0.200000X0.200000X0.275000X-0.200000X0.275000X-0.200000X-0.275000X0.200000X-0.275000X0*%
%ADD20RoundRect,0.237500X-0.300000X-0.237500X0.300000X-0.237500X0.300000X0.237500X-0.300000X0.237500X0*%
%ADD21R,1.300000X1.600000*%
%ADD22RoundRect,0.237500X0.237500X-0.300000X0.237500X0.300000X-0.237500X0.300000X-0.237500X-0.300000X0*%
%ADD23RoundRect,0.250000X0.650000X-0.325000X0.650000X0.325000X-0.650000X0.325000X-0.650000X-0.325000X0*%
%ADD24RoundRect,0.250000X0.325000X0.450000X-0.325000X0.450000X-0.325000X-0.450000X0.325000X-0.450000X0*%
G04 APERTURE END LIST*
D10*
%TO.C,R3*%
X151500000Y-58825000D03*
X151500000Y-57175000D03*
%TD*%
D11*
%TO.C,D1*%
X149250000Y-57225000D03*
X149250000Y-59275000D03*
%TD*%
D12*
%TO.C,U2*%
X137050000Y-46437500D03*
X137550000Y-46437500D03*
X138050000Y-46437500D03*
X138550000Y-46437500D03*
X139050000Y-46437500D03*
X139550000Y-46437500D03*
X140050000Y-46437500D03*
X140550000Y-46437500D03*
X141050000Y-46437500D03*
X141550000Y-46437500D03*
X142050000Y-46437500D03*
X142550000Y-46437500D03*
D13*
X143962500Y-47850000D03*
X143962500Y-48350000D03*
X143962500Y-48850000D03*
X143962500Y-49350000D03*
X143962500Y-49850000D03*
X143962500Y-50350000D03*
X143962500Y-50850000D03*
X143962500Y-51350000D03*
X143962500Y-51850000D03*
X143962500Y-52350000D03*
X143962500Y-52850000D03*
X143962500Y-53350000D03*
D12*
X142550000Y-54762500D03*
X142050000Y-54762500D03*
X141550000Y-54762500D03*
X141050000Y-54762500D03*
X140550000Y-54762500D03*
X140050000Y-54762500D03*
X139550000Y-54762500D03*
X139050000Y-54762500D03*
X138550000Y-54762500D03*
X138050000Y-54762500D03*
X137550000Y-54762500D03*
X137050000Y-54762500D03*
D13*
X135637500Y-53350000D03*
X135637500Y-52850000D03*
X135637500Y-52350000D03*
X135637500Y-51850000D03*
X135637500Y-51350000D03*
X135637500Y-50850000D03*
X135637500Y-50350000D03*
X135637500Y-49850000D03*
X135637500Y-49350000D03*
X135637500Y-48850000D03*
X135637500Y-48350000D03*
X135637500Y-47850000D03*
%TD*%
D14*
%TO.C,C1*%
X144612500Y-35000000D03*
X142887500Y-35000000D03*
%TD*%
D15*
%TO.C,R6*%
X140325000Y-39250000D03*
X138675000Y-39250000D03*
%TD*%
D16*
%TO.C,D2*%
X110975000Y-30000000D03*
X113025000Y-30000000D03*
%TD*%
D17*
%TO.C,C19*%
X113000000Y-45137500D03*
X113000000Y-46862500D03*
%TD*%
D18*
%TO.C,RESET1*%
X116380000Y-60500000D03*
X125630000Y-60500000D03*
%TD*%
D19*
%TO.C,R1*%
X148825000Y-39000000D03*
X147175000Y-39000000D03*
%TD*%
D15*
%TO.C,R5*%
X111175000Y-72000000D03*
X112825000Y-72000000D03*
%TD*%
D17*
%TO.C,C18*%
X117000000Y-70137500D03*
X117000000Y-71862500D03*
%TD*%
%TO.C,C17*%
X154250000Y-70387500D03*
X154250000Y-72112500D03*
%TD*%
D19*
%TO.C,R4*%
X112825000Y-32900000D03*
X111175000Y-32900000D03*
%TD*%
D20*
%TO.C,C15*%
X127537500Y-35700000D03*
X129262500Y-35700000D03*
%TD*%
%TO.C,C11*%
X144387500Y-55250000D03*
X146112500Y-55250000D03*
%TD*%
D17*
%TO.C,C16*%
X157100000Y-55737500D03*
X157100000Y-57462500D03*
%TD*%
D21*
%TO.C,Y1*%
X128750000Y-51650000D03*
X128750000Y-48350000D03*
X126750000Y-48350000D03*
X126750000Y-51650000D03*
%TD*%
D14*
%TO.C,C4*%
X121612500Y-63750000D03*
X119887500Y-63750000D03*
%TD*%
D15*
%TO.C,R2*%
X124925000Y-57000000D03*
X126575000Y-57000000D03*
%TD*%
D22*
%TO.C,C8*%
X133400000Y-42462500D03*
X133400000Y-40737500D03*
%TD*%
%TO.C,C9*%
X145100000Y-46062500D03*
X145100000Y-44337500D03*
%TD*%
D14*
%TO.C,C12*%
X133162500Y-48200000D03*
X131437500Y-48200000D03*
%TD*%
D17*
%TO.C,C2*%
X124250000Y-47387500D03*
X124250000Y-49112500D03*
%TD*%
D23*
%TO.C,C7*%
X136000000Y-42575000D03*
X136000000Y-39625000D03*
%TD*%
D24*
%TO.C,D3*%
X113025000Y-74000000D03*
X110975000Y-74000000D03*
%TD*%
D22*
%TO.C,C3*%
X124250000Y-53112500D03*
X124250000Y-51387500D03*
%TD*%
D14*
%TO.C,C14*%
X133362500Y-52750000D03*
X131637500Y-52750000D03*
%TD*%
M02*
