M48
; DRILL file {KiCad 9.0.0} date 2025-04-23T22:05:37+0300
; FORMAT={-:-/ absolute / metric / decimal}
; #@! TF.CreationDate,2025-04-23T22:05:37+03:00
; #@! TF.GenerationSoftware,Kicad,Pcbnew,9.0.0
; #@! TF.FileFunction,Plated,1,2,PTH
FMAT,2
METRIC
; #@! TA.AperFunction,Plated,PTH,ViaDrill
T1C0.300
; #@! TA.AperFunction,Plated,PTH,ComponentDrill
T2C0.800
; #@! TA.AperFunction,Plated,PTH,ComponentDrill
T3C1.000
; #@! TA.AperFunction,Plated,PTH,ComponentDrill
T4C1.200
%
G90
G05
T1
X106.25Y-48.75
X106.25Y-50.0
X106.25Y-51.25
X106.25Y-52.5
X106.25Y-53.75
X106.25Y-55.0
X107.5Y-47.5
X107.5Y-48.75
X107.5Y-50.0
X107.5Y-51.25
X107.5Y-52.5
X107.5Y-53.75
X107.5Y-55.0
X107.5Y-56.25
X109.75Y-30.0
X113.0Y-47.75
X113.5Y-66.75
X114.25Y-74.25
X116.0Y-59.0
X117.0Y-72.75
X118.75Y-63.75
X123.0Y-47.25
X123.0Y-53.25
X126.75Y-53.0
X128.75Y-47.0
X129.25Y-36.75
X131.25Y-47.25
X132.0Y-51.5
X132.5Y-40.75
X134.0Y-51.5
X135.75Y-38.75
X138.0Y-45.0
X142.5Y-56.25
X145.25Y-43.25
X145.5Y-48.0
X146.0Y-54.0
X151.25Y-56.0
X154.0Y-73.25
X155.75Y-57.75
T2
X160.15Y-31.0
X160.15Y-34.0
X160.15Y-37.0
T3
X84.0Y-42.632
X84.0Y-47.632
X84.0Y-55.908
X84.0Y-60.908
X100.0Y-42.632
X100.0Y-47.632
X100.0Y-55.908
X100.0Y-60.908
X126.4Y-71.25
X128.5Y-31.975
X128.94Y-71.25
X131.04Y-31.975
X131.48Y-71.25
X133.58Y-31.975
X134.02Y-71.25
X136.12Y-31.975
X143.5Y-71.275
X143.8Y-32.0
X146.04Y-71.275
X146.34Y-32.0
X148.58Y-71.275
X148.88Y-32.0
X151.12Y-71.275
X151.42Y-32.0
X160.175Y-42.96
X160.175Y-45.5
X160.175Y-48.04
X160.175Y-50.58
X160.175Y-53.12
X160.175Y-55.66
X160.175Y-58.2
X160.175Y-63.5
X160.175Y-66.04
X160.175Y-68.58
X160.175Y-71.12
T4
X82.233Y-70.0
X82.267Y-33.642
X85.733Y-70.0
X85.767Y-33.642
X97.5Y-33.0
X97.5Y-70.0
X102.5Y-33.0
X102.5Y-70.0
M30
