%TF.GenerationSoftware,KiCad,Pcbnew,9.0.0*%
%TF.CreationDate,2025-04-23T22:05:31+03:00*%
%TF.ProjectId,LoRa,4c6f5261-2e6b-4696-9361-645f70636258,rev?*%
%TF.SameCoordinates,Original*%
%TF.FileFunction,Soldermask,Bot*%
%TF.FilePolarity,Negative*%
%FSLAX46Y46*%
G04 Gerber Fmt 4.6, Leading zero omitted, Abs format (unit mm)*
G04 Created by KiCad (PCBNEW 9.0.0) date 2025-04-23 22:05:31*
%MOMM*%
%LPD*%
G01*
G04 APERTURE LIST*
G04 Aperture macros list*
%AMRoundRect*
0 Rectangle with rounded corners*
0 $1 Rounding radius*
0 $2 $3 $4 $5 $6 $7 $8 $9 X,Y pos of 4 corners*
0 Add a 4 corners polygon primitive as box body*
4,1,4,$2,$3,$4,$5,$6,$7,$8,$9,$2,$3,0*
0 Add four circle primitives for the rounded corners*
1,1,$1+$1,$2,$3*
1,1,$1+$1,$4,$5*
1,1,$1+$1,$6,$7*
1,1,$1+$1,$8,$9*
0 Add four rect primitives between the rounded corners*
20,1,$1+$1,$2,$3,$4,$5,0*
20,1,$1+$1,$4,$5,$6,$7,0*
20,1,$1+$1,$6,$7,$8,$9,0*
20,1,$1+$1,$8,$9,$2,$3,0*%
G04 Aperture macros list end*
%ADD10R,1.700000X1.700000*%
%ADD11O,1.700000X1.700000*%
%ADD12RoundRect,0.250000X0.650000X1.550000X-0.650000X1.550000X-0.650000X-1.550000X0.650000X-1.550000X0*%
%ADD13O,1.800000X3.600000*%
%ADD14R,2.000000X2.000000*%
%ADD15C,2.000000*%
%ADD16RoundRect,0.250000X-0.650000X-1.550000X0.650000X-1.550000X0.650000X1.550000X-0.650000X1.550000X0*%
%ADD17C,1.500000*%
%ADD18C,2.400000*%
G04 APERTURE END LIST*
D10*
%TO.C,SWD1*%
X143800000Y-32000000D03*
D11*
X146340000Y-32000000D03*
X148880000Y-32000000D03*
X151420000Y-32000000D03*
%TD*%
D10*
%TO.C,J4*%
X160175000Y-71120000D03*
D11*
X160175000Y-68580000D03*
X160175000Y-66040000D03*
X160175000Y-63500000D03*
%TD*%
D12*
%TO.C,J2*%
X85732500Y-70000000D03*
D13*
X82232500Y-70000000D03*
%TD*%
D10*
%TO.C,pm2.5*%
X126400000Y-71250000D03*
D11*
X128940000Y-71250000D03*
X131480000Y-71250000D03*
X134020000Y-71250000D03*
%TD*%
D14*
%TO.C,C5*%
X84000000Y-42632323D03*
D15*
X84000000Y-47632323D03*
%TD*%
D14*
%TO.C,C10*%
X84000000Y-60907677D03*
D15*
X84000000Y-55907677D03*
%TD*%
D10*
%TO.C,LoRa1*%
X160175000Y-58200000D03*
D11*
X160175000Y-55660000D03*
X160175000Y-53120000D03*
X160175000Y-50580000D03*
X160175000Y-48040000D03*
X160175000Y-45500000D03*
X160175000Y-42960000D03*
%TD*%
D16*
%TO.C,J1*%
X82267500Y-33642500D03*
D13*
X85767500Y-33642500D03*
%TD*%
D17*
%TO.C,J5*%
X160150000Y-37000000D03*
X160150000Y-34000000D03*
X160150000Y-31000000D03*
%TD*%
D14*
%TO.C,C13*%
X100000000Y-60907677D03*
D15*
X100000000Y-55907677D03*
%TD*%
D18*
%TO.C,L2*%
X97500000Y-70000000D03*
X102500000Y-70000000D03*
%TD*%
%TO.C,L1*%
X97500000Y-33000000D03*
X102500000Y-33000000D03*
%TD*%
D10*
%TO.C,SHT31*%
X128500000Y-31975000D03*
D11*
X131040000Y-31975000D03*
X133580000Y-31975000D03*
X136120000Y-31975000D03*
%TD*%
D14*
%TO.C,C6*%
X100000000Y-42632323D03*
D15*
X100000000Y-47632323D03*
%TD*%
D10*
%TO.C,J3*%
X143500000Y-71275000D03*
D11*
X146040000Y-71275000D03*
X148580000Y-71275000D03*
X151120000Y-71275000D03*
%TD*%
M02*
