%TF.GenerationSoftware,KiCad,Pcbnew,9.0.0*%
%TF.CreationDate,2025-04-23T22:05:31+03:00*%
%TF.ProjectId,LoRa,4c6f5261-2e6b-4696-9361-645f70636258,rev?*%
%TF.SameCoordinates,Original*%
%TF.FileFunction,Legend,Top*%
%TF.FilePolarity,Positive*%
%FSLAX46Y46*%
G04 Gerber Fmt 4.6, Leading zero omitted, Abs format (unit mm)*
G04 Created by KiCad (PCBNEW 9.0.0) date 2025-04-23 22:05:31*
%MOMM*%
%LPD*%
G01*
G04 APERTURE LIST*
%ADD10C,0.100000*%
%ADD11C,0.200000*%
%ADD12C,0.150000*%
%ADD13C,0.120000*%
G04 APERTURE END LIST*
D10*
X149372419Y-35196115D02*
X148372419Y-35196115D01*
X148372419Y-34529449D02*
X148372419Y-34338973D01*
X148372419Y-34338973D02*
X148420038Y-34243735D01*
X148420038Y-34243735D02*
X148515276Y-34148497D01*
X148515276Y-34148497D02*
X148705752Y-34100878D01*
X148705752Y-34100878D02*
X149039085Y-34100878D01*
X149039085Y-34100878D02*
X149229561Y-34148497D01*
X149229561Y-34148497D02*
X149324800Y-34243735D01*
X149324800Y-34243735D02*
X149372419Y-34338973D01*
X149372419Y-34338973D02*
X149372419Y-34529449D01*
X149372419Y-34529449D02*
X149324800Y-34624687D01*
X149324800Y-34624687D02*
X149229561Y-34719925D01*
X149229561Y-34719925D02*
X149039085Y-34767544D01*
X149039085Y-34767544D02*
X148705752Y-34767544D01*
X148705752Y-34767544D02*
X148515276Y-34719925D01*
X148515276Y-34719925D02*
X148420038Y-34624687D01*
X148420038Y-34624687D02*
X148372419Y-34529449D01*
X146777180Y-35624687D02*
X146824800Y-35672306D01*
X146824800Y-35672306D02*
X146872419Y-35815163D01*
X146872419Y-35815163D02*
X146872419Y-35910401D01*
X146872419Y-35910401D02*
X146824800Y-36053258D01*
X146824800Y-36053258D02*
X146729561Y-36148496D01*
X146729561Y-36148496D02*
X146634323Y-36196115D01*
X146634323Y-36196115D02*
X146443847Y-36243734D01*
X146443847Y-36243734D02*
X146300990Y-36243734D01*
X146300990Y-36243734D02*
X146110514Y-36196115D01*
X146110514Y-36196115D02*
X146015276Y-36148496D01*
X146015276Y-36148496D02*
X145920038Y-36053258D01*
X145920038Y-36053258D02*
X145872419Y-35910401D01*
X145872419Y-35910401D02*
X145872419Y-35815163D01*
X145872419Y-35815163D02*
X145920038Y-35672306D01*
X145920038Y-35672306D02*
X145967657Y-35624687D01*
X146872419Y-34719925D02*
X146872419Y-35196115D01*
X146872419Y-35196115D02*
X145872419Y-35196115D01*
X146872419Y-34386591D02*
X145872419Y-34386591D01*
X146872419Y-33815163D02*
X146300990Y-34243734D01*
X145872419Y-33815163D02*
X146443847Y-34386591D01*
D11*
X140869673Y-31486266D02*
X141631578Y-31486266D01*
X141250625Y-31867219D02*
X141250625Y-31105314D01*
X125619673Y-31986266D02*
X126381578Y-31986266D01*
X126000625Y-32367219D02*
X126000625Y-31605314D01*
X162236266Y-58465326D02*
X162236266Y-57703422D01*
X157986266Y-58630326D02*
X157986266Y-57868422D01*
X150119673Y-68986266D02*
X150881578Y-68986266D01*
X150500625Y-69367219D02*
X150500625Y-68605314D01*
X151833958Y-68367219D02*
X151357768Y-68367219D01*
X151357768Y-68367219D02*
X151310149Y-68843409D01*
X151310149Y-68843409D02*
X151357768Y-68795790D01*
X151357768Y-68795790D02*
X151453006Y-68748171D01*
X151453006Y-68748171D02*
X151691101Y-68748171D01*
X151691101Y-68748171D02*
X151786339Y-68795790D01*
X151786339Y-68795790D02*
X151833958Y-68843409D01*
X151833958Y-68843409D02*
X151881577Y-68938647D01*
X151881577Y-68938647D02*
X151881577Y-69176742D01*
X151881577Y-69176742D02*
X151833958Y-69271980D01*
X151833958Y-69271980D02*
X151786339Y-69319600D01*
X151786339Y-69319600D02*
X151691101Y-69367219D01*
X151691101Y-69367219D02*
X151453006Y-69367219D01*
X151453006Y-69367219D02*
X151357768Y-69319600D01*
X151357768Y-69319600D02*
X151310149Y-69271980D01*
X148119673Y-68986266D02*
X148881578Y-68986266D01*
D10*
X145756265Y-69086704D02*
X146232455Y-69086704D01*
X145661027Y-69372419D02*
X145994360Y-68372419D01*
X145994360Y-68372419D02*
X146327693Y-69372419D01*
X142803884Y-68848609D02*
X143137217Y-68848609D01*
X143280074Y-69372419D02*
X142803884Y-69372419D01*
X142803884Y-69372419D02*
X142803884Y-68372419D01*
X142803884Y-68372419D02*
X143280074Y-68372419D01*
X143708646Y-68705752D02*
X143708646Y-69372419D01*
X143708646Y-68800990D02*
X143756265Y-68753371D01*
X143756265Y-68753371D02*
X143851503Y-68705752D01*
X143851503Y-68705752D02*
X143994360Y-68705752D01*
X143994360Y-68705752D02*
X144089598Y-68753371D01*
X144089598Y-68753371D02*
X144137217Y-68848609D01*
X144137217Y-68848609D02*
X144137217Y-69372419D01*
D11*
X125119673Y-68986266D02*
X125881578Y-68986266D01*
X125500625Y-69367219D02*
X125500625Y-68605314D01*
X126833958Y-68367219D02*
X126357768Y-68367219D01*
X126357768Y-68367219D02*
X126310149Y-68843409D01*
X126310149Y-68843409D02*
X126357768Y-68795790D01*
X126357768Y-68795790D02*
X126453006Y-68748171D01*
X126453006Y-68748171D02*
X126691101Y-68748171D01*
X126691101Y-68748171D02*
X126786339Y-68795790D01*
X126786339Y-68795790D02*
X126833958Y-68843409D01*
X126833958Y-68843409D02*
X126881577Y-68938647D01*
X126881577Y-68938647D02*
X126881577Y-69176742D01*
X126881577Y-69176742D02*
X126833958Y-69271980D01*
X126833958Y-69271980D02*
X126786339Y-69319600D01*
X126786339Y-69319600D02*
X126691101Y-69367219D01*
X126691101Y-69367219D02*
X126453006Y-69367219D01*
X126453006Y-69367219D02*
X126357768Y-69319600D01*
X126357768Y-69319600D02*
X126310149Y-69271980D01*
X128619673Y-68986266D02*
X129381578Y-68986266D01*
D10*
X133875312Y-69372419D02*
X133541979Y-68896228D01*
X133303884Y-69372419D02*
X133303884Y-68372419D01*
X133303884Y-68372419D02*
X133684836Y-68372419D01*
X133684836Y-68372419D02*
X133780074Y-68420038D01*
X133780074Y-68420038D02*
X133827693Y-68467657D01*
X133827693Y-68467657D02*
X133875312Y-68562895D01*
X133875312Y-68562895D02*
X133875312Y-68705752D01*
X133875312Y-68705752D02*
X133827693Y-68800990D01*
X133827693Y-68800990D02*
X133780074Y-68848609D01*
X133780074Y-68848609D02*
X133684836Y-68896228D01*
X133684836Y-68896228D02*
X133303884Y-68896228D01*
X134208646Y-69372419D02*
X134732455Y-68705752D01*
X134208646Y-68705752D02*
X134732455Y-69372419D01*
X130911027Y-68372419D02*
X131482455Y-68372419D01*
X131196741Y-69372419D02*
X131196741Y-68372419D01*
X131720551Y-69372419D02*
X132244360Y-68705752D01*
X131720551Y-68705752D02*
X132244360Y-69372419D01*
X156244360Y-36622419D02*
X156339598Y-36622419D01*
X156339598Y-36622419D02*
X156434836Y-36670038D01*
X156434836Y-36670038D02*
X156482455Y-36717657D01*
X156482455Y-36717657D02*
X156530074Y-36812895D01*
X156530074Y-36812895D02*
X156577693Y-37003371D01*
X156577693Y-37003371D02*
X156577693Y-37241466D01*
X156577693Y-37241466D02*
X156530074Y-37431942D01*
X156530074Y-37431942D02*
X156482455Y-37527180D01*
X156482455Y-37527180D02*
X156434836Y-37574800D01*
X156434836Y-37574800D02*
X156339598Y-37622419D01*
X156339598Y-37622419D02*
X156244360Y-37622419D01*
X156244360Y-37622419D02*
X156149122Y-37574800D01*
X156149122Y-37574800D02*
X156101503Y-37527180D01*
X156101503Y-37527180D02*
X156053884Y-37431942D01*
X156053884Y-37431942D02*
X156006265Y-37241466D01*
X156006265Y-37241466D02*
X156006265Y-37003371D01*
X156006265Y-37003371D02*
X156053884Y-36812895D01*
X156053884Y-36812895D02*
X156101503Y-36717657D01*
X156101503Y-36717657D02*
X156149122Y-36670038D01*
X156149122Y-36670038D02*
X156244360Y-36622419D01*
X156577693Y-31622419D02*
X156006265Y-31622419D01*
X156291979Y-31622419D02*
X156291979Y-30622419D01*
X156291979Y-30622419D02*
X156196741Y-30765276D01*
X156196741Y-30765276D02*
X156101503Y-30860514D01*
X156101503Y-30860514D02*
X156006265Y-30908133D01*
X148250000Y-74000000D02*
X148750000Y-74000000D01*
X151000000Y-74000000D02*
X151500000Y-74000000D01*
X151250000Y-73750000D02*
X151250000Y-74250000D01*
D11*
X146941101Y-75771980D02*
X146893482Y-75819600D01*
X146893482Y-75819600D02*
X146750625Y-75867219D01*
X146750625Y-75867219D02*
X146655387Y-75867219D01*
X146655387Y-75867219D02*
X146512530Y-75819600D01*
X146512530Y-75819600D02*
X146417292Y-75724361D01*
X146417292Y-75724361D02*
X146369673Y-75629123D01*
X146369673Y-75629123D02*
X146322054Y-75438647D01*
X146322054Y-75438647D02*
X146322054Y-75295790D01*
X146322054Y-75295790D02*
X146369673Y-75105314D01*
X146369673Y-75105314D02*
X146417292Y-75010076D01*
X146417292Y-75010076D02*
X146512530Y-74914838D01*
X146512530Y-74914838D02*
X146655387Y-74867219D01*
X146655387Y-74867219D02*
X146750625Y-74867219D01*
X146750625Y-74867219D02*
X146893482Y-74914838D01*
X146893482Y-74914838D02*
X146941101Y-74962457D01*
X147560149Y-74867219D02*
X147750625Y-74867219D01*
X147750625Y-74867219D02*
X147845863Y-74914838D01*
X147845863Y-74914838D02*
X147941101Y-75010076D01*
X147941101Y-75010076D02*
X147988720Y-75200552D01*
X147988720Y-75200552D02*
X147988720Y-75533885D01*
X147988720Y-75533885D02*
X147941101Y-75724361D01*
X147941101Y-75724361D02*
X147845863Y-75819600D01*
X147845863Y-75819600D02*
X147750625Y-75867219D01*
X147750625Y-75867219D02*
X147560149Y-75867219D01*
X147560149Y-75867219D02*
X147464911Y-75819600D01*
X147464911Y-75819600D02*
X147369673Y-75724361D01*
X147369673Y-75724361D02*
X147322054Y-75533885D01*
X147322054Y-75533885D02*
X147322054Y-75200552D01*
X147322054Y-75200552D02*
X147369673Y-75010076D01*
X147369673Y-75010076D02*
X147464911Y-74914838D01*
X147464911Y-74914838D02*
X147560149Y-74867219D01*
X77117219Y-33975564D02*
X77117219Y-33356517D01*
X77117219Y-33356517D02*
X77498171Y-33689850D01*
X77498171Y-33689850D02*
X77498171Y-33546993D01*
X77498171Y-33546993D02*
X77545790Y-33451755D01*
X77545790Y-33451755D02*
X77593409Y-33404136D01*
X77593409Y-33404136D02*
X77688647Y-33356517D01*
X77688647Y-33356517D02*
X77926742Y-33356517D01*
X77926742Y-33356517D02*
X78021980Y-33404136D01*
X78021980Y-33404136D02*
X78069600Y-33451755D01*
X78069600Y-33451755D02*
X78117219Y-33546993D01*
X78117219Y-33546993D02*
X78117219Y-33832707D01*
X78117219Y-33832707D02*
X78069600Y-33927945D01*
X78069600Y-33927945D02*
X78021980Y-33975564D01*
X78021980Y-32927945D02*
X78069600Y-32880326D01*
X78069600Y-32880326D02*
X78117219Y-32927945D01*
X78117219Y-32927945D02*
X78069600Y-32975564D01*
X78069600Y-32975564D02*
X78021980Y-32927945D01*
X78021980Y-32927945D02*
X78117219Y-32927945D01*
X77117219Y-32546993D02*
X77117219Y-31927946D01*
X77117219Y-31927946D02*
X77498171Y-32261279D01*
X77498171Y-32261279D02*
X77498171Y-32118422D01*
X77498171Y-32118422D02*
X77545790Y-32023184D01*
X77545790Y-32023184D02*
X77593409Y-31975565D01*
X77593409Y-31975565D02*
X77688647Y-31927946D01*
X77688647Y-31927946D02*
X77926742Y-31927946D01*
X77926742Y-31927946D02*
X78021980Y-31975565D01*
X78021980Y-31975565D02*
X78069600Y-32023184D01*
X78069600Y-32023184D02*
X78117219Y-32118422D01*
X78117219Y-32118422D02*
X78117219Y-32404136D01*
X78117219Y-32404136D02*
X78069600Y-32499374D01*
X78069600Y-32499374D02*
X78021980Y-32546993D01*
X77117219Y-31642231D02*
X78117219Y-31308898D01*
X78117219Y-31308898D02*
X77117219Y-30975565D01*
X77117219Y-70654136D02*
X77117219Y-71130326D01*
X77117219Y-71130326D02*
X77593409Y-71177945D01*
X77593409Y-71177945D02*
X77545790Y-71130326D01*
X77545790Y-71130326D02*
X77498171Y-71035088D01*
X77498171Y-71035088D02*
X77498171Y-70796993D01*
X77498171Y-70796993D02*
X77545790Y-70701755D01*
X77545790Y-70701755D02*
X77593409Y-70654136D01*
X77593409Y-70654136D02*
X77688647Y-70606517D01*
X77688647Y-70606517D02*
X77926742Y-70606517D01*
X77926742Y-70606517D02*
X78021980Y-70654136D01*
X78021980Y-70654136D02*
X78069600Y-70701755D01*
X78069600Y-70701755D02*
X78117219Y-70796993D01*
X78117219Y-70796993D02*
X78117219Y-71035088D01*
X78117219Y-71035088D02*
X78069600Y-71130326D01*
X78069600Y-71130326D02*
X78021980Y-71177945D01*
X77117219Y-70320802D02*
X78117219Y-69987469D01*
X78117219Y-69987469D02*
X77117219Y-69654136D01*
D12*
X145766667Y-30157200D02*
X145909524Y-30204819D01*
X145909524Y-30204819D02*
X146147619Y-30204819D01*
X146147619Y-30204819D02*
X146242857Y-30157200D01*
X146242857Y-30157200D02*
X146290476Y-30109580D01*
X146290476Y-30109580D02*
X146338095Y-30014342D01*
X146338095Y-30014342D02*
X146338095Y-29919104D01*
X146338095Y-29919104D02*
X146290476Y-29823866D01*
X146290476Y-29823866D02*
X146242857Y-29776247D01*
X146242857Y-29776247D02*
X146147619Y-29728628D01*
X146147619Y-29728628D02*
X145957143Y-29681009D01*
X145957143Y-29681009D02*
X145861905Y-29633390D01*
X145861905Y-29633390D02*
X145814286Y-29585771D01*
X145814286Y-29585771D02*
X145766667Y-29490533D01*
X145766667Y-29490533D02*
X145766667Y-29395295D01*
X145766667Y-29395295D02*
X145814286Y-29300057D01*
X145814286Y-29300057D02*
X145861905Y-29252438D01*
X145861905Y-29252438D02*
X145957143Y-29204819D01*
X145957143Y-29204819D02*
X146195238Y-29204819D01*
X146195238Y-29204819D02*
X146338095Y-29252438D01*
X146671429Y-29204819D02*
X146909524Y-30204819D01*
X146909524Y-30204819D02*
X147100000Y-29490533D01*
X147100000Y-29490533D02*
X147290476Y-30204819D01*
X147290476Y-30204819D02*
X147528572Y-29204819D01*
X147909524Y-30204819D02*
X147909524Y-29204819D01*
X147909524Y-29204819D02*
X148147619Y-29204819D01*
X148147619Y-29204819D02*
X148290476Y-29252438D01*
X148290476Y-29252438D02*
X148385714Y-29347676D01*
X148385714Y-29347676D02*
X148433333Y-29442914D01*
X148433333Y-29442914D02*
X148480952Y-29633390D01*
X148480952Y-29633390D02*
X148480952Y-29776247D01*
X148480952Y-29776247D02*
X148433333Y-29966723D01*
X148433333Y-29966723D02*
X148385714Y-30061961D01*
X148385714Y-30061961D02*
X148290476Y-30157200D01*
X148290476Y-30157200D02*
X148147619Y-30204819D01*
X148147619Y-30204819D02*
X147909524Y-30204819D01*
X149433333Y-30204819D02*
X148861905Y-30204819D01*
X149147619Y-30204819D02*
X149147619Y-29204819D01*
X149147619Y-29204819D02*
X149052381Y-29347676D01*
X149052381Y-29347676D02*
X148957143Y-29442914D01*
X148957143Y-29442914D02*
X148861905Y-29490533D01*
X159841666Y-72904819D02*
X159841666Y-73619104D01*
X159841666Y-73619104D02*
X159794047Y-73761961D01*
X159794047Y-73761961D02*
X159698809Y-73857200D01*
X159698809Y-73857200D02*
X159555952Y-73904819D01*
X159555952Y-73904819D02*
X159460714Y-73904819D01*
X160746428Y-73238152D02*
X160746428Y-73904819D01*
X160508333Y-72857200D02*
X160270238Y-73571485D01*
X160270238Y-73571485D02*
X160889285Y-73571485D01*
X151954819Y-60666666D02*
X151478628Y-60999999D01*
X151954819Y-61238094D02*
X150954819Y-61238094D01*
X150954819Y-61238094D02*
X150954819Y-60857142D01*
X150954819Y-60857142D02*
X151002438Y-60761904D01*
X151002438Y-60761904D02*
X151050057Y-60714285D01*
X151050057Y-60714285D02*
X151145295Y-60666666D01*
X151145295Y-60666666D02*
X151288152Y-60666666D01*
X151288152Y-60666666D02*
X151383390Y-60714285D01*
X151383390Y-60714285D02*
X151431009Y-60761904D01*
X151431009Y-60761904D02*
X151478628Y-60857142D01*
X151478628Y-60857142D02*
X151478628Y-61238094D01*
X150954819Y-60333332D02*
X150954819Y-59714285D01*
X150954819Y-59714285D02*
X151335771Y-60047618D01*
X151335771Y-60047618D02*
X151335771Y-59904761D01*
X151335771Y-59904761D02*
X151383390Y-59809523D01*
X151383390Y-59809523D02*
X151431009Y-59761904D01*
X151431009Y-59761904D02*
X151526247Y-59714285D01*
X151526247Y-59714285D02*
X151764342Y-59714285D01*
X151764342Y-59714285D02*
X151859580Y-59761904D01*
X151859580Y-59761904D02*
X151907200Y-59809523D01*
X151907200Y-59809523D02*
X151954819Y-59904761D01*
X151954819Y-59904761D02*
X151954819Y-60190475D01*
X151954819Y-60190475D02*
X151907200Y-60285713D01*
X151907200Y-60285713D02*
X151859580Y-60333332D01*
X149704819Y-61988094D02*
X148704819Y-61988094D01*
X148704819Y-61988094D02*
X148704819Y-61749999D01*
X148704819Y-61749999D02*
X148752438Y-61607142D01*
X148752438Y-61607142D02*
X148847676Y-61511904D01*
X148847676Y-61511904D02*
X148942914Y-61464285D01*
X148942914Y-61464285D02*
X149133390Y-61416666D01*
X149133390Y-61416666D02*
X149276247Y-61416666D01*
X149276247Y-61416666D02*
X149466723Y-61464285D01*
X149466723Y-61464285D02*
X149561961Y-61511904D01*
X149561961Y-61511904D02*
X149657200Y-61607142D01*
X149657200Y-61607142D02*
X149704819Y-61749999D01*
X149704819Y-61749999D02*
X149704819Y-61988094D01*
X149704819Y-60464285D02*
X149704819Y-61035713D01*
X149704819Y-60749999D02*
X148704819Y-60749999D01*
X148704819Y-60749999D02*
X148847676Y-60845237D01*
X148847676Y-60845237D02*
X148942914Y-60940475D01*
X148942914Y-60940475D02*
X148990533Y-61035713D01*
X140488095Y-43954819D02*
X140488095Y-44764342D01*
X140488095Y-44764342D02*
X140535714Y-44859580D01*
X140535714Y-44859580D02*
X140583333Y-44907200D01*
X140583333Y-44907200D02*
X140678571Y-44954819D01*
X140678571Y-44954819D02*
X140869047Y-44954819D01*
X140869047Y-44954819D02*
X140964285Y-44907200D01*
X140964285Y-44907200D02*
X141011904Y-44859580D01*
X141011904Y-44859580D02*
X141059523Y-44764342D01*
X141059523Y-44764342D02*
X141059523Y-43954819D01*
X141488095Y-44050057D02*
X141535714Y-44002438D01*
X141535714Y-44002438D02*
X141630952Y-43954819D01*
X141630952Y-43954819D02*
X141869047Y-43954819D01*
X141869047Y-43954819D02*
X141964285Y-44002438D01*
X141964285Y-44002438D02*
X142011904Y-44050057D01*
X142011904Y-44050057D02*
X142059523Y-44145295D01*
X142059523Y-44145295D02*
X142059523Y-44240533D01*
X142059523Y-44240533D02*
X142011904Y-44383390D01*
X142011904Y-44383390D02*
X141440476Y-44954819D01*
X141440476Y-44954819D02*
X142059523Y-44954819D01*
X110488095Y-63956819D02*
X111059523Y-63956819D01*
X110773809Y-64956819D02*
X110773809Y-63956819D01*
X111392857Y-64956819D02*
X111392857Y-63956819D01*
X111392857Y-63956819D02*
X111773809Y-63956819D01*
X111773809Y-63956819D02*
X111869047Y-64004438D01*
X111869047Y-64004438D02*
X111916666Y-64052057D01*
X111916666Y-64052057D02*
X111964285Y-64147295D01*
X111964285Y-64147295D02*
X111964285Y-64290152D01*
X111964285Y-64290152D02*
X111916666Y-64385390D01*
X111916666Y-64385390D02*
X111869047Y-64433009D01*
X111869047Y-64433009D02*
X111773809Y-64480628D01*
X111773809Y-64480628D02*
X111392857Y-64480628D01*
X112916666Y-64956819D02*
X112345238Y-64956819D01*
X112630952Y-64956819D02*
X112630952Y-63956819D01*
X112630952Y-63956819D02*
X112535714Y-64099676D01*
X112535714Y-64099676D02*
X112440476Y-64194914D01*
X112440476Y-64194914D02*
X112345238Y-64242533D01*
X154538095Y-47704819D02*
X155109523Y-47704819D01*
X154823809Y-48704819D02*
X154823809Y-47704819D01*
X155442857Y-48704819D02*
X155442857Y-47704819D01*
X155442857Y-47704819D02*
X155823809Y-47704819D01*
X155823809Y-47704819D02*
X155919047Y-47752438D01*
X155919047Y-47752438D02*
X155966666Y-47800057D01*
X155966666Y-47800057D02*
X156014285Y-47895295D01*
X156014285Y-47895295D02*
X156014285Y-48038152D01*
X156014285Y-48038152D02*
X155966666Y-48133390D01*
X155966666Y-48133390D02*
X155919047Y-48181009D01*
X155919047Y-48181009D02*
X155823809Y-48228628D01*
X155823809Y-48228628D02*
X155442857Y-48228628D01*
X156871428Y-47704819D02*
X156680952Y-47704819D01*
X156680952Y-47704819D02*
X156585714Y-47752438D01*
X156585714Y-47752438D02*
X156538095Y-47800057D01*
X156538095Y-47800057D02*
X156442857Y-47942914D01*
X156442857Y-47942914D02*
X156395238Y-48133390D01*
X156395238Y-48133390D02*
X156395238Y-48514342D01*
X156395238Y-48514342D02*
X156442857Y-48609580D01*
X156442857Y-48609580D02*
X156490476Y-48657200D01*
X156490476Y-48657200D02*
X156585714Y-48704819D01*
X156585714Y-48704819D02*
X156776190Y-48704819D01*
X156776190Y-48704819D02*
X156871428Y-48657200D01*
X156871428Y-48657200D02*
X156919047Y-48609580D01*
X156919047Y-48609580D02*
X156966666Y-48514342D01*
X156966666Y-48514342D02*
X156966666Y-48276247D01*
X156966666Y-48276247D02*
X156919047Y-48181009D01*
X156919047Y-48181009D02*
X156871428Y-48133390D01*
X156871428Y-48133390D02*
X156776190Y-48085771D01*
X156776190Y-48085771D02*
X156585714Y-48085771D01*
X156585714Y-48085771D02*
X156490476Y-48133390D01*
X156490476Y-48133390D02*
X156442857Y-48181009D01*
X156442857Y-48181009D02*
X156395238Y-48276247D01*
X146738095Y-65454819D02*
X147309523Y-65454819D01*
X147023809Y-66454819D02*
X147023809Y-65454819D01*
X147642857Y-66454819D02*
X147642857Y-65454819D01*
X147642857Y-65454819D02*
X148023809Y-65454819D01*
X148023809Y-65454819D02*
X148119047Y-65502438D01*
X148119047Y-65502438D02*
X148166666Y-65550057D01*
X148166666Y-65550057D02*
X148214285Y-65645295D01*
X148214285Y-65645295D02*
X148214285Y-65788152D01*
X148214285Y-65788152D02*
X148166666Y-65883390D01*
X148166666Y-65883390D02*
X148119047Y-65931009D01*
X148119047Y-65931009D02*
X148023809Y-65978628D01*
X148023809Y-65978628D02*
X147642857Y-65978628D01*
X148595238Y-65550057D02*
X148642857Y-65502438D01*
X148642857Y-65502438D02*
X148738095Y-65454819D01*
X148738095Y-65454819D02*
X148976190Y-65454819D01*
X148976190Y-65454819D02*
X149071428Y-65502438D01*
X149071428Y-65502438D02*
X149119047Y-65550057D01*
X149119047Y-65550057D02*
X149166666Y-65645295D01*
X149166666Y-65645295D02*
X149166666Y-65740533D01*
X149166666Y-65740533D02*
X149119047Y-65883390D01*
X149119047Y-65883390D02*
X148547619Y-66454819D01*
X148547619Y-66454819D02*
X149166666Y-66454819D01*
X144583333Y-36859580D02*
X144535714Y-36907200D01*
X144535714Y-36907200D02*
X144392857Y-36954819D01*
X144392857Y-36954819D02*
X144297619Y-36954819D01*
X144297619Y-36954819D02*
X144154762Y-36907200D01*
X144154762Y-36907200D02*
X144059524Y-36811961D01*
X144059524Y-36811961D02*
X144011905Y-36716723D01*
X144011905Y-36716723D02*
X143964286Y-36526247D01*
X143964286Y-36526247D02*
X143964286Y-36383390D01*
X143964286Y-36383390D02*
X144011905Y-36192914D01*
X144011905Y-36192914D02*
X144059524Y-36097676D01*
X144059524Y-36097676D02*
X144154762Y-36002438D01*
X144154762Y-36002438D02*
X144297619Y-35954819D01*
X144297619Y-35954819D02*
X144392857Y-35954819D01*
X144392857Y-35954819D02*
X144535714Y-36002438D01*
X144535714Y-36002438D02*
X144583333Y-36050057D01*
X145535714Y-36954819D02*
X144964286Y-36954819D01*
X145250000Y-36954819D02*
X145250000Y-35954819D01*
X145250000Y-35954819D02*
X145154762Y-36097676D01*
X145154762Y-36097676D02*
X145059524Y-36192914D01*
X145059524Y-36192914D02*
X144964286Y-36240533D01*
X141833333Y-39954819D02*
X141500000Y-39478628D01*
X141261905Y-39954819D02*
X141261905Y-38954819D01*
X141261905Y-38954819D02*
X141642857Y-38954819D01*
X141642857Y-38954819D02*
X141738095Y-39002438D01*
X141738095Y-39002438D02*
X141785714Y-39050057D01*
X141785714Y-39050057D02*
X141833333Y-39145295D01*
X141833333Y-39145295D02*
X141833333Y-39288152D01*
X141833333Y-39288152D02*
X141785714Y-39383390D01*
X141785714Y-39383390D02*
X141738095Y-39431009D01*
X141738095Y-39431009D02*
X141642857Y-39478628D01*
X141642857Y-39478628D02*
X141261905Y-39478628D01*
X142690476Y-38954819D02*
X142500000Y-38954819D01*
X142500000Y-38954819D02*
X142404762Y-39002438D01*
X142404762Y-39002438D02*
X142357143Y-39050057D01*
X142357143Y-39050057D02*
X142261905Y-39192914D01*
X142261905Y-39192914D02*
X142214286Y-39383390D01*
X142214286Y-39383390D02*
X142214286Y-39764342D01*
X142214286Y-39764342D02*
X142261905Y-39859580D01*
X142261905Y-39859580D02*
X142309524Y-39907200D01*
X142309524Y-39907200D02*
X142404762Y-39954819D01*
X142404762Y-39954819D02*
X142595238Y-39954819D01*
X142595238Y-39954819D02*
X142690476Y-39907200D01*
X142690476Y-39907200D02*
X142738095Y-39859580D01*
X142738095Y-39859580D02*
X142785714Y-39764342D01*
X142785714Y-39764342D02*
X142785714Y-39526247D01*
X142785714Y-39526247D02*
X142738095Y-39431009D01*
X142738095Y-39431009D02*
X142690476Y-39383390D01*
X142690476Y-39383390D02*
X142595238Y-39335771D01*
X142595238Y-39335771D02*
X142404762Y-39335771D01*
X142404762Y-39335771D02*
X142309524Y-39383390D01*
X142309524Y-39383390D02*
X142261905Y-39431009D01*
X142261905Y-39431009D02*
X142214286Y-39526247D01*
X138488095Y-65454819D02*
X139059523Y-65454819D01*
X138773809Y-66454819D02*
X138773809Y-65454819D01*
X139392857Y-66454819D02*
X139392857Y-65454819D01*
X139392857Y-65454819D02*
X139773809Y-65454819D01*
X139773809Y-65454819D02*
X139869047Y-65502438D01*
X139869047Y-65502438D02*
X139916666Y-65550057D01*
X139916666Y-65550057D02*
X139964285Y-65645295D01*
X139964285Y-65645295D02*
X139964285Y-65788152D01*
X139964285Y-65788152D02*
X139916666Y-65883390D01*
X139916666Y-65883390D02*
X139869047Y-65931009D01*
X139869047Y-65931009D02*
X139773809Y-65978628D01*
X139773809Y-65978628D02*
X139392857Y-65978628D01*
X140297619Y-65454819D02*
X140916666Y-65454819D01*
X140916666Y-65454819D02*
X140583333Y-65835771D01*
X140583333Y-65835771D02*
X140726190Y-65835771D01*
X140726190Y-65835771D02*
X140821428Y-65883390D01*
X140821428Y-65883390D02*
X140869047Y-65931009D01*
X140869047Y-65931009D02*
X140916666Y-66026247D01*
X140916666Y-66026247D02*
X140916666Y-66264342D01*
X140916666Y-66264342D02*
X140869047Y-66359580D01*
X140869047Y-66359580D02*
X140821428Y-66407200D01*
X140821428Y-66407200D02*
X140726190Y-66454819D01*
X140726190Y-66454819D02*
X140440476Y-66454819D01*
X140440476Y-66454819D02*
X140345238Y-66407200D01*
X140345238Y-66407200D02*
X140297619Y-66359580D01*
X83649166Y-74904819D02*
X83649166Y-75619104D01*
X83649166Y-75619104D02*
X83601547Y-75761961D01*
X83601547Y-75761961D02*
X83506309Y-75857200D01*
X83506309Y-75857200D02*
X83363452Y-75904819D01*
X83363452Y-75904819D02*
X83268214Y-75904819D01*
X84077738Y-75000057D02*
X84125357Y-74952438D01*
X84125357Y-74952438D02*
X84220595Y-74904819D01*
X84220595Y-74904819D02*
X84458690Y-74904819D01*
X84458690Y-74904819D02*
X84553928Y-74952438D01*
X84553928Y-74952438D02*
X84601547Y-75000057D01*
X84601547Y-75000057D02*
X84649166Y-75095295D01*
X84649166Y-75095295D02*
X84649166Y-75190533D01*
X84649166Y-75190533D02*
X84601547Y-75333390D01*
X84601547Y-75333390D02*
X84030119Y-75904819D01*
X84030119Y-75904819D02*
X84649166Y-75904819D01*
X111261905Y-28804819D02*
X111261905Y-27804819D01*
X111261905Y-27804819D02*
X111500000Y-27804819D01*
X111500000Y-27804819D02*
X111642857Y-27852438D01*
X111642857Y-27852438D02*
X111738095Y-27947676D01*
X111738095Y-27947676D02*
X111785714Y-28042914D01*
X111785714Y-28042914D02*
X111833333Y-28233390D01*
X111833333Y-28233390D02*
X111833333Y-28376247D01*
X111833333Y-28376247D02*
X111785714Y-28566723D01*
X111785714Y-28566723D02*
X111738095Y-28661961D01*
X111738095Y-28661961D02*
X111642857Y-28757200D01*
X111642857Y-28757200D02*
X111500000Y-28804819D01*
X111500000Y-28804819D02*
X111261905Y-28804819D01*
X112214286Y-27900057D02*
X112261905Y-27852438D01*
X112261905Y-27852438D02*
X112357143Y-27804819D01*
X112357143Y-27804819D02*
X112595238Y-27804819D01*
X112595238Y-27804819D02*
X112690476Y-27852438D01*
X112690476Y-27852438D02*
X112738095Y-27900057D01*
X112738095Y-27900057D02*
X112785714Y-27995295D01*
X112785714Y-27995295D02*
X112785714Y-28090533D01*
X112785714Y-28090533D02*
X112738095Y-28233390D01*
X112738095Y-28233390D02*
X112166667Y-28804819D01*
X112166667Y-28804819D02*
X112785714Y-28804819D01*
X113359580Y-43392857D02*
X113407200Y-43440476D01*
X113407200Y-43440476D02*
X113454819Y-43583333D01*
X113454819Y-43583333D02*
X113454819Y-43678571D01*
X113454819Y-43678571D02*
X113407200Y-43821428D01*
X113407200Y-43821428D02*
X113311961Y-43916666D01*
X113311961Y-43916666D02*
X113216723Y-43964285D01*
X113216723Y-43964285D02*
X113026247Y-44011904D01*
X113026247Y-44011904D02*
X112883390Y-44011904D01*
X112883390Y-44011904D02*
X112692914Y-43964285D01*
X112692914Y-43964285D02*
X112597676Y-43916666D01*
X112597676Y-43916666D02*
X112502438Y-43821428D01*
X112502438Y-43821428D02*
X112454819Y-43678571D01*
X112454819Y-43678571D02*
X112454819Y-43583333D01*
X112454819Y-43583333D02*
X112502438Y-43440476D01*
X112502438Y-43440476D02*
X112550057Y-43392857D01*
X113454819Y-42440476D02*
X113454819Y-43011904D01*
X113454819Y-42726190D02*
X112454819Y-42726190D01*
X112454819Y-42726190D02*
X112597676Y-42821428D01*
X112597676Y-42821428D02*
X112692914Y-42916666D01*
X112692914Y-42916666D02*
X112740533Y-43011904D01*
X113454819Y-41964285D02*
X113454819Y-41773809D01*
X113454819Y-41773809D02*
X113407200Y-41678571D01*
X113407200Y-41678571D02*
X113359580Y-41630952D01*
X113359580Y-41630952D02*
X113216723Y-41535714D01*
X113216723Y-41535714D02*
X113026247Y-41488095D01*
X113026247Y-41488095D02*
X112645295Y-41488095D01*
X112645295Y-41488095D02*
X112550057Y-41535714D01*
X112550057Y-41535714D02*
X112502438Y-41583333D01*
X112502438Y-41583333D02*
X112454819Y-41678571D01*
X112454819Y-41678571D02*
X112454819Y-41869047D01*
X112454819Y-41869047D02*
X112502438Y-41964285D01*
X112502438Y-41964285D02*
X112550057Y-42011904D01*
X112550057Y-42011904D02*
X112645295Y-42059523D01*
X112645295Y-42059523D02*
X112883390Y-42059523D01*
X112883390Y-42059523D02*
X112978628Y-42011904D01*
X112978628Y-42011904D02*
X113026247Y-41964285D01*
X113026247Y-41964285D02*
X113073866Y-41869047D01*
X113073866Y-41869047D02*
X113073866Y-41678571D01*
X113073866Y-41678571D02*
X113026247Y-41583333D01*
X113026247Y-41583333D02*
X112978628Y-41535714D01*
X112978628Y-41535714D02*
X112883390Y-41488095D01*
D11*
X127678572Y-75285552D02*
X127678572Y-76285552D01*
X127678572Y-75333171D02*
X127773810Y-75285552D01*
X127773810Y-75285552D02*
X127964286Y-75285552D01*
X127964286Y-75285552D02*
X128059524Y-75333171D01*
X128059524Y-75333171D02*
X128107143Y-75380790D01*
X128107143Y-75380790D02*
X128154762Y-75476028D01*
X128154762Y-75476028D02*
X128154762Y-75761742D01*
X128154762Y-75761742D02*
X128107143Y-75856980D01*
X128107143Y-75856980D02*
X128059524Y-75904600D01*
X128059524Y-75904600D02*
X127964286Y-75952219D01*
X127964286Y-75952219D02*
X127773810Y-75952219D01*
X127773810Y-75952219D02*
X127678572Y-75904600D01*
X128583334Y-75952219D02*
X128583334Y-75285552D01*
X128583334Y-75380790D02*
X128630953Y-75333171D01*
X128630953Y-75333171D02*
X128726191Y-75285552D01*
X128726191Y-75285552D02*
X128869048Y-75285552D01*
X128869048Y-75285552D02*
X128964286Y-75333171D01*
X128964286Y-75333171D02*
X129011905Y-75428409D01*
X129011905Y-75428409D02*
X129011905Y-75952219D01*
X129011905Y-75428409D02*
X129059524Y-75333171D01*
X129059524Y-75333171D02*
X129154762Y-75285552D01*
X129154762Y-75285552D02*
X129297619Y-75285552D01*
X129297619Y-75285552D02*
X129392858Y-75333171D01*
X129392858Y-75333171D02*
X129440477Y-75428409D01*
X129440477Y-75428409D02*
X129440477Y-75952219D01*
X129869048Y-75047457D02*
X129916667Y-74999838D01*
X129916667Y-74999838D02*
X130011905Y-74952219D01*
X130011905Y-74952219D02*
X130250000Y-74952219D01*
X130250000Y-74952219D02*
X130345238Y-74999838D01*
X130345238Y-74999838D02*
X130392857Y-75047457D01*
X130392857Y-75047457D02*
X130440476Y-75142695D01*
X130440476Y-75142695D02*
X130440476Y-75237933D01*
X130440476Y-75237933D02*
X130392857Y-75380790D01*
X130392857Y-75380790D02*
X129821429Y-75952219D01*
X129821429Y-75952219D02*
X130440476Y-75952219D01*
X130869048Y-75856980D02*
X130916667Y-75904600D01*
X130916667Y-75904600D02*
X130869048Y-75952219D01*
X130869048Y-75952219D02*
X130821429Y-75904600D01*
X130821429Y-75904600D02*
X130869048Y-75856980D01*
X130869048Y-75856980D02*
X130869048Y-75952219D01*
X131821428Y-74952219D02*
X131345238Y-74952219D01*
X131345238Y-74952219D02*
X131297619Y-75428409D01*
X131297619Y-75428409D02*
X131345238Y-75380790D01*
X131345238Y-75380790D02*
X131440476Y-75333171D01*
X131440476Y-75333171D02*
X131678571Y-75333171D01*
X131678571Y-75333171D02*
X131773809Y-75380790D01*
X131773809Y-75380790D02*
X131821428Y-75428409D01*
X131821428Y-75428409D02*
X131869047Y-75523647D01*
X131869047Y-75523647D02*
X131869047Y-75761742D01*
X131869047Y-75761742D02*
X131821428Y-75856980D01*
X131821428Y-75856980D02*
X131773809Y-75904600D01*
X131773809Y-75904600D02*
X131678571Y-75952219D01*
X131678571Y-75952219D02*
X131440476Y-75952219D01*
X131440476Y-75952219D02*
X131345238Y-75904600D01*
X131345238Y-75904600D02*
X131297619Y-75856980D01*
D12*
X90083333Y-45491903D02*
X90035714Y-45539523D01*
X90035714Y-45539523D02*
X89892857Y-45587142D01*
X89892857Y-45587142D02*
X89797619Y-45587142D01*
X89797619Y-45587142D02*
X89654762Y-45539523D01*
X89654762Y-45539523D02*
X89559524Y-45444284D01*
X89559524Y-45444284D02*
X89511905Y-45349046D01*
X89511905Y-45349046D02*
X89464286Y-45158570D01*
X89464286Y-45158570D02*
X89464286Y-45015713D01*
X89464286Y-45015713D02*
X89511905Y-44825237D01*
X89511905Y-44825237D02*
X89559524Y-44729999D01*
X89559524Y-44729999D02*
X89654762Y-44634761D01*
X89654762Y-44634761D02*
X89797619Y-44587142D01*
X89797619Y-44587142D02*
X89892857Y-44587142D01*
X89892857Y-44587142D02*
X90035714Y-44634761D01*
X90035714Y-44634761D02*
X90083333Y-44682380D01*
X90988095Y-44587142D02*
X90511905Y-44587142D01*
X90511905Y-44587142D02*
X90464286Y-45063332D01*
X90464286Y-45063332D02*
X90511905Y-45015713D01*
X90511905Y-45015713D02*
X90607143Y-44968094D01*
X90607143Y-44968094D02*
X90845238Y-44968094D01*
X90845238Y-44968094D02*
X90940476Y-45015713D01*
X90940476Y-45015713D02*
X90988095Y-45063332D01*
X90988095Y-45063332D02*
X91035714Y-45158570D01*
X91035714Y-45158570D02*
X91035714Y-45396665D01*
X91035714Y-45396665D02*
X90988095Y-45491903D01*
X90988095Y-45491903D02*
X90940476Y-45539523D01*
X90940476Y-45539523D02*
X90845238Y-45587142D01*
X90845238Y-45587142D02*
X90607143Y-45587142D01*
X90607143Y-45587142D02*
X90511905Y-45539523D01*
X90511905Y-45539523D02*
X90464286Y-45491903D01*
D10*
X119071428Y-58457419D02*
X118738095Y-57981228D01*
X118500000Y-58457419D02*
X118500000Y-57457419D01*
X118500000Y-57457419D02*
X118880952Y-57457419D01*
X118880952Y-57457419D02*
X118976190Y-57505038D01*
X118976190Y-57505038D02*
X119023809Y-57552657D01*
X119023809Y-57552657D02*
X119071428Y-57647895D01*
X119071428Y-57647895D02*
X119071428Y-57790752D01*
X119071428Y-57790752D02*
X119023809Y-57885990D01*
X119023809Y-57885990D02*
X118976190Y-57933609D01*
X118976190Y-57933609D02*
X118880952Y-57981228D01*
X118880952Y-57981228D02*
X118500000Y-57981228D01*
X119500000Y-57933609D02*
X119833333Y-57933609D01*
X119976190Y-58457419D02*
X119500000Y-58457419D01*
X119500000Y-58457419D02*
X119500000Y-57457419D01*
X119500000Y-57457419D02*
X119976190Y-57457419D01*
X120357143Y-58409800D02*
X120500000Y-58457419D01*
X120500000Y-58457419D02*
X120738095Y-58457419D01*
X120738095Y-58457419D02*
X120833333Y-58409800D01*
X120833333Y-58409800D02*
X120880952Y-58362180D01*
X120880952Y-58362180D02*
X120928571Y-58266942D01*
X120928571Y-58266942D02*
X120928571Y-58171704D01*
X120928571Y-58171704D02*
X120880952Y-58076466D01*
X120880952Y-58076466D02*
X120833333Y-58028847D01*
X120833333Y-58028847D02*
X120738095Y-57981228D01*
X120738095Y-57981228D02*
X120547619Y-57933609D01*
X120547619Y-57933609D02*
X120452381Y-57885990D01*
X120452381Y-57885990D02*
X120404762Y-57838371D01*
X120404762Y-57838371D02*
X120357143Y-57743133D01*
X120357143Y-57743133D02*
X120357143Y-57647895D01*
X120357143Y-57647895D02*
X120404762Y-57552657D01*
X120404762Y-57552657D02*
X120452381Y-57505038D01*
X120452381Y-57505038D02*
X120547619Y-57457419D01*
X120547619Y-57457419D02*
X120785714Y-57457419D01*
X120785714Y-57457419D02*
X120928571Y-57505038D01*
X121357143Y-57933609D02*
X121690476Y-57933609D01*
X121833333Y-58457419D02*
X121357143Y-58457419D01*
X121357143Y-58457419D02*
X121357143Y-57457419D01*
X121357143Y-57457419D02*
X121833333Y-57457419D01*
X122119048Y-57457419D02*
X122690476Y-57457419D01*
X122404762Y-58457419D02*
X122404762Y-57457419D01*
X123547619Y-58457419D02*
X122976191Y-58457419D01*
X123261905Y-58457419D02*
X123261905Y-57457419D01*
X123261905Y-57457419D02*
X123166667Y-57600276D01*
X123166667Y-57600276D02*
X123071429Y-57695514D01*
X123071429Y-57695514D02*
X122976191Y-57743133D01*
D12*
X147833333Y-40884819D02*
X147500000Y-40408628D01*
X147261905Y-40884819D02*
X147261905Y-39884819D01*
X147261905Y-39884819D02*
X147642857Y-39884819D01*
X147642857Y-39884819D02*
X147738095Y-39932438D01*
X147738095Y-39932438D02*
X147785714Y-39980057D01*
X147785714Y-39980057D02*
X147833333Y-40075295D01*
X147833333Y-40075295D02*
X147833333Y-40218152D01*
X147833333Y-40218152D02*
X147785714Y-40313390D01*
X147785714Y-40313390D02*
X147738095Y-40361009D01*
X147738095Y-40361009D02*
X147642857Y-40408628D01*
X147642857Y-40408628D02*
X147261905Y-40408628D01*
X148785714Y-40884819D02*
X148214286Y-40884819D01*
X148500000Y-40884819D02*
X148500000Y-39884819D01*
X148500000Y-39884819D02*
X148404762Y-40027676D01*
X148404762Y-40027676D02*
X148309524Y-40122914D01*
X148309524Y-40122914D02*
X148214286Y-40170533D01*
X114333333Y-72454819D02*
X114000000Y-71978628D01*
X113761905Y-72454819D02*
X113761905Y-71454819D01*
X113761905Y-71454819D02*
X114142857Y-71454819D01*
X114142857Y-71454819D02*
X114238095Y-71502438D01*
X114238095Y-71502438D02*
X114285714Y-71550057D01*
X114285714Y-71550057D02*
X114333333Y-71645295D01*
X114333333Y-71645295D02*
X114333333Y-71788152D01*
X114333333Y-71788152D02*
X114285714Y-71883390D01*
X114285714Y-71883390D02*
X114238095Y-71931009D01*
X114238095Y-71931009D02*
X114142857Y-71978628D01*
X114142857Y-71978628D02*
X113761905Y-71978628D01*
X115238095Y-71454819D02*
X114761905Y-71454819D01*
X114761905Y-71454819D02*
X114714286Y-71931009D01*
X114714286Y-71931009D02*
X114761905Y-71883390D01*
X114761905Y-71883390D02*
X114857143Y-71835771D01*
X114857143Y-71835771D02*
X115095238Y-71835771D01*
X115095238Y-71835771D02*
X115190476Y-71883390D01*
X115190476Y-71883390D02*
X115238095Y-71931009D01*
X115238095Y-71931009D02*
X115285714Y-72026247D01*
X115285714Y-72026247D02*
X115285714Y-72264342D01*
X115285714Y-72264342D02*
X115238095Y-72359580D01*
X115238095Y-72359580D02*
X115190476Y-72407200D01*
X115190476Y-72407200D02*
X115095238Y-72454819D01*
X115095238Y-72454819D02*
X114857143Y-72454819D01*
X114857143Y-72454819D02*
X114761905Y-72407200D01*
X114761905Y-72407200D02*
X114714286Y-72359580D01*
X118789580Y-71642857D02*
X118837200Y-71690476D01*
X118837200Y-71690476D02*
X118884819Y-71833333D01*
X118884819Y-71833333D02*
X118884819Y-71928571D01*
X118884819Y-71928571D02*
X118837200Y-72071428D01*
X118837200Y-72071428D02*
X118741961Y-72166666D01*
X118741961Y-72166666D02*
X118646723Y-72214285D01*
X118646723Y-72214285D02*
X118456247Y-72261904D01*
X118456247Y-72261904D02*
X118313390Y-72261904D01*
X118313390Y-72261904D02*
X118122914Y-72214285D01*
X118122914Y-72214285D02*
X118027676Y-72166666D01*
X118027676Y-72166666D02*
X117932438Y-72071428D01*
X117932438Y-72071428D02*
X117884819Y-71928571D01*
X117884819Y-71928571D02*
X117884819Y-71833333D01*
X117884819Y-71833333D02*
X117932438Y-71690476D01*
X117932438Y-71690476D02*
X117980057Y-71642857D01*
X118884819Y-70690476D02*
X118884819Y-71261904D01*
X118884819Y-70976190D02*
X117884819Y-70976190D01*
X117884819Y-70976190D02*
X118027676Y-71071428D01*
X118027676Y-71071428D02*
X118122914Y-71166666D01*
X118122914Y-71166666D02*
X118170533Y-71261904D01*
X118313390Y-70119047D02*
X118265771Y-70214285D01*
X118265771Y-70214285D02*
X118218152Y-70261904D01*
X118218152Y-70261904D02*
X118122914Y-70309523D01*
X118122914Y-70309523D02*
X118075295Y-70309523D01*
X118075295Y-70309523D02*
X117980057Y-70261904D01*
X117980057Y-70261904D02*
X117932438Y-70214285D01*
X117932438Y-70214285D02*
X117884819Y-70119047D01*
X117884819Y-70119047D02*
X117884819Y-69928571D01*
X117884819Y-69928571D02*
X117932438Y-69833333D01*
X117932438Y-69833333D02*
X117980057Y-69785714D01*
X117980057Y-69785714D02*
X118075295Y-69738095D01*
X118075295Y-69738095D02*
X118122914Y-69738095D01*
X118122914Y-69738095D02*
X118218152Y-69785714D01*
X118218152Y-69785714D02*
X118265771Y-69833333D01*
X118265771Y-69833333D02*
X118313390Y-69928571D01*
X118313390Y-69928571D02*
X118313390Y-70119047D01*
X118313390Y-70119047D02*
X118361009Y-70214285D01*
X118361009Y-70214285D02*
X118408628Y-70261904D01*
X118408628Y-70261904D02*
X118503866Y-70309523D01*
X118503866Y-70309523D02*
X118694342Y-70309523D01*
X118694342Y-70309523D02*
X118789580Y-70261904D01*
X118789580Y-70261904D02*
X118837200Y-70214285D01*
X118837200Y-70214285D02*
X118884819Y-70119047D01*
X118884819Y-70119047D02*
X118884819Y-69928571D01*
X118884819Y-69928571D02*
X118837200Y-69833333D01*
X118837200Y-69833333D02*
X118789580Y-69785714D01*
X118789580Y-69785714D02*
X118694342Y-69738095D01*
X118694342Y-69738095D02*
X118503866Y-69738095D01*
X118503866Y-69738095D02*
X118408628Y-69785714D01*
X118408628Y-69785714D02*
X118361009Y-69833333D01*
X118361009Y-69833333D02*
X118313390Y-69928571D01*
X90107142Y-59359580D02*
X90059523Y-59407200D01*
X90059523Y-59407200D02*
X89916666Y-59454819D01*
X89916666Y-59454819D02*
X89821428Y-59454819D01*
X89821428Y-59454819D02*
X89678571Y-59407200D01*
X89678571Y-59407200D02*
X89583333Y-59311961D01*
X89583333Y-59311961D02*
X89535714Y-59216723D01*
X89535714Y-59216723D02*
X89488095Y-59026247D01*
X89488095Y-59026247D02*
X89488095Y-58883390D01*
X89488095Y-58883390D02*
X89535714Y-58692914D01*
X89535714Y-58692914D02*
X89583333Y-58597676D01*
X89583333Y-58597676D02*
X89678571Y-58502438D01*
X89678571Y-58502438D02*
X89821428Y-58454819D01*
X89821428Y-58454819D02*
X89916666Y-58454819D01*
X89916666Y-58454819D02*
X90059523Y-58502438D01*
X90059523Y-58502438D02*
X90107142Y-58550057D01*
X91059523Y-59454819D02*
X90488095Y-59454819D01*
X90773809Y-59454819D02*
X90773809Y-58454819D01*
X90773809Y-58454819D02*
X90678571Y-58597676D01*
X90678571Y-58597676D02*
X90583333Y-58692914D01*
X90583333Y-58692914D02*
X90488095Y-58740533D01*
X91678571Y-58454819D02*
X91773809Y-58454819D01*
X91773809Y-58454819D02*
X91869047Y-58502438D01*
X91869047Y-58502438D02*
X91916666Y-58550057D01*
X91916666Y-58550057D02*
X91964285Y-58645295D01*
X91964285Y-58645295D02*
X92011904Y-58835771D01*
X92011904Y-58835771D02*
X92011904Y-59073866D01*
X92011904Y-59073866D02*
X91964285Y-59264342D01*
X91964285Y-59264342D02*
X91916666Y-59359580D01*
X91916666Y-59359580D02*
X91869047Y-59407200D01*
X91869047Y-59407200D02*
X91773809Y-59454819D01*
X91773809Y-59454819D02*
X91678571Y-59454819D01*
X91678571Y-59454819D02*
X91583333Y-59407200D01*
X91583333Y-59407200D02*
X91535714Y-59359580D01*
X91535714Y-59359580D02*
X91488095Y-59264342D01*
X91488095Y-59264342D02*
X91440476Y-59073866D01*
X91440476Y-59073866D02*
X91440476Y-58835771D01*
X91440476Y-58835771D02*
X91488095Y-58645295D01*
X91488095Y-58645295D02*
X91535714Y-58550057D01*
X91535714Y-58550057D02*
X91583333Y-58502438D01*
X91583333Y-58502438D02*
X91678571Y-58454819D01*
X154609580Y-68642857D02*
X154657200Y-68690476D01*
X154657200Y-68690476D02*
X154704819Y-68833333D01*
X154704819Y-68833333D02*
X154704819Y-68928571D01*
X154704819Y-68928571D02*
X154657200Y-69071428D01*
X154657200Y-69071428D02*
X154561961Y-69166666D01*
X154561961Y-69166666D02*
X154466723Y-69214285D01*
X154466723Y-69214285D02*
X154276247Y-69261904D01*
X154276247Y-69261904D02*
X154133390Y-69261904D01*
X154133390Y-69261904D02*
X153942914Y-69214285D01*
X153942914Y-69214285D02*
X153847676Y-69166666D01*
X153847676Y-69166666D02*
X153752438Y-69071428D01*
X153752438Y-69071428D02*
X153704819Y-68928571D01*
X153704819Y-68928571D02*
X153704819Y-68833333D01*
X153704819Y-68833333D02*
X153752438Y-68690476D01*
X153752438Y-68690476D02*
X153800057Y-68642857D01*
X154704819Y-67690476D02*
X154704819Y-68261904D01*
X154704819Y-67976190D02*
X153704819Y-67976190D01*
X153704819Y-67976190D02*
X153847676Y-68071428D01*
X153847676Y-68071428D02*
X153942914Y-68166666D01*
X153942914Y-68166666D02*
X153990533Y-68261904D01*
X153704819Y-67357142D02*
X153704819Y-66690476D01*
X153704819Y-66690476D02*
X154704819Y-67119047D01*
X157704819Y-53821428D02*
X157704819Y-54297618D01*
X157704819Y-54297618D02*
X156704819Y-54297618D01*
X157704819Y-53345237D02*
X157657200Y-53440475D01*
X157657200Y-53440475D02*
X157609580Y-53488094D01*
X157609580Y-53488094D02*
X157514342Y-53535713D01*
X157514342Y-53535713D02*
X157228628Y-53535713D01*
X157228628Y-53535713D02*
X157133390Y-53488094D01*
X157133390Y-53488094D02*
X157085771Y-53440475D01*
X157085771Y-53440475D02*
X157038152Y-53345237D01*
X157038152Y-53345237D02*
X157038152Y-53202380D01*
X157038152Y-53202380D02*
X157085771Y-53107142D01*
X157085771Y-53107142D02*
X157133390Y-53059523D01*
X157133390Y-53059523D02*
X157228628Y-53011904D01*
X157228628Y-53011904D02*
X157514342Y-53011904D01*
X157514342Y-53011904D02*
X157609580Y-53059523D01*
X157609580Y-53059523D02*
X157657200Y-53107142D01*
X157657200Y-53107142D02*
X157704819Y-53202380D01*
X157704819Y-53202380D02*
X157704819Y-53345237D01*
X157704819Y-52011904D02*
X157228628Y-52345237D01*
X157704819Y-52583332D02*
X156704819Y-52583332D01*
X156704819Y-52583332D02*
X156704819Y-52202380D01*
X156704819Y-52202380D02*
X156752438Y-52107142D01*
X156752438Y-52107142D02*
X156800057Y-52059523D01*
X156800057Y-52059523D02*
X156895295Y-52011904D01*
X156895295Y-52011904D02*
X157038152Y-52011904D01*
X157038152Y-52011904D02*
X157133390Y-52059523D01*
X157133390Y-52059523D02*
X157181009Y-52107142D01*
X157181009Y-52107142D02*
X157228628Y-52202380D01*
X157228628Y-52202380D02*
X157228628Y-52583332D01*
X157704819Y-51154761D02*
X157181009Y-51154761D01*
X157181009Y-51154761D02*
X157085771Y-51202380D01*
X157085771Y-51202380D02*
X157038152Y-51297618D01*
X157038152Y-51297618D02*
X157038152Y-51488094D01*
X157038152Y-51488094D02*
X157085771Y-51583332D01*
X157657200Y-51154761D02*
X157704819Y-51249999D01*
X157704819Y-51249999D02*
X157704819Y-51488094D01*
X157704819Y-51488094D02*
X157657200Y-51583332D01*
X157657200Y-51583332D02*
X157561961Y-51630951D01*
X157561961Y-51630951D02*
X157466723Y-51630951D01*
X157466723Y-51630951D02*
X157371485Y-51583332D01*
X157371485Y-51583332D02*
X157323866Y-51488094D01*
X157323866Y-51488094D02*
X157323866Y-51249999D01*
X157323866Y-51249999D02*
X157276247Y-51154761D01*
X157704819Y-50154761D02*
X157704819Y-50726189D01*
X157704819Y-50440475D02*
X156704819Y-50440475D01*
X156704819Y-50440475D02*
X156847676Y-50535713D01*
X156847676Y-50535713D02*
X156942914Y-50630951D01*
X156942914Y-50630951D02*
X156990533Y-50726189D01*
X83684166Y-27647319D02*
X83684166Y-28361604D01*
X83684166Y-28361604D02*
X83636547Y-28504461D01*
X83636547Y-28504461D02*
X83541309Y-28599700D01*
X83541309Y-28599700D02*
X83398452Y-28647319D01*
X83398452Y-28647319D02*
X83303214Y-28647319D01*
X84684166Y-28647319D02*
X84112738Y-28647319D01*
X84398452Y-28647319D02*
X84398452Y-27647319D01*
X84398452Y-27647319D02*
X84303214Y-27790176D01*
X84303214Y-27790176D02*
X84207976Y-27885414D01*
X84207976Y-27885414D02*
X84112738Y-27933033D01*
X111833333Y-34784819D02*
X111500000Y-34308628D01*
X111261905Y-34784819D02*
X111261905Y-33784819D01*
X111261905Y-33784819D02*
X111642857Y-33784819D01*
X111642857Y-33784819D02*
X111738095Y-33832438D01*
X111738095Y-33832438D02*
X111785714Y-33880057D01*
X111785714Y-33880057D02*
X111833333Y-33975295D01*
X111833333Y-33975295D02*
X111833333Y-34118152D01*
X111833333Y-34118152D02*
X111785714Y-34213390D01*
X111785714Y-34213390D02*
X111738095Y-34261009D01*
X111738095Y-34261009D02*
X111642857Y-34308628D01*
X111642857Y-34308628D02*
X111261905Y-34308628D01*
X112690476Y-34118152D02*
X112690476Y-34784819D01*
X112452381Y-33737200D02*
X112214286Y-34451485D01*
X112214286Y-34451485D02*
X112833333Y-34451485D01*
X127757142Y-34629580D02*
X127709523Y-34677200D01*
X127709523Y-34677200D02*
X127566666Y-34724819D01*
X127566666Y-34724819D02*
X127471428Y-34724819D01*
X127471428Y-34724819D02*
X127328571Y-34677200D01*
X127328571Y-34677200D02*
X127233333Y-34581961D01*
X127233333Y-34581961D02*
X127185714Y-34486723D01*
X127185714Y-34486723D02*
X127138095Y-34296247D01*
X127138095Y-34296247D02*
X127138095Y-34153390D01*
X127138095Y-34153390D02*
X127185714Y-33962914D01*
X127185714Y-33962914D02*
X127233333Y-33867676D01*
X127233333Y-33867676D02*
X127328571Y-33772438D01*
X127328571Y-33772438D02*
X127471428Y-33724819D01*
X127471428Y-33724819D02*
X127566666Y-33724819D01*
X127566666Y-33724819D02*
X127709523Y-33772438D01*
X127709523Y-33772438D02*
X127757142Y-33820057D01*
X128709523Y-34724819D02*
X128138095Y-34724819D01*
X128423809Y-34724819D02*
X128423809Y-33724819D01*
X128423809Y-33724819D02*
X128328571Y-33867676D01*
X128328571Y-33867676D02*
X128233333Y-33962914D01*
X128233333Y-33962914D02*
X128138095Y-34010533D01*
X129614285Y-33724819D02*
X129138095Y-33724819D01*
X129138095Y-33724819D02*
X129090476Y-34201009D01*
X129090476Y-34201009D02*
X129138095Y-34153390D01*
X129138095Y-34153390D02*
X129233333Y-34105771D01*
X129233333Y-34105771D02*
X129471428Y-34105771D01*
X129471428Y-34105771D02*
X129566666Y-34153390D01*
X129566666Y-34153390D02*
X129614285Y-34201009D01*
X129614285Y-34201009D02*
X129661904Y-34296247D01*
X129661904Y-34296247D02*
X129661904Y-34534342D01*
X129661904Y-34534342D02*
X129614285Y-34629580D01*
X129614285Y-34629580D02*
X129566666Y-34677200D01*
X129566666Y-34677200D02*
X129471428Y-34724819D01*
X129471428Y-34724819D02*
X129233333Y-34724819D01*
X129233333Y-34724819D02*
X129138095Y-34677200D01*
X129138095Y-34677200D02*
X129090476Y-34629580D01*
X147857142Y-55609580D02*
X147809523Y-55657200D01*
X147809523Y-55657200D02*
X147666666Y-55704819D01*
X147666666Y-55704819D02*
X147571428Y-55704819D01*
X147571428Y-55704819D02*
X147428571Y-55657200D01*
X147428571Y-55657200D02*
X147333333Y-55561961D01*
X147333333Y-55561961D02*
X147285714Y-55466723D01*
X147285714Y-55466723D02*
X147238095Y-55276247D01*
X147238095Y-55276247D02*
X147238095Y-55133390D01*
X147238095Y-55133390D02*
X147285714Y-54942914D01*
X147285714Y-54942914D02*
X147333333Y-54847676D01*
X147333333Y-54847676D02*
X147428571Y-54752438D01*
X147428571Y-54752438D02*
X147571428Y-54704819D01*
X147571428Y-54704819D02*
X147666666Y-54704819D01*
X147666666Y-54704819D02*
X147809523Y-54752438D01*
X147809523Y-54752438D02*
X147857142Y-54800057D01*
X148809523Y-55704819D02*
X148238095Y-55704819D01*
X148523809Y-55704819D02*
X148523809Y-54704819D01*
X148523809Y-54704819D02*
X148428571Y-54847676D01*
X148428571Y-54847676D02*
X148333333Y-54942914D01*
X148333333Y-54942914D02*
X148238095Y-54990533D01*
X149761904Y-55704819D02*
X149190476Y-55704819D01*
X149476190Y-55704819D02*
X149476190Y-54704819D01*
X149476190Y-54704819D02*
X149380952Y-54847676D01*
X149380952Y-54847676D02*
X149285714Y-54942914D01*
X149285714Y-54942914D02*
X149190476Y-54990533D01*
X157359580Y-60392857D02*
X157407200Y-60440476D01*
X157407200Y-60440476D02*
X157454819Y-60583333D01*
X157454819Y-60583333D02*
X157454819Y-60678571D01*
X157454819Y-60678571D02*
X157407200Y-60821428D01*
X157407200Y-60821428D02*
X157311961Y-60916666D01*
X157311961Y-60916666D02*
X157216723Y-60964285D01*
X157216723Y-60964285D02*
X157026247Y-61011904D01*
X157026247Y-61011904D02*
X156883390Y-61011904D01*
X156883390Y-61011904D02*
X156692914Y-60964285D01*
X156692914Y-60964285D02*
X156597676Y-60916666D01*
X156597676Y-60916666D02*
X156502438Y-60821428D01*
X156502438Y-60821428D02*
X156454819Y-60678571D01*
X156454819Y-60678571D02*
X156454819Y-60583333D01*
X156454819Y-60583333D02*
X156502438Y-60440476D01*
X156502438Y-60440476D02*
X156550057Y-60392857D01*
X157454819Y-59440476D02*
X157454819Y-60011904D01*
X157454819Y-59726190D02*
X156454819Y-59726190D01*
X156454819Y-59726190D02*
X156597676Y-59821428D01*
X156597676Y-59821428D02*
X156692914Y-59916666D01*
X156692914Y-59916666D02*
X156740533Y-60011904D01*
X156454819Y-58583333D02*
X156454819Y-58773809D01*
X156454819Y-58773809D02*
X156502438Y-58869047D01*
X156502438Y-58869047D02*
X156550057Y-58916666D01*
X156550057Y-58916666D02*
X156692914Y-59011904D01*
X156692914Y-59011904D02*
X156883390Y-59059523D01*
X156883390Y-59059523D02*
X157264342Y-59059523D01*
X157264342Y-59059523D02*
X157359580Y-59011904D01*
X157359580Y-59011904D02*
X157407200Y-58964285D01*
X157407200Y-58964285D02*
X157454819Y-58869047D01*
X157454819Y-58869047D02*
X157454819Y-58678571D01*
X157454819Y-58678571D02*
X157407200Y-58583333D01*
X157407200Y-58583333D02*
X157359580Y-58535714D01*
X157359580Y-58535714D02*
X157264342Y-58488095D01*
X157264342Y-58488095D02*
X157026247Y-58488095D01*
X157026247Y-58488095D02*
X156931009Y-58535714D01*
X156931009Y-58535714D02*
X156883390Y-58583333D01*
X156883390Y-58583333D02*
X156835771Y-58678571D01*
X156835771Y-58678571D02*
X156835771Y-58869047D01*
X156835771Y-58869047D02*
X156883390Y-58964285D01*
X156883390Y-58964285D02*
X156931009Y-59011904D01*
X156931009Y-59011904D02*
X157026247Y-59059523D01*
X127523809Y-53728628D02*
X127523809Y-54204819D01*
X127190476Y-53204819D02*
X127523809Y-53728628D01*
X127523809Y-53728628D02*
X127857142Y-53204819D01*
X128714285Y-54204819D02*
X128142857Y-54204819D01*
X128428571Y-54204819D02*
X128428571Y-53204819D01*
X128428571Y-53204819D02*
X128333333Y-53347676D01*
X128333333Y-53347676D02*
X128238095Y-53442914D01*
X128238095Y-53442914D02*
X128142857Y-53490533D01*
D10*
X154107419Y-34333333D02*
X154821704Y-34333333D01*
X154821704Y-34333333D02*
X154964561Y-34380952D01*
X154964561Y-34380952D02*
X155059800Y-34476190D01*
X155059800Y-34476190D02*
X155107419Y-34619047D01*
X155107419Y-34619047D02*
X155107419Y-34714285D01*
X154107419Y-33380952D02*
X154107419Y-33857142D01*
X154107419Y-33857142D02*
X154583609Y-33904761D01*
X154583609Y-33904761D02*
X154535990Y-33857142D01*
X154535990Y-33857142D02*
X154488371Y-33761904D01*
X154488371Y-33761904D02*
X154488371Y-33523809D01*
X154488371Y-33523809D02*
X154535990Y-33428571D01*
X154535990Y-33428571D02*
X154583609Y-33380952D01*
X154583609Y-33380952D02*
X154678847Y-33333333D01*
X154678847Y-33333333D02*
X154916942Y-33333333D01*
X154916942Y-33333333D02*
X155012180Y-33380952D01*
X155012180Y-33380952D02*
X155059800Y-33428571D01*
X155059800Y-33428571D02*
X155107419Y-33523809D01*
X155107419Y-33523809D02*
X155107419Y-33761904D01*
X155107419Y-33761904D02*
X155059800Y-33857142D01*
X155059800Y-33857142D02*
X155012180Y-33904761D01*
D12*
X120583333Y-65539580D02*
X120535714Y-65587200D01*
X120535714Y-65587200D02*
X120392857Y-65634819D01*
X120392857Y-65634819D02*
X120297619Y-65634819D01*
X120297619Y-65634819D02*
X120154762Y-65587200D01*
X120154762Y-65587200D02*
X120059524Y-65491961D01*
X120059524Y-65491961D02*
X120011905Y-65396723D01*
X120011905Y-65396723D02*
X119964286Y-65206247D01*
X119964286Y-65206247D02*
X119964286Y-65063390D01*
X119964286Y-65063390D02*
X120011905Y-64872914D01*
X120011905Y-64872914D02*
X120059524Y-64777676D01*
X120059524Y-64777676D02*
X120154762Y-64682438D01*
X120154762Y-64682438D02*
X120297619Y-64634819D01*
X120297619Y-64634819D02*
X120392857Y-64634819D01*
X120392857Y-64634819D02*
X120535714Y-64682438D01*
X120535714Y-64682438D02*
X120583333Y-64730057D01*
X121440476Y-64968152D02*
X121440476Y-65634819D01*
X121202381Y-64587200D02*
X120964286Y-65301485D01*
X120964286Y-65301485D02*
X121583333Y-65301485D01*
X106107142Y-58859580D02*
X106059523Y-58907200D01*
X106059523Y-58907200D02*
X105916666Y-58954819D01*
X105916666Y-58954819D02*
X105821428Y-58954819D01*
X105821428Y-58954819D02*
X105678571Y-58907200D01*
X105678571Y-58907200D02*
X105583333Y-58811961D01*
X105583333Y-58811961D02*
X105535714Y-58716723D01*
X105535714Y-58716723D02*
X105488095Y-58526247D01*
X105488095Y-58526247D02*
X105488095Y-58383390D01*
X105488095Y-58383390D02*
X105535714Y-58192914D01*
X105535714Y-58192914D02*
X105583333Y-58097676D01*
X105583333Y-58097676D02*
X105678571Y-58002438D01*
X105678571Y-58002438D02*
X105821428Y-57954819D01*
X105821428Y-57954819D02*
X105916666Y-57954819D01*
X105916666Y-57954819D02*
X106059523Y-58002438D01*
X106059523Y-58002438D02*
X106107142Y-58050057D01*
X107059523Y-58954819D02*
X106488095Y-58954819D01*
X106773809Y-58954819D02*
X106773809Y-57954819D01*
X106773809Y-57954819D02*
X106678571Y-58097676D01*
X106678571Y-58097676D02*
X106583333Y-58192914D01*
X106583333Y-58192914D02*
X106488095Y-58240533D01*
X107392857Y-57954819D02*
X108011904Y-57954819D01*
X108011904Y-57954819D02*
X107678571Y-58335771D01*
X107678571Y-58335771D02*
X107821428Y-58335771D01*
X107821428Y-58335771D02*
X107916666Y-58383390D01*
X107916666Y-58383390D02*
X107964285Y-58431009D01*
X107964285Y-58431009D02*
X108011904Y-58526247D01*
X108011904Y-58526247D02*
X108011904Y-58764342D01*
X108011904Y-58764342D02*
X107964285Y-58859580D01*
X107964285Y-58859580D02*
X107916666Y-58907200D01*
X107916666Y-58907200D02*
X107821428Y-58954819D01*
X107821428Y-58954819D02*
X107535714Y-58954819D01*
X107535714Y-58954819D02*
X107440476Y-58907200D01*
X107440476Y-58907200D02*
X107392857Y-58859580D01*
X125583333Y-56024819D02*
X125250000Y-55548628D01*
X125011905Y-56024819D02*
X125011905Y-55024819D01*
X125011905Y-55024819D02*
X125392857Y-55024819D01*
X125392857Y-55024819D02*
X125488095Y-55072438D01*
X125488095Y-55072438D02*
X125535714Y-55120057D01*
X125535714Y-55120057D02*
X125583333Y-55215295D01*
X125583333Y-55215295D02*
X125583333Y-55358152D01*
X125583333Y-55358152D02*
X125535714Y-55453390D01*
X125535714Y-55453390D02*
X125488095Y-55501009D01*
X125488095Y-55501009D02*
X125392857Y-55548628D01*
X125392857Y-55548628D02*
X125011905Y-55548628D01*
X125964286Y-55120057D02*
X126011905Y-55072438D01*
X126011905Y-55072438D02*
X126107143Y-55024819D01*
X126107143Y-55024819D02*
X126345238Y-55024819D01*
X126345238Y-55024819D02*
X126440476Y-55072438D01*
X126440476Y-55072438D02*
X126488095Y-55120057D01*
X126488095Y-55120057D02*
X126535714Y-55215295D01*
X126535714Y-55215295D02*
X126535714Y-55310533D01*
X126535714Y-55310533D02*
X126488095Y-55453390D01*
X126488095Y-55453390D02*
X125916667Y-56024819D01*
X125916667Y-56024819D02*
X126535714Y-56024819D01*
X132109580Y-41916666D02*
X132157200Y-41964285D01*
X132157200Y-41964285D02*
X132204819Y-42107142D01*
X132204819Y-42107142D02*
X132204819Y-42202380D01*
X132204819Y-42202380D02*
X132157200Y-42345237D01*
X132157200Y-42345237D02*
X132061961Y-42440475D01*
X132061961Y-42440475D02*
X131966723Y-42488094D01*
X131966723Y-42488094D02*
X131776247Y-42535713D01*
X131776247Y-42535713D02*
X131633390Y-42535713D01*
X131633390Y-42535713D02*
X131442914Y-42488094D01*
X131442914Y-42488094D02*
X131347676Y-42440475D01*
X131347676Y-42440475D02*
X131252438Y-42345237D01*
X131252438Y-42345237D02*
X131204819Y-42202380D01*
X131204819Y-42202380D02*
X131204819Y-42107142D01*
X131204819Y-42107142D02*
X131252438Y-41964285D01*
X131252438Y-41964285D02*
X131300057Y-41916666D01*
X131633390Y-41345237D02*
X131585771Y-41440475D01*
X131585771Y-41440475D02*
X131538152Y-41488094D01*
X131538152Y-41488094D02*
X131442914Y-41535713D01*
X131442914Y-41535713D02*
X131395295Y-41535713D01*
X131395295Y-41535713D02*
X131300057Y-41488094D01*
X131300057Y-41488094D02*
X131252438Y-41440475D01*
X131252438Y-41440475D02*
X131204819Y-41345237D01*
X131204819Y-41345237D02*
X131204819Y-41154761D01*
X131204819Y-41154761D02*
X131252438Y-41059523D01*
X131252438Y-41059523D02*
X131300057Y-41011904D01*
X131300057Y-41011904D02*
X131395295Y-40964285D01*
X131395295Y-40964285D02*
X131442914Y-40964285D01*
X131442914Y-40964285D02*
X131538152Y-41011904D01*
X131538152Y-41011904D02*
X131585771Y-41059523D01*
X131585771Y-41059523D02*
X131633390Y-41154761D01*
X131633390Y-41154761D02*
X131633390Y-41345237D01*
X131633390Y-41345237D02*
X131681009Y-41440475D01*
X131681009Y-41440475D02*
X131728628Y-41488094D01*
X131728628Y-41488094D02*
X131823866Y-41535713D01*
X131823866Y-41535713D02*
X132014342Y-41535713D01*
X132014342Y-41535713D02*
X132109580Y-41488094D01*
X132109580Y-41488094D02*
X132157200Y-41440475D01*
X132157200Y-41440475D02*
X132204819Y-41345237D01*
X132204819Y-41345237D02*
X132204819Y-41154761D01*
X132204819Y-41154761D02*
X132157200Y-41059523D01*
X132157200Y-41059523D02*
X132109580Y-41011904D01*
X132109580Y-41011904D02*
X132014342Y-40964285D01*
X132014342Y-40964285D02*
X131823866Y-40964285D01*
X131823866Y-40964285D02*
X131728628Y-41011904D01*
X131728628Y-41011904D02*
X131681009Y-41059523D01*
X131681009Y-41059523D02*
X131633390Y-41154761D01*
X99833333Y-64204819D02*
X99357143Y-64204819D01*
X99357143Y-64204819D02*
X99357143Y-63204819D01*
X100119048Y-63300057D02*
X100166667Y-63252438D01*
X100166667Y-63252438D02*
X100261905Y-63204819D01*
X100261905Y-63204819D02*
X100500000Y-63204819D01*
X100500000Y-63204819D02*
X100595238Y-63252438D01*
X100595238Y-63252438D02*
X100642857Y-63300057D01*
X100642857Y-63300057D02*
X100690476Y-63395295D01*
X100690476Y-63395295D02*
X100690476Y-63490533D01*
X100690476Y-63490533D02*
X100642857Y-63633390D01*
X100642857Y-63633390D02*
X100071429Y-64204819D01*
X100071429Y-64204819D02*
X100690476Y-64204819D01*
X144029580Y-45366666D02*
X144077200Y-45414285D01*
X144077200Y-45414285D02*
X144124819Y-45557142D01*
X144124819Y-45557142D02*
X144124819Y-45652380D01*
X144124819Y-45652380D02*
X144077200Y-45795237D01*
X144077200Y-45795237D02*
X143981961Y-45890475D01*
X143981961Y-45890475D02*
X143886723Y-45938094D01*
X143886723Y-45938094D02*
X143696247Y-45985713D01*
X143696247Y-45985713D02*
X143553390Y-45985713D01*
X143553390Y-45985713D02*
X143362914Y-45938094D01*
X143362914Y-45938094D02*
X143267676Y-45890475D01*
X143267676Y-45890475D02*
X143172438Y-45795237D01*
X143172438Y-45795237D02*
X143124819Y-45652380D01*
X143124819Y-45652380D02*
X143124819Y-45557142D01*
X143124819Y-45557142D02*
X143172438Y-45414285D01*
X143172438Y-45414285D02*
X143220057Y-45366666D01*
X144124819Y-44890475D02*
X144124819Y-44699999D01*
X144124819Y-44699999D02*
X144077200Y-44604761D01*
X144077200Y-44604761D02*
X144029580Y-44557142D01*
X144029580Y-44557142D02*
X143886723Y-44461904D01*
X143886723Y-44461904D02*
X143696247Y-44414285D01*
X143696247Y-44414285D02*
X143315295Y-44414285D01*
X143315295Y-44414285D02*
X143220057Y-44461904D01*
X143220057Y-44461904D02*
X143172438Y-44509523D01*
X143172438Y-44509523D02*
X143124819Y-44604761D01*
X143124819Y-44604761D02*
X143124819Y-44795237D01*
X143124819Y-44795237D02*
X143172438Y-44890475D01*
X143172438Y-44890475D02*
X143220057Y-44938094D01*
X143220057Y-44938094D02*
X143315295Y-44985713D01*
X143315295Y-44985713D02*
X143553390Y-44985713D01*
X143553390Y-44985713D02*
X143648628Y-44938094D01*
X143648628Y-44938094D02*
X143696247Y-44890475D01*
X143696247Y-44890475D02*
X143743866Y-44795237D01*
X143743866Y-44795237D02*
X143743866Y-44604761D01*
X143743866Y-44604761D02*
X143696247Y-44509523D01*
X143696247Y-44509523D02*
X143648628Y-44461904D01*
X143648628Y-44461904D02*
X143553390Y-44414285D01*
X131657142Y-49989580D02*
X131609523Y-50037200D01*
X131609523Y-50037200D02*
X131466666Y-50084819D01*
X131466666Y-50084819D02*
X131371428Y-50084819D01*
X131371428Y-50084819D02*
X131228571Y-50037200D01*
X131228571Y-50037200D02*
X131133333Y-49941961D01*
X131133333Y-49941961D02*
X131085714Y-49846723D01*
X131085714Y-49846723D02*
X131038095Y-49656247D01*
X131038095Y-49656247D02*
X131038095Y-49513390D01*
X131038095Y-49513390D02*
X131085714Y-49322914D01*
X131085714Y-49322914D02*
X131133333Y-49227676D01*
X131133333Y-49227676D02*
X131228571Y-49132438D01*
X131228571Y-49132438D02*
X131371428Y-49084819D01*
X131371428Y-49084819D02*
X131466666Y-49084819D01*
X131466666Y-49084819D02*
X131609523Y-49132438D01*
X131609523Y-49132438D02*
X131657142Y-49180057D01*
X132609523Y-50084819D02*
X132038095Y-50084819D01*
X132323809Y-50084819D02*
X132323809Y-49084819D01*
X132323809Y-49084819D02*
X132228571Y-49227676D01*
X132228571Y-49227676D02*
X132133333Y-49322914D01*
X132133333Y-49322914D02*
X132038095Y-49370533D01*
X132990476Y-49180057D02*
X133038095Y-49132438D01*
X133038095Y-49132438D02*
X133133333Y-49084819D01*
X133133333Y-49084819D02*
X133371428Y-49084819D01*
X133371428Y-49084819D02*
X133466666Y-49132438D01*
X133466666Y-49132438D02*
X133514285Y-49180057D01*
X133514285Y-49180057D02*
X133561904Y-49275295D01*
X133561904Y-49275295D02*
X133561904Y-49370533D01*
X133561904Y-49370533D02*
X133514285Y-49513390D01*
X133514285Y-49513390D02*
X132942857Y-50084819D01*
X132942857Y-50084819D02*
X133561904Y-50084819D01*
X93583333Y-33454819D02*
X93107143Y-33454819D01*
X93107143Y-33454819D02*
X93107143Y-32454819D01*
X94440476Y-33454819D02*
X93869048Y-33454819D01*
X94154762Y-33454819D02*
X94154762Y-32454819D01*
X94154762Y-32454819D02*
X94059524Y-32597676D01*
X94059524Y-32597676D02*
X93964286Y-32692914D01*
X93964286Y-32692914D02*
X93869048Y-32740533D01*
X154488095Y-40704819D02*
X155059523Y-40704819D01*
X154773809Y-41704819D02*
X154773809Y-40704819D01*
X155392857Y-41704819D02*
X155392857Y-40704819D01*
X155392857Y-40704819D02*
X155773809Y-40704819D01*
X155773809Y-40704819D02*
X155869047Y-40752438D01*
X155869047Y-40752438D02*
X155916666Y-40800057D01*
X155916666Y-40800057D02*
X155964285Y-40895295D01*
X155964285Y-40895295D02*
X155964285Y-41038152D01*
X155964285Y-41038152D02*
X155916666Y-41133390D01*
X155916666Y-41133390D02*
X155869047Y-41181009D01*
X155869047Y-41181009D02*
X155773809Y-41228628D01*
X155773809Y-41228628D02*
X155392857Y-41228628D01*
X156821428Y-41038152D02*
X156821428Y-41704819D01*
X156583333Y-40657200D02*
X156345238Y-41371485D01*
X156345238Y-41371485D02*
X156964285Y-41371485D01*
X123109580Y-48416666D02*
X123157200Y-48464285D01*
X123157200Y-48464285D02*
X123204819Y-48607142D01*
X123204819Y-48607142D02*
X123204819Y-48702380D01*
X123204819Y-48702380D02*
X123157200Y-48845237D01*
X123157200Y-48845237D02*
X123061961Y-48940475D01*
X123061961Y-48940475D02*
X122966723Y-48988094D01*
X122966723Y-48988094D02*
X122776247Y-49035713D01*
X122776247Y-49035713D02*
X122633390Y-49035713D01*
X122633390Y-49035713D02*
X122442914Y-48988094D01*
X122442914Y-48988094D02*
X122347676Y-48940475D01*
X122347676Y-48940475D02*
X122252438Y-48845237D01*
X122252438Y-48845237D02*
X122204819Y-48702380D01*
X122204819Y-48702380D02*
X122204819Y-48607142D01*
X122204819Y-48607142D02*
X122252438Y-48464285D01*
X122252438Y-48464285D02*
X122300057Y-48416666D01*
X122300057Y-48035713D02*
X122252438Y-47988094D01*
X122252438Y-47988094D02*
X122204819Y-47892856D01*
X122204819Y-47892856D02*
X122204819Y-47654761D01*
X122204819Y-47654761D02*
X122252438Y-47559523D01*
X122252438Y-47559523D02*
X122300057Y-47511904D01*
X122300057Y-47511904D02*
X122395295Y-47464285D01*
X122395295Y-47464285D02*
X122490533Y-47464285D01*
X122490533Y-47464285D02*
X122633390Y-47511904D01*
X122633390Y-47511904D02*
X123204819Y-48083332D01*
X123204819Y-48083332D02*
X123204819Y-47464285D01*
X130157143Y-29907200D02*
X130300000Y-29954819D01*
X130300000Y-29954819D02*
X130538095Y-29954819D01*
X130538095Y-29954819D02*
X130633333Y-29907200D01*
X130633333Y-29907200D02*
X130680952Y-29859580D01*
X130680952Y-29859580D02*
X130728571Y-29764342D01*
X130728571Y-29764342D02*
X130728571Y-29669104D01*
X130728571Y-29669104D02*
X130680952Y-29573866D01*
X130680952Y-29573866D02*
X130633333Y-29526247D01*
X130633333Y-29526247D02*
X130538095Y-29478628D01*
X130538095Y-29478628D02*
X130347619Y-29431009D01*
X130347619Y-29431009D02*
X130252381Y-29383390D01*
X130252381Y-29383390D02*
X130204762Y-29335771D01*
X130204762Y-29335771D02*
X130157143Y-29240533D01*
X130157143Y-29240533D02*
X130157143Y-29145295D01*
X130157143Y-29145295D02*
X130204762Y-29050057D01*
X130204762Y-29050057D02*
X130252381Y-29002438D01*
X130252381Y-29002438D02*
X130347619Y-28954819D01*
X130347619Y-28954819D02*
X130585714Y-28954819D01*
X130585714Y-28954819D02*
X130728571Y-29002438D01*
X131157143Y-29954819D02*
X131157143Y-28954819D01*
X131157143Y-29431009D02*
X131728571Y-29431009D01*
X131728571Y-29954819D02*
X131728571Y-28954819D01*
X132061905Y-28954819D02*
X132633333Y-28954819D01*
X132347619Y-29954819D02*
X132347619Y-28954819D01*
X132871429Y-28954819D02*
X133490476Y-28954819D01*
X133490476Y-28954819D02*
X133157143Y-29335771D01*
X133157143Y-29335771D02*
X133300000Y-29335771D01*
X133300000Y-29335771D02*
X133395238Y-29383390D01*
X133395238Y-29383390D02*
X133442857Y-29431009D01*
X133442857Y-29431009D02*
X133490476Y-29526247D01*
X133490476Y-29526247D02*
X133490476Y-29764342D01*
X133490476Y-29764342D02*
X133442857Y-29859580D01*
X133442857Y-29859580D02*
X133395238Y-29907200D01*
X133395238Y-29907200D02*
X133300000Y-29954819D01*
X133300000Y-29954819D02*
X133014286Y-29954819D01*
X133014286Y-29954819D02*
X132919048Y-29907200D01*
X132919048Y-29907200D02*
X132871429Y-29859580D01*
X134442857Y-29954819D02*
X133871429Y-29954819D01*
X134157143Y-29954819D02*
X134157143Y-28954819D01*
X134157143Y-28954819D02*
X134061905Y-29097676D01*
X134061905Y-29097676D02*
X133966667Y-29192914D01*
X133966667Y-29192914D02*
X133871429Y-29240533D01*
X138359580Y-41266666D02*
X138407200Y-41314285D01*
X138407200Y-41314285D02*
X138454819Y-41457142D01*
X138454819Y-41457142D02*
X138454819Y-41552380D01*
X138454819Y-41552380D02*
X138407200Y-41695237D01*
X138407200Y-41695237D02*
X138311961Y-41790475D01*
X138311961Y-41790475D02*
X138216723Y-41838094D01*
X138216723Y-41838094D02*
X138026247Y-41885713D01*
X138026247Y-41885713D02*
X137883390Y-41885713D01*
X137883390Y-41885713D02*
X137692914Y-41838094D01*
X137692914Y-41838094D02*
X137597676Y-41790475D01*
X137597676Y-41790475D02*
X137502438Y-41695237D01*
X137502438Y-41695237D02*
X137454819Y-41552380D01*
X137454819Y-41552380D02*
X137454819Y-41457142D01*
X137454819Y-41457142D02*
X137502438Y-41314285D01*
X137502438Y-41314285D02*
X137550057Y-41266666D01*
X137454819Y-40933332D02*
X137454819Y-40266666D01*
X137454819Y-40266666D02*
X138454819Y-40695237D01*
X131988095Y-35954819D02*
X132559523Y-35954819D01*
X132273809Y-36954819D02*
X132273809Y-35954819D01*
X132892857Y-36954819D02*
X132892857Y-35954819D01*
X132892857Y-35954819D02*
X133273809Y-35954819D01*
X133273809Y-35954819D02*
X133369047Y-36002438D01*
X133369047Y-36002438D02*
X133416666Y-36050057D01*
X133416666Y-36050057D02*
X133464285Y-36145295D01*
X133464285Y-36145295D02*
X133464285Y-36288152D01*
X133464285Y-36288152D02*
X133416666Y-36383390D01*
X133416666Y-36383390D02*
X133369047Y-36431009D01*
X133369047Y-36431009D02*
X133273809Y-36478628D01*
X133273809Y-36478628D02*
X132892857Y-36478628D01*
X134369047Y-35954819D02*
X133892857Y-35954819D01*
X133892857Y-35954819D02*
X133845238Y-36431009D01*
X133845238Y-36431009D02*
X133892857Y-36383390D01*
X133892857Y-36383390D02*
X133988095Y-36335771D01*
X133988095Y-36335771D02*
X134226190Y-36335771D01*
X134226190Y-36335771D02*
X134321428Y-36383390D01*
X134321428Y-36383390D02*
X134369047Y-36431009D01*
X134369047Y-36431009D02*
X134416666Y-36526247D01*
X134416666Y-36526247D02*
X134416666Y-36764342D01*
X134416666Y-36764342D02*
X134369047Y-36859580D01*
X134369047Y-36859580D02*
X134321428Y-36907200D01*
X134321428Y-36907200D02*
X134226190Y-36954819D01*
X134226190Y-36954819D02*
X133988095Y-36954819D01*
X133988095Y-36954819D02*
X133892857Y-36907200D01*
X133892857Y-36907200D02*
X133845238Y-36859580D01*
X140988095Y-36954819D02*
X141559523Y-36954819D01*
X141273809Y-37954819D02*
X141273809Y-36954819D01*
X141892857Y-37954819D02*
X141892857Y-36954819D01*
X141892857Y-36954819D02*
X142273809Y-36954819D01*
X142273809Y-36954819D02*
X142369047Y-37002438D01*
X142369047Y-37002438D02*
X142416666Y-37050057D01*
X142416666Y-37050057D02*
X142464285Y-37145295D01*
X142464285Y-37145295D02*
X142464285Y-37288152D01*
X142464285Y-37288152D02*
X142416666Y-37383390D01*
X142416666Y-37383390D02*
X142369047Y-37431009D01*
X142369047Y-37431009D02*
X142273809Y-37478628D01*
X142273809Y-37478628D02*
X141892857Y-37478628D01*
X142797619Y-36954819D02*
X143464285Y-36954819D01*
X143464285Y-36954819D02*
X143035714Y-37954819D01*
X106333333Y-45109580D02*
X106285714Y-45157200D01*
X106285714Y-45157200D02*
X106142857Y-45204819D01*
X106142857Y-45204819D02*
X106047619Y-45204819D01*
X106047619Y-45204819D02*
X105904762Y-45157200D01*
X105904762Y-45157200D02*
X105809524Y-45061961D01*
X105809524Y-45061961D02*
X105761905Y-44966723D01*
X105761905Y-44966723D02*
X105714286Y-44776247D01*
X105714286Y-44776247D02*
X105714286Y-44633390D01*
X105714286Y-44633390D02*
X105761905Y-44442914D01*
X105761905Y-44442914D02*
X105809524Y-44347676D01*
X105809524Y-44347676D02*
X105904762Y-44252438D01*
X105904762Y-44252438D02*
X106047619Y-44204819D01*
X106047619Y-44204819D02*
X106142857Y-44204819D01*
X106142857Y-44204819D02*
X106285714Y-44252438D01*
X106285714Y-44252438D02*
X106333333Y-44300057D01*
X107190476Y-44204819D02*
X107000000Y-44204819D01*
X107000000Y-44204819D02*
X106904762Y-44252438D01*
X106904762Y-44252438D02*
X106857143Y-44300057D01*
X106857143Y-44300057D02*
X106761905Y-44442914D01*
X106761905Y-44442914D02*
X106714286Y-44633390D01*
X106714286Y-44633390D02*
X106714286Y-45014342D01*
X106714286Y-45014342D02*
X106761905Y-45109580D01*
X106761905Y-45109580D02*
X106809524Y-45157200D01*
X106809524Y-45157200D02*
X106904762Y-45204819D01*
X106904762Y-45204819D02*
X107095238Y-45204819D01*
X107095238Y-45204819D02*
X107190476Y-45157200D01*
X107190476Y-45157200D02*
X107238095Y-45109580D01*
X107238095Y-45109580D02*
X107285714Y-45014342D01*
X107285714Y-45014342D02*
X107285714Y-44776247D01*
X107285714Y-44776247D02*
X107238095Y-44681009D01*
X107238095Y-44681009D02*
X107190476Y-44633390D01*
X107190476Y-44633390D02*
X107095238Y-44585771D01*
X107095238Y-44585771D02*
X106904762Y-44585771D01*
X106904762Y-44585771D02*
X106809524Y-44633390D01*
X106809524Y-44633390D02*
X106761905Y-44681009D01*
X106761905Y-44681009D02*
X106714286Y-44776247D01*
X114761905Y-74454819D02*
X114761905Y-73454819D01*
X114761905Y-73454819D02*
X115000000Y-73454819D01*
X115000000Y-73454819D02*
X115142857Y-73502438D01*
X115142857Y-73502438D02*
X115238095Y-73597676D01*
X115238095Y-73597676D02*
X115285714Y-73692914D01*
X115285714Y-73692914D02*
X115333333Y-73883390D01*
X115333333Y-73883390D02*
X115333333Y-74026247D01*
X115333333Y-74026247D02*
X115285714Y-74216723D01*
X115285714Y-74216723D02*
X115238095Y-74311961D01*
X115238095Y-74311961D02*
X115142857Y-74407200D01*
X115142857Y-74407200D02*
X115000000Y-74454819D01*
X115000000Y-74454819D02*
X114761905Y-74454819D01*
X115666667Y-73454819D02*
X116285714Y-73454819D01*
X116285714Y-73454819D02*
X115952381Y-73835771D01*
X115952381Y-73835771D02*
X116095238Y-73835771D01*
X116095238Y-73835771D02*
X116190476Y-73883390D01*
X116190476Y-73883390D02*
X116238095Y-73931009D01*
X116238095Y-73931009D02*
X116285714Y-74026247D01*
X116285714Y-74026247D02*
X116285714Y-74264342D01*
X116285714Y-74264342D02*
X116238095Y-74359580D01*
X116238095Y-74359580D02*
X116190476Y-74407200D01*
X116190476Y-74407200D02*
X116095238Y-74454819D01*
X116095238Y-74454819D02*
X115809524Y-74454819D01*
X115809524Y-74454819D02*
X115714286Y-74407200D01*
X115714286Y-74407200D02*
X115666667Y-74359580D01*
X123109580Y-52166666D02*
X123157200Y-52214285D01*
X123157200Y-52214285D02*
X123204819Y-52357142D01*
X123204819Y-52357142D02*
X123204819Y-52452380D01*
X123204819Y-52452380D02*
X123157200Y-52595237D01*
X123157200Y-52595237D02*
X123061961Y-52690475D01*
X123061961Y-52690475D02*
X122966723Y-52738094D01*
X122966723Y-52738094D02*
X122776247Y-52785713D01*
X122776247Y-52785713D02*
X122633390Y-52785713D01*
X122633390Y-52785713D02*
X122442914Y-52738094D01*
X122442914Y-52738094D02*
X122347676Y-52690475D01*
X122347676Y-52690475D02*
X122252438Y-52595237D01*
X122252438Y-52595237D02*
X122204819Y-52452380D01*
X122204819Y-52452380D02*
X122204819Y-52357142D01*
X122204819Y-52357142D02*
X122252438Y-52214285D01*
X122252438Y-52214285D02*
X122300057Y-52166666D01*
X122204819Y-51833332D02*
X122204819Y-51214285D01*
X122204819Y-51214285D02*
X122585771Y-51547618D01*
X122585771Y-51547618D02*
X122585771Y-51404761D01*
X122585771Y-51404761D02*
X122633390Y-51309523D01*
X122633390Y-51309523D02*
X122681009Y-51261904D01*
X122681009Y-51261904D02*
X122776247Y-51214285D01*
X122776247Y-51214285D02*
X123014342Y-51214285D01*
X123014342Y-51214285D02*
X123109580Y-51261904D01*
X123109580Y-51261904D02*
X123157200Y-51309523D01*
X123157200Y-51309523D02*
X123204819Y-51404761D01*
X123204819Y-51404761D02*
X123204819Y-51690475D01*
X123204819Y-51690475D02*
X123157200Y-51785713D01*
X123157200Y-51785713D02*
X123109580Y-51833332D01*
X131857142Y-54539580D02*
X131809523Y-54587200D01*
X131809523Y-54587200D02*
X131666666Y-54634819D01*
X131666666Y-54634819D02*
X131571428Y-54634819D01*
X131571428Y-54634819D02*
X131428571Y-54587200D01*
X131428571Y-54587200D02*
X131333333Y-54491961D01*
X131333333Y-54491961D02*
X131285714Y-54396723D01*
X131285714Y-54396723D02*
X131238095Y-54206247D01*
X131238095Y-54206247D02*
X131238095Y-54063390D01*
X131238095Y-54063390D02*
X131285714Y-53872914D01*
X131285714Y-53872914D02*
X131333333Y-53777676D01*
X131333333Y-53777676D02*
X131428571Y-53682438D01*
X131428571Y-53682438D02*
X131571428Y-53634819D01*
X131571428Y-53634819D02*
X131666666Y-53634819D01*
X131666666Y-53634819D02*
X131809523Y-53682438D01*
X131809523Y-53682438D02*
X131857142Y-53730057D01*
X132809523Y-54634819D02*
X132238095Y-54634819D01*
X132523809Y-54634819D02*
X132523809Y-53634819D01*
X132523809Y-53634819D02*
X132428571Y-53777676D01*
X132428571Y-53777676D02*
X132333333Y-53872914D01*
X132333333Y-53872914D02*
X132238095Y-53920533D01*
X133666666Y-53968152D02*
X133666666Y-54634819D01*
X133428571Y-53587200D02*
X133190476Y-54301485D01*
X133190476Y-54301485D02*
X133809523Y-54301485D01*
D13*
%TO.C,SWD1*%
X142470000Y-33330000D02*
X142470000Y-32000000D01*
X143800000Y-33330000D02*
X142470000Y-33330000D01*
X145070000Y-30670000D02*
X152750000Y-30670000D01*
X145070000Y-33330000D02*
X145070000Y-30670000D01*
X145070000Y-33330000D02*
X152750000Y-33330000D01*
X152750000Y-33330000D02*
X152750000Y-30670000D01*
%TO.C,J4*%
X161505000Y-72450000D02*
X160175000Y-72450000D01*
X161505000Y-71120000D02*
X161505000Y-72450000D01*
X161505000Y-69850000D02*
X161505000Y-62170000D01*
X161505000Y-69850000D02*
X158845000Y-69850000D01*
X161505000Y-62170000D02*
X158845000Y-62170000D01*
X158845000Y-69850000D02*
X158845000Y-62170000D01*
%TO.C,R3*%
X152022500Y-57762742D02*
X152022500Y-58237258D01*
X150977500Y-57762742D02*
X150977500Y-58237258D01*
%TO.C,D1*%
X148290000Y-60110000D02*
X150210000Y-60110000D01*
X150210000Y-60110000D02*
X150210000Y-57250000D01*
X148290000Y-57250000D02*
X148290000Y-60110000D01*
%TO.C,U2*%
X135600000Y-47440000D02*
X135260000Y-46970000D01*
X135940000Y-46970000D01*
X135600000Y-47440000D01*
G36*
X135600000Y-47440000D02*
G01*
X135260000Y-46970000D01*
X135940000Y-46970000D01*
X135600000Y-47440000D01*
G37*
X143410000Y-54210000D02*
X143410000Y-53760000D01*
X143410000Y-46990000D02*
X143410000Y-47440000D01*
X142960000Y-54210000D02*
X143410000Y-54210000D01*
X142960000Y-46990000D02*
X143410000Y-46990000D01*
X136640000Y-54210000D02*
X136190000Y-54210000D01*
X136640000Y-46990000D02*
X136190000Y-46990000D01*
X136190000Y-54210000D02*
X136190000Y-53760000D01*
X136190000Y-46990000D02*
X136190000Y-47440000D01*
%TO.C,TP1*%
X110550000Y-65300000D02*
X112950000Y-65300000D01*
X110550000Y-67700000D02*
X110550000Y-65300000D01*
X112950000Y-65300000D02*
X112950000Y-67700000D01*
X112950000Y-67700000D02*
X110550000Y-67700000D01*
%TO.C,TP6*%
X156750000Y-45900000D02*
G75*
G02*
X154850000Y-45900000I-950000J0D01*
G01*
X154850000Y-45900000D02*
G75*
G02*
X156750000Y-45900000I950000J0D01*
G01*
%TO.C,TP2*%
X146650000Y-66100000D02*
G75*
G02*
X144750000Y-66100000I-950000J0D01*
G01*
X144750000Y-66100000D02*
G75*
G02*
X146650000Y-66100000I950000J0D01*
G01*
%TO.C,C1*%
X143896267Y-35510000D02*
X143603733Y-35510000D01*
X143896267Y-34490000D02*
X143603733Y-34490000D01*
%TO.C,R6*%
X139262742Y-39772500D02*
X139737258Y-39772500D01*
X139262742Y-38727500D02*
X139737258Y-38727500D01*
%TO.C,TP3*%
X143750000Y-66100000D02*
G75*
G02*
X141850000Y-66100000I-950000J0D01*
G01*
X141850000Y-66100000D02*
G75*
G02*
X143750000Y-66100000I950000J0D01*
G01*
%TO.C,J2*%
X79672500Y-66890000D02*
X79672500Y-74360000D01*
X79672500Y-74360000D02*
X88292500Y-74360000D01*
X80732500Y-67750000D02*
X81482500Y-67750000D01*
X80732500Y-72050000D02*
X80732500Y-67750000D01*
X80732500Y-73400000D02*
X80982500Y-72400000D01*
X80982500Y-72400000D02*
X81482500Y-72400000D01*
X81482500Y-72050000D02*
X80732500Y-72050000D01*
X81482500Y-72400000D02*
X81482500Y-72050000D01*
X82982500Y-67750000D02*
X83732500Y-67750000D01*
X82982500Y-72050000D02*
X82982500Y-72400000D01*
X82982500Y-72400000D02*
X83482500Y-72400000D01*
X83482500Y-72400000D02*
X83732500Y-73400000D01*
X83732500Y-67750000D02*
X83732500Y-72050000D01*
X83732500Y-72050000D02*
X82982500Y-72050000D01*
X83732500Y-73400000D02*
X80732500Y-73400000D01*
X84232500Y-67750000D02*
X84982500Y-67750000D01*
X84232500Y-72050000D02*
X84232500Y-67750000D01*
X84232500Y-73400000D02*
X84482500Y-72400000D01*
X84482500Y-72400000D02*
X84982500Y-72400000D01*
X84982500Y-72050000D02*
X84232500Y-72050000D01*
X84982500Y-72400000D02*
X84982500Y-72050000D01*
X86482500Y-67750000D02*
X87232500Y-67750000D01*
X86482500Y-72050000D02*
X86482500Y-72400000D01*
X86482500Y-72400000D02*
X86982500Y-72400000D01*
X86982500Y-72400000D02*
X87232500Y-73400000D01*
X87232500Y-67750000D02*
X87232500Y-72050000D01*
X87232500Y-72050000D02*
X86482500Y-72050000D01*
X87232500Y-73400000D02*
X84232500Y-73400000D01*
X88292500Y-66890000D02*
X79672500Y-66890000D01*
X88292500Y-74360000D02*
X88292500Y-66890000D01*
X88682500Y-73500000D02*
X88682500Y-74750000D01*
X88682500Y-74750000D02*
X86682500Y-74750000D01*
X82982500Y-67750000D02*
G75*
G02*
X81482853Y-67750156I-750000J1700000D01*
G01*
X86482500Y-67750000D02*
G75*
G02*
X84982853Y-67750156I-750000J1700000D01*
G01*
%TO.C,D2*%
X110140000Y-29040000D02*
X110140000Y-30960000D01*
X110140000Y-30960000D02*
X113000000Y-30960000D01*
X113000000Y-29040000D02*
X110140000Y-29040000D01*
%TO.C,C19*%
X113510000Y-45853733D02*
X113510000Y-46146267D01*
X112490000Y-45853733D02*
X112490000Y-46146267D01*
%TO.C,pm2.5*%
X125070000Y-69920000D02*
X126400000Y-69920000D01*
X125070000Y-71250000D02*
X125070000Y-69920000D01*
X127670000Y-69920000D02*
X135350000Y-69920000D01*
X127670000Y-72580000D02*
X127670000Y-69920000D01*
X127670000Y-72580000D02*
X135350000Y-72580000D01*
X135350000Y-72580000D02*
X135350000Y-69920000D01*
%TO.C,C5*%
X82759000Y-46413323D02*
X79082000Y-46413323D01*
X82759000Y-46453323D02*
X79093000Y-46453323D01*
X82759000Y-46493323D02*
X79103000Y-46493323D01*
X82759000Y-46533323D02*
X79115000Y-46533323D01*
X82759000Y-46573323D02*
X79126000Y-46573323D01*
X82759000Y-46613323D02*
X79138000Y-46613323D01*
X82759000Y-46653323D02*
X79150000Y-46653323D01*
X82759000Y-46693323D02*
X79163000Y-46693323D01*
X82759000Y-46733323D02*
X79176000Y-46733323D01*
X82759000Y-46773323D02*
X79189000Y-46773323D01*
X82759000Y-46813323D02*
X79203000Y-46813323D01*
X82759000Y-46853323D02*
X79217000Y-46853323D01*
X82759000Y-46893323D02*
X79232000Y-46893323D01*
X82759000Y-46933323D02*
X79246000Y-46933323D01*
X82759000Y-46973323D02*
X79262000Y-46973323D01*
X82759000Y-47013323D02*
X79277000Y-47013323D01*
X82759000Y-47053323D02*
X79293000Y-47053323D01*
X82759000Y-47093323D02*
X79310000Y-47093323D01*
X82759000Y-47133323D02*
X79326000Y-47133323D01*
X82759000Y-47173323D02*
X79343000Y-47173323D01*
X82759000Y-47213323D02*
X79361000Y-47213323D01*
X82759000Y-47253323D02*
X79379000Y-47253323D01*
X82759000Y-47293323D02*
X79397000Y-47293323D01*
X82759000Y-47333323D02*
X79416000Y-47333323D01*
X82759000Y-47373323D02*
X79436000Y-47373323D01*
X82759000Y-47413323D02*
X79455000Y-47413323D01*
X82759000Y-47453323D02*
X79475000Y-47453323D01*
X82759000Y-47493323D02*
X79496000Y-47493323D01*
X82759000Y-47533323D02*
X79517000Y-47533323D01*
X82759000Y-47573323D02*
X79538000Y-47573323D01*
X82759000Y-47613323D02*
X79560000Y-47613323D01*
X82759000Y-47653323D02*
X79583000Y-47653323D01*
X82759000Y-47693323D02*
X79605000Y-47693323D01*
X82759000Y-47733323D02*
X79629000Y-47733323D01*
X82759000Y-47773323D02*
X79653000Y-47773323D01*
X82759000Y-47813323D02*
X79677000Y-47813323D01*
X82759000Y-47853323D02*
X79702000Y-47853323D01*
X82759000Y-47893323D02*
X79727000Y-47893323D01*
X82759000Y-47933323D02*
X79753000Y-47933323D01*
X82759000Y-47973323D02*
X79779000Y-47973323D01*
X82759000Y-48013323D02*
X79806000Y-48013323D01*
X82759000Y-48053323D02*
X79834000Y-48053323D01*
X82759000Y-48093323D02*
X79862000Y-48093323D01*
X82759000Y-48133323D02*
X79890000Y-48133323D01*
X82759000Y-48173323D02*
X79920000Y-48173323D01*
X82759000Y-48213323D02*
X79950000Y-48213323D01*
X82759000Y-48253323D02*
X79980000Y-48253323D01*
X82759000Y-48293323D02*
X80011000Y-48293323D01*
X82759000Y-48333323D02*
X80043000Y-48333323D01*
X82759000Y-48373323D02*
X80075000Y-48373323D01*
X82759000Y-48413323D02*
X80108000Y-48413323D01*
X82759000Y-48453323D02*
X80142000Y-48453323D01*
X82759000Y-48493323D02*
X80176000Y-48493323D01*
X82759000Y-48533323D02*
X80211000Y-48533323D01*
X82759000Y-48573323D02*
X80247000Y-48573323D01*
X82759000Y-48613323D02*
X80284000Y-48613323D01*
X82759000Y-48653323D02*
X80321000Y-48653323D01*
X82759000Y-48693323D02*
X80360000Y-48693323D01*
X82759000Y-48733323D02*
X80399000Y-48733323D01*
X82759000Y-48773323D02*
X80439000Y-48773323D01*
X82759000Y-48813323D02*
X80480000Y-48813323D01*
X82759000Y-48853323D02*
X80522000Y-48853323D01*
X84599000Y-50213323D02*
X83401000Y-50213323D01*
X84862000Y-50173323D02*
X83138000Y-50173323D01*
X85062000Y-50133323D02*
X82938000Y-50133323D01*
X85230000Y-50093323D02*
X82770000Y-50093323D01*
X85378000Y-50053323D02*
X82622000Y-50053323D01*
X85510000Y-50013323D02*
X82490000Y-50013323D01*
X85630000Y-49973323D02*
X82370000Y-49973323D01*
X85742000Y-49933323D02*
X82258000Y-49933323D01*
X85846000Y-49893323D02*
X82154000Y-49893323D01*
X85944000Y-49853323D02*
X82056000Y-49853323D01*
X86037000Y-49813323D02*
X81963000Y-49813323D01*
X86125000Y-49773323D02*
X81875000Y-49773323D01*
X86209000Y-49733323D02*
X81791000Y-49733323D01*
X86289000Y-49693323D02*
X81711000Y-49693323D01*
X86365000Y-49653323D02*
X81635000Y-49653323D01*
X86439000Y-49613323D02*
X81561000Y-49613323D01*
X86510000Y-49573323D02*
X81490000Y-49573323D01*
X86579000Y-49533323D02*
X81421000Y-49533323D01*
X86645000Y-49493323D02*
X81355000Y-49493323D01*
X86709000Y-49453323D02*
X81291000Y-49453323D01*
X86770000Y-49413323D02*
X81230000Y-49413323D01*
X86830000Y-49373323D02*
X81170000Y-49373323D01*
X86875000Y-39652677D02*
X86875000Y-40652677D01*
X86889000Y-49333323D02*
X81111000Y-49333323D01*
X86945000Y-49293323D02*
X81055000Y-49293323D01*
X87000000Y-49253323D02*
X81000000Y-49253323D01*
X87054000Y-49213323D02*
X80946000Y-49213323D01*
X87106000Y-49173323D02*
X80894000Y-49173323D01*
X87156000Y-49133323D02*
X80844000Y-49133323D01*
X87206000Y-49093323D02*
X80794000Y-49093323D01*
X87254000Y-49053323D02*
X80746000Y-49053323D01*
X87301000Y-49013323D02*
X80699000Y-49013323D01*
X87347000Y-48973323D02*
X80653000Y-48973323D01*
X87375000Y-40152677D02*
X86375000Y-40152677D01*
X87392000Y-48933323D02*
X80608000Y-48933323D01*
X87436000Y-48893323D02*
X80564000Y-48893323D01*
X87478000Y-48853323D02*
X85241000Y-48853323D01*
X87520000Y-48813323D02*
X85241000Y-48813323D01*
X87561000Y-48773323D02*
X85241000Y-48773323D01*
X87601000Y-48733323D02*
X85241000Y-48733323D01*
X87640000Y-48693323D02*
X85241000Y-48693323D01*
X87679000Y-48653323D02*
X85241000Y-48653323D01*
X87716000Y-48613323D02*
X85241000Y-48613323D01*
X87753000Y-48573323D02*
X85241000Y-48573323D01*
X87789000Y-48533323D02*
X85241000Y-48533323D01*
X87824000Y-48493323D02*
X85241000Y-48493323D01*
X87858000Y-48453323D02*
X85241000Y-48453323D01*
X87892000Y-48413323D02*
X85241000Y-48413323D01*
X87925000Y-48373323D02*
X85241000Y-48373323D01*
X87957000Y-48333323D02*
X85241000Y-48333323D01*
X87989000Y-48293323D02*
X85241000Y-48293323D01*
X88020000Y-48253323D02*
X85241000Y-48253323D01*
X88050000Y-48213323D02*
X85241000Y-48213323D01*
X88080000Y-48173323D02*
X85241000Y-48173323D01*
X88110000Y-48133323D02*
X85241000Y-48133323D01*
X88138000Y-48093323D02*
X85241000Y-48093323D01*
X88166000Y-48053323D02*
X85241000Y-48053323D01*
X88194000Y-48013323D02*
X85241000Y-48013323D01*
X88221000Y-47973323D02*
X85241000Y-47973323D01*
X88247000Y-47933323D02*
X85241000Y-47933323D01*
X88273000Y-47893323D02*
X85241000Y-47893323D01*
X88298000Y-47853323D02*
X85241000Y-47853323D01*
X88323000Y-47813323D02*
X85241000Y-47813323D01*
X88347000Y-47773323D02*
X85241000Y-47773323D01*
X88371000Y-47733323D02*
X85241000Y-47733323D01*
X88395000Y-47693323D02*
X85241000Y-47693323D01*
X88417000Y-47653323D02*
X85241000Y-47653323D01*
X88440000Y-47613323D02*
X85241000Y-47613323D01*
X88462000Y-47573323D02*
X85241000Y-47573323D01*
X88483000Y-47533323D02*
X85241000Y-47533323D01*
X88504000Y-47493323D02*
X85241000Y-47493323D01*
X88525000Y-47453323D02*
X85241000Y-47453323D01*
X88545000Y-47413323D02*
X85241000Y-47413323D01*
X88564000Y-47373323D02*
X85241000Y-47373323D01*
X88584000Y-47333323D02*
X85241000Y-47333323D01*
X88603000Y-47293323D02*
X85241000Y-47293323D01*
X88621000Y-47253323D02*
X85241000Y-47253323D01*
X88639000Y-47213323D02*
X85241000Y-47213323D01*
X88657000Y-47173323D02*
X85241000Y-47173323D01*
X88674000Y-47133323D02*
X85241000Y-47133323D01*
X88690000Y-47093323D02*
X85241000Y-47093323D01*
X88707000Y-47053323D02*
X85241000Y-47053323D01*
X88723000Y-47013323D02*
X85241000Y-47013323D01*
X88738000Y-46973323D02*
X85241000Y-46973323D01*
X88754000Y-46933323D02*
X85241000Y-46933323D01*
X88768000Y-46893323D02*
X85241000Y-46893323D01*
X88783000Y-46853323D02*
X85241000Y-46853323D01*
X88797000Y-46813323D02*
X85241000Y-46813323D01*
X88811000Y-46773323D02*
X85241000Y-46773323D01*
X88824000Y-46733323D02*
X85241000Y-46733323D01*
X88837000Y-46693323D02*
X85241000Y-46693323D01*
X88850000Y-46653323D02*
X85241000Y-46653323D01*
X88862000Y-46613323D02*
X85241000Y-46613323D01*
X88874000Y-46573323D02*
X85241000Y-46573323D01*
X88885000Y-46533323D02*
X85241000Y-46533323D01*
X88897000Y-46493323D02*
X85241000Y-46493323D01*
X88907000Y-46453323D02*
X85241000Y-46453323D01*
X88918000Y-46413323D02*
X85241000Y-46413323D01*
X88928000Y-46373323D02*
X79072000Y-46373323D01*
X88938000Y-46333323D02*
X79062000Y-46333323D01*
X88947000Y-46293323D02*
X79053000Y-46293323D01*
X88956000Y-46253323D02*
X79044000Y-46253323D01*
X88965000Y-46213323D02*
X79035000Y-46213323D01*
X88974000Y-46173323D02*
X79026000Y-46173323D01*
X88982000Y-46133323D02*
X79018000Y-46133323D01*
X88990000Y-46093323D02*
X79010000Y-46093323D01*
X88997000Y-46053323D02*
X79003000Y-46053323D01*
X89004000Y-46013323D02*
X78996000Y-46013323D01*
X89011000Y-45973323D02*
X78989000Y-45973323D01*
X89018000Y-45933323D02*
X78982000Y-45933323D01*
X89024000Y-45893323D02*
X78976000Y-45893323D01*
X89030000Y-45853323D02*
X78970000Y-45853323D01*
X89035000Y-45812323D02*
X78965000Y-45812323D01*
X89040000Y-45772323D02*
X78960000Y-45772323D01*
X89045000Y-45732323D02*
X78955000Y-45732323D01*
X89050000Y-45692323D02*
X78950000Y-45692323D01*
X89054000Y-45652323D02*
X78946000Y-45652323D01*
X89058000Y-45612323D02*
X78942000Y-45612323D01*
X89062000Y-45572323D02*
X78938000Y-45572323D01*
X89065000Y-45532323D02*
X78935000Y-45532323D01*
X89068000Y-45492323D02*
X78932000Y-45492323D01*
X89070000Y-45452323D02*
X78930000Y-45452323D01*
X89073000Y-45412323D02*
X78927000Y-45412323D01*
X89075000Y-45372323D02*
X78925000Y-45372323D01*
X89077000Y-45332323D02*
X78923000Y-45332323D01*
X89078000Y-45292323D02*
X78922000Y-45292323D01*
X89079000Y-45252323D02*
X78921000Y-45252323D01*
X89080000Y-45132323D02*
X78920000Y-45132323D01*
X89080000Y-45172323D02*
X78920000Y-45172323D01*
X89080000Y-45212323D02*
X78920000Y-45212323D01*
X89120000Y-45132323D02*
G75*
G02*
X78880000Y-45132323I-5120000J0D01*
G01*
X78880000Y-45132323D02*
G75*
G02*
X89120000Y-45132323I5120000J0D01*
G01*
%TO.C,RESET1*%
D10*
X117750000Y-58750000D02*
X124250000Y-58750000D01*
X124250000Y-62250000D01*
X117750000Y-62250000D01*
X117750000Y-58750000D01*
D13*
%TO.C,R1*%
X148237258Y-38477500D02*
X147762742Y-38477500D01*
X148237258Y-39522500D02*
X147762742Y-39522500D01*
%TO.C,R5*%
X111762742Y-71477500D02*
X112237258Y-71477500D01*
X111762742Y-72522500D02*
X112237258Y-72522500D01*
%TO.C,C18*%
X117510000Y-70853733D02*
X117510000Y-71146267D01*
X116490000Y-70853733D02*
X116490000Y-71146267D01*
%TO.C,C10*%
X78920000Y-58327677D02*
X89080000Y-58327677D01*
X78920000Y-58367677D02*
X89080000Y-58367677D01*
X78920000Y-58407677D02*
X89080000Y-58407677D01*
X78921000Y-58287677D02*
X89079000Y-58287677D01*
X78922000Y-58247677D02*
X89078000Y-58247677D01*
X78923000Y-58207677D02*
X89077000Y-58207677D01*
X78925000Y-58167677D02*
X89075000Y-58167677D01*
X78927000Y-58127677D02*
X89073000Y-58127677D01*
X78930000Y-58087677D02*
X89070000Y-58087677D01*
X78932000Y-58047677D02*
X89068000Y-58047677D01*
X78935000Y-58007677D02*
X89065000Y-58007677D01*
X78938000Y-57967677D02*
X89062000Y-57967677D01*
X78942000Y-57927677D02*
X89058000Y-57927677D01*
X78946000Y-57887677D02*
X89054000Y-57887677D01*
X78950000Y-57847677D02*
X89050000Y-57847677D01*
X78955000Y-57807677D02*
X89045000Y-57807677D01*
X78960000Y-57767677D02*
X89040000Y-57767677D01*
X78965000Y-57727677D02*
X89035000Y-57727677D01*
X78970000Y-57686677D02*
X89030000Y-57686677D01*
X78976000Y-57646677D02*
X89024000Y-57646677D01*
X78982000Y-57606677D02*
X89018000Y-57606677D01*
X78989000Y-57566677D02*
X89011000Y-57566677D01*
X78996000Y-57526677D02*
X89004000Y-57526677D01*
X79003000Y-57486677D02*
X88997000Y-57486677D01*
X79010000Y-57446677D02*
X88990000Y-57446677D01*
X79018000Y-57406677D02*
X88982000Y-57406677D01*
X79026000Y-57366677D02*
X88974000Y-57366677D01*
X79035000Y-57326677D02*
X88965000Y-57326677D01*
X79044000Y-57286677D02*
X88956000Y-57286677D01*
X79053000Y-57246677D02*
X88947000Y-57246677D01*
X79062000Y-57206677D02*
X88938000Y-57206677D01*
X79072000Y-57166677D02*
X88928000Y-57166677D01*
X79082000Y-57126677D02*
X82759000Y-57126677D01*
X79093000Y-57086677D02*
X82759000Y-57086677D01*
X79103000Y-57046677D02*
X82759000Y-57046677D01*
X79115000Y-57006677D02*
X82759000Y-57006677D01*
X79126000Y-56966677D02*
X82759000Y-56966677D01*
X79138000Y-56926677D02*
X82759000Y-56926677D01*
X79150000Y-56886677D02*
X82759000Y-56886677D01*
X79163000Y-56846677D02*
X82759000Y-56846677D01*
X79176000Y-56806677D02*
X82759000Y-56806677D01*
X79189000Y-56766677D02*
X82759000Y-56766677D01*
X79203000Y-56726677D02*
X82759000Y-56726677D01*
X79217000Y-56686677D02*
X82759000Y-56686677D01*
X79232000Y-56646677D02*
X82759000Y-56646677D01*
X79246000Y-56606677D02*
X82759000Y-56606677D01*
X79262000Y-56566677D02*
X82759000Y-56566677D01*
X79277000Y-56526677D02*
X82759000Y-56526677D01*
X79293000Y-56486677D02*
X82759000Y-56486677D01*
X79310000Y-56446677D02*
X82759000Y-56446677D01*
X79326000Y-56406677D02*
X82759000Y-56406677D01*
X79343000Y-56366677D02*
X82759000Y-56366677D01*
X79361000Y-56326677D02*
X82759000Y-56326677D01*
X79379000Y-56286677D02*
X82759000Y-56286677D01*
X79397000Y-56246677D02*
X82759000Y-56246677D01*
X79416000Y-56206677D02*
X82759000Y-56206677D01*
X79436000Y-56166677D02*
X82759000Y-56166677D01*
X79455000Y-56126677D02*
X82759000Y-56126677D01*
X79475000Y-56086677D02*
X82759000Y-56086677D01*
X79496000Y-56046677D02*
X82759000Y-56046677D01*
X79517000Y-56006677D02*
X82759000Y-56006677D01*
X79538000Y-55966677D02*
X82759000Y-55966677D01*
X79560000Y-55926677D02*
X82759000Y-55926677D01*
X79583000Y-55886677D02*
X82759000Y-55886677D01*
X79605000Y-55846677D02*
X82759000Y-55846677D01*
X79629000Y-55806677D02*
X82759000Y-55806677D01*
X79653000Y-55766677D02*
X82759000Y-55766677D01*
X79677000Y-55726677D02*
X82759000Y-55726677D01*
X79702000Y-55686677D02*
X82759000Y-55686677D01*
X79727000Y-55646677D02*
X82759000Y-55646677D01*
X79753000Y-55606677D02*
X82759000Y-55606677D01*
X79779000Y-55566677D02*
X82759000Y-55566677D01*
X79806000Y-55526677D02*
X82759000Y-55526677D01*
X79834000Y-55486677D02*
X82759000Y-55486677D01*
X79862000Y-55446677D02*
X82759000Y-55446677D01*
X79890000Y-55406677D02*
X82759000Y-55406677D01*
X79920000Y-55366677D02*
X82759000Y-55366677D01*
X79950000Y-55326677D02*
X82759000Y-55326677D01*
X79980000Y-55286677D02*
X82759000Y-55286677D01*
X80011000Y-55246677D02*
X82759000Y-55246677D01*
X80043000Y-55206677D02*
X82759000Y-55206677D01*
X80075000Y-55166677D02*
X82759000Y-55166677D01*
X80108000Y-55126677D02*
X82759000Y-55126677D01*
X80142000Y-55086677D02*
X82759000Y-55086677D01*
X80176000Y-55046677D02*
X82759000Y-55046677D01*
X80211000Y-55006677D02*
X82759000Y-55006677D01*
X80247000Y-54966677D02*
X82759000Y-54966677D01*
X80284000Y-54926677D02*
X82759000Y-54926677D01*
X80321000Y-54886677D02*
X82759000Y-54886677D01*
X80360000Y-54846677D02*
X82759000Y-54846677D01*
X80399000Y-54806677D02*
X82759000Y-54806677D01*
X80439000Y-54766677D02*
X82759000Y-54766677D01*
X80480000Y-54726677D02*
X82759000Y-54726677D01*
X80522000Y-54686677D02*
X82759000Y-54686677D01*
X80564000Y-54646677D02*
X87436000Y-54646677D01*
X80608000Y-54606677D02*
X87392000Y-54606677D01*
X80625000Y-63387323D02*
X81625000Y-63387323D01*
X80653000Y-54566677D02*
X87347000Y-54566677D01*
X80699000Y-54526677D02*
X87301000Y-54526677D01*
X80746000Y-54486677D02*
X87254000Y-54486677D01*
X80794000Y-54446677D02*
X87206000Y-54446677D01*
X80844000Y-54406677D02*
X87156000Y-54406677D01*
X80894000Y-54366677D02*
X87106000Y-54366677D01*
X80946000Y-54326677D02*
X87054000Y-54326677D01*
X81000000Y-54286677D02*
X87000000Y-54286677D01*
X81055000Y-54246677D02*
X86945000Y-54246677D01*
X81111000Y-54206677D02*
X86889000Y-54206677D01*
X81125000Y-63887323D02*
X81125000Y-62887323D01*
X81170000Y-54166677D02*
X86830000Y-54166677D01*
X81230000Y-54126677D02*
X86770000Y-54126677D01*
X81291000Y-54086677D02*
X86709000Y-54086677D01*
X81355000Y-54046677D02*
X86645000Y-54046677D01*
X81421000Y-54006677D02*
X86579000Y-54006677D01*
X81490000Y-53966677D02*
X86510000Y-53966677D01*
X81561000Y-53926677D02*
X86439000Y-53926677D01*
X81635000Y-53886677D02*
X86365000Y-53886677D01*
X81711000Y-53846677D02*
X86289000Y-53846677D01*
X81791000Y-53806677D02*
X86209000Y-53806677D01*
X81875000Y-53766677D02*
X86125000Y-53766677D01*
X81963000Y-53726677D02*
X86037000Y-53726677D01*
X82056000Y-53686677D02*
X85944000Y-53686677D01*
X82154000Y-53646677D02*
X85846000Y-53646677D01*
X82258000Y-53606677D02*
X85742000Y-53606677D01*
X82370000Y-53566677D02*
X85630000Y-53566677D01*
X82490000Y-53526677D02*
X85510000Y-53526677D01*
X82622000Y-53486677D02*
X85378000Y-53486677D01*
X82770000Y-53446677D02*
X85230000Y-53446677D01*
X82938000Y-53406677D02*
X85062000Y-53406677D01*
X83138000Y-53366677D02*
X84862000Y-53366677D01*
X83401000Y-53326677D02*
X84599000Y-53326677D01*
X85241000Y-54686677D02*
X87478000Y-54686677D01*
X85241000Y-54726677D02*
X87520000Y-54726677D01*
X85241000Y-54766677D02*
X87561000Y-54766677D01*
X85241000Y-54806677D02*
X87601000Y-54806677D01*
X85241000Y-54846677D02*
X87640000Y-54846677D01*
X85241000Y-54886677D02*
X87679000Y-54886677D01*
X85241000Y-54926677D02*
X87716000Y-54926677D01*
X85241000Y-54966677D02*
X87753000Y-54966677D01*
X85241000Y-55006677D02*
X87789000Y-55006677D01*
X85241000Y-55046677D02*
X87824000Y-55046677D01*
X85241000Y-55086677D02*
X87858000Y-55086677D01*
X85241000Y-55126677D02*
X87892000Y-55126677D01*
X85241000Y-55166677D02*
X87925000Y-55166677D01*
X85241000Y-55206677D02*
X87957000Y-55206677D01*
X85241000Y-55246677D02*
X87989000Y-55246677D01*
X85241000Y-55286677D02*
X88020000Y-55286677D01*
X85241000Y-55326677D02*
X88050000Y-55326677D01*
X85241000Y-55366677D02*
X88080000Y-55366677D01*
X85241000Y-55406677D02*
X88110000Y-55406677D01*
X85241000Y-55446677D02*
X88138000Y-55446677D01*
X85241000Y-55486677D02*
X88166000Y-55486677D01*
X85241000Y-55526677D02*
X88194000Y-55526677D01*
X85241000Y-55566677D02*
X88221000Y-55566677D01*
X85241000Y-55606677D02*
X88247000Y-55606677D01*
X85241000Y-55646677D02*
X88273000Y-55646677D01*
X85241000Y-55686677D02*
X88298000Y-55686677D01*
X85241000Y-55726677D02*
X88323000Y-55726677D01*
X85241000Y-55766677D02*
X88347000Y-55766677D01*
X85241000Y-55806677D02*
X88371000Y-55806677D01*
X85241000Y-55846677D02*
X88395000Y-55846677D01*
X85241000Y-55886677D02*
X88417000Y-55886677D01*
X85241000Y-55926677D02*
X88440000Y-55926677D01*
X85241000Y-55966677D02*
X88462000Y-55966677D01*
X85241000Y-56006677D02*
X88483000Y-56006677D01*
X85241000Y-56046677D02*
X88504000Y-56046677D01*
X85241000Y-56086677D02*
X88525000Y-56086677D01*
X85241000Y-56126677D02*
X88545000Y-56126677D01*
X85241000Y-56166677D02*
X88564000Y-56166677D01*
X85241000Y-56206677D02*
X88584000Y-56206677D01*
X85241000Y-56246677D02*
X88603000Y-56246677D01*
X85241000Y-56286677D02*
X88621000Y-56286677D01*
X85241000Y-56326677D02*
X88639000Y-56326677D01*
X85241000Y-56366677D02*
X88657000Y-56366677D01*
X85241000Y-56406677D02*
X88674000Y-56406677D01*
X85241000Y-56446677D02*
X88690000Y-56446677D01*
X85241000Y-56486677D02*
X88707000Y-56486677D01*
X85241000Y-56526677D02*
X88723000Y-56526677D01*
X85241000Y-56566677D02*
X88738000Y-56566677D01*
X85241000Y-56606677D02*
X88754000Y-56606677D01*
X85241000Y-56646677D02*
X88768000Y-56646677D01*
X85241000Y-56686677D02*
X88783000Y-56686677D01*
X85241000Y-56726677D02*
X88797000Y-56726677D01*
X85241000Y-56766677D02*
X88811000Y-56766677D01*
X85241000Y-56806677D02*
X88824000Y-56806677D01*
X85241000Y-56846677D02*
X88837000Y-56846677D01*
X85241000Y-56886677D02*
X88850000Y-56886677D01*
X85241000Y-56926677D02*
X88862000Y-56926677D01*
X85241000Y-56966677D02*
X88874000Y-56966677D01*
X85241000Y-57006677D02*
X88885000Y-57006677D01*
X85241000Y-57046677D02*
X88897000Y-57046677D01*
X85241000Y-57086677D02*
X88907000Y-57086677D01*
X85241000Y-57126677D02*
X88918000Y-57126677D01*
X89120000Y-58407677D02*
G75*
G02*
X78880000Y-58407677I-5120000J0D01*
G01*
X78880000Y-58407677D02*
G75*
G02*
X89120000Y-58407677I5120000J0D01*
G01*
%TO.C,C17*%
X153740000Y-71103733D02*
X153740000Y-71396267D01*
X154760000Y-71103733D02*
X154760000Y-71396267D01*
%TO.C,LoRa1*%
X158845000Y-56930000D02*
X158845000Y-41630000D01*
X158845000Y-59530000D02*
X158845000Y-58200000D01*
X160175000Y-59530000D02*
X158845000Y-59530000D01*
X161505000Y-41630000D02*
X158845000Y-41630000D01*
X161505000Y-56930000D02*
X158845000Y-56930000D01*
X161505000Y-56930000D02*
X161505000Y-41630000D01*
%TO.C,J1*%
X79317500Y-28892500D02*
X81317500Y-28892500D01*
X79317500Y-30142500D02*
X79317500Y-28892500D01*
X79707500Y-29282500D02*
X79707500Y-36752500D01*
X79707500Y-36752500D02*
X88327500Y-36752500D01*
X80767500Y-30242500D02*
X83767500Y-30242500D01*
X80767500Y-31592500D02*
X81517500Y-31592500D01*
X80767500Y-35892500D02*
X80767500Y-31592500D01*
X81017500Y-31242500D02*
X80767500Y-30242500D01*
X81517500Y-31242500D02*
X81017500Y-31242500D01*
X81517500Y-31592500D02*
X81517500Y-31242500D01*
X81517500Y-35892500D02*
X80767500Y-35892500D01*
X83017500Y-31242500D02*
X83017500Y-31592500D01*
X83017500Y-31592500D02*
X83767500Y-31592500D01*
X83517500Y-31242500D02*
X83017500Y-31242500D01*
X83767500Y-30242500D02*
X83517500Y-31242500D01*
X83767500Y-31592500D02*
X83767500Y-35892500D01*
X83767500Y-35892500D02*
X83017500Y-35892500D01*
X84267500Y-30242500D02*
X87267500Y-30242500D01*
X84267500Y-31592500D02*
X85017500Y-31592500D01*
X84267500Y-35892500D02*
X84267500Y-31592500D01*
X84517500Y-31242500D02*
X84267500Y-30242500D01*
X85017500Y-31242500D02*
X84517500Y-31242500D01*
X85017500Y-31592500D02*
X85017500Y-31242500D01*
X85017500Y-35892500D02*
X84267500Y-35892500D01*
X86517500Y-31242500D02*
X86517500Y-31592500D01*
X86517500Y-31592500D02*
X87267500Y-31592500D01*
X87017500Y-31242500D02*
X86517500Y-31242500D01*
X87267500Y-30242500D02*
X87017500Y-31242500D01*
X87267500Y-31592500D02*
X87267500Y-35892500D01*
X87267500Y-35892500D02*
X86517500Y-35892500D01*
X88327500Y-29282500D02*
X79707500Y-29282500D01*
X88327500Y-36752500D02*
X88327500Y-29282500D01*
X81517500Y-35892500D02*
G75*
G02*
X83017147Y-35892344I750000J-1700000D01*
G01*
X85017500Y-35892500D02*
G75*
G02*
X86517147Y-35892344I750000J-1700000D01*
G01*
%TO.C,R4*%
X112237258Y-32377500D02*
X111762742Y-32377500D01*
X112237258Y-33422500D02*
X111762742Y-33422500D01*
%TO.C,C15*%
X128253733Y-35190000D02*
X128546267Y-35190000D01*
X128253733Y-36210000D02*
X128546267Y-36210000D01*
%TO.C,C11*%
X145103733Y-55760000D02*
X145396267Y-55760000D01*
X145103733Y-54740000D02*
X145396267Y-54740000D01*
%TO.C,C16*%
X156590000Y-56453733D02*
X156590000Y-56746267D01*
X157610000Y-56453733D02*
X157610000Y-56746267D01*
%TO.C,Y1*%
X125900000Y-52650000D02*
X129600000Y-52650000D01*
X129600000Y-52650000D02*
X129600000Y-47350000D01*
%TO.C,J5*%
D10*
X157250000Y-39250000D02*
X163050000Y-39250000D01*
X163050000Y-28750000D01*
X157250000Y-28750000D01*
X157250000Y-39250000D01*
D13*
%TO.C,C4*%
X120896267Y-64260000D02*
X120603733Y-64260000D01*
X120896267Y-63240000D02*
X120603733Y-63240000D01*
%TO.C,C13*%
X94920000Y-58327677D02*
X105080000Y-58327677D01*
X94920000Y-58367677D02*
X105080000Y-58367677D01*
X94920000Y-58407677D02*
X105080000Y-58407677D01*
X94921000Y-58287677D02*
X105079000Y-58287677D01*
X94922000Y-58247677D02*
X105078000Y-58247677D01*
X94923000Y-58207677D02*
X105077000Y-58207677D01*
X94925000Y-58167677D02*
X105075000Y-58167677D01*
X94927000Y-58127677D02*
X105073000Y-58127677D01*
X94930000Y-58087677D02*
X105070000Y-58087677D01*
X94932000Y-58047677D02*
X105068000Y-58047677D01*
X94935000Y-58007677D02*
X105065000Y-58007677D01*
X94938000Y-57967677D02*
X105062000Y-57967677D01*
X94942000Y-57927677D02*
X105058000Y-57927677D01*
X94946000Y-57887677D02*
X105054000Y-57887677D01*
X94950000Y-57847677D02*
X105050000Y-57847677D01*
X94955000Y-57807677D02*
X105045000Y-57807677D01*
X94960000Y-57767677D02*
X105040000Y-57767677D01*
X94965000Y-57727677D02*
X105035000Y-57727677D01*
X94970000Y-57686677D02*
X105030000Y-57686677D01*
X94976000Y-57646677D02*
X105024000Y-57646677D01*
X94982000Y-57606677D02*
X105018000Y-57606677D01*
X94989000Y-57566677D02*
X105011000Y-57566677D01*
X94996000Y-57526677D02*
X105004000Y-57526677D01*
X95003000Y-57486677D02*
X104997000Y-57486677D01*
X95010000Y-57446677D02*
X104990000Y-57446677D01*
X95018000Y-57406677D02*
X104982000Y-57406677D01*
X95026000Y-57366677D02*
X104974000Y-57366677D01*
X95035000Y-57326677D02*
X104965000Y-57326677D01*
X95044000Y-57286677D02*
X104956000Y-57286677D01*
X95053000Y-57246677D02*
X104947000Y-57246677D01*
X95062000Y-57206677D02*
X104938000Y-57206677D01*
X95072000Y-57166677D02*
X104928000Y-57166677D01*
X95082000Y-57126677D02*
X98759000Y-57126677D01*
X95093000Y-57086677D02*
X98759000Y-57086677D01*
X95103000Y-57046677D02*
X98759000Y-57046677D01*
X95115000Y-57006677D02*
X98759000Y-57006677D01*
X95126000Y-56966677D02*
X98759000Y-56966677D01*
X95138000Y-56926677D02*
X98759000Y-56926677D01*
X95150000Y-56886677D02*
X98759000Y-56886677D01*
X95163000Y-56846677D02*
X98759000Y-56846677D01*
X95176000Y-56806677D02*
X98759000Y-56806677D01*
X95189000Y-56766677D02*
X98759000Y-56766677D01*
X95203000Y-56726677D02*
X98759000Y-56726677D01*
X95217000Y-56686677D02*
X98759000Y-56686677D01*
X95232000Y-56646677D02*
X98759000Y-56646677D01*
X95246000Y-56606677D02*
X98759000Y-56606677D01*
X95262000Y-56566677D02*
X98759000Y-56566677D01*
X95277000Y-56526677D02*
X98759000Y-56526677D01*
X95293000Y-56486677D02*
X98759000Y-56486677D01*
X95310000Y-56446677D02*
X98759000Y-56446677D01*
X95326000Y-56406677D02*
X98759000Y-56406677D01*
X95343000Y-56366677D02*
X98759000Y-56366677D01*
X95361000Y-56326677D02*
X98759000Y-56326677D01*
X95379000Y-56286677D02*
X98759000Y-56286677D01*
X95397000Y-56246677D02*
X98759000Y-56246677D01*
X95416000Y-56206677D02*
X98759000Y-56206677D01*
X95436000Y-56166677D02*
X98759000Y-56166677D01*
X95455000Y-56126677D02*
X98759000Y-56126677D01*
X95475000Y-56086677D02*
X98759000Y-56086677D01*
X95496000Y-56046677D02*
X98759000Y-56046677D01*
X95517000Y-56006677D02*
X98759000Y-56006677D01*
X95538000Y-55966677D02*
X98759000Y-55966677D01*
X95560000Y-55926677D02*
X98759000Y-55926677D01*
X95583000Y-55886677D02*
X98759000Y-55886677D01*
X95605000Y-55846677D02*
X98759000Y-55846677D01*
X95629000Y-55806677D02*
X98759000Y-55806677D01*
X95653000Y-55766677D02*
X98759000Y-55766677D01*
X95677000Y-55726677D02*
X98759000Y-55726677D01*
X95702000Y-55686677D02*
X98759000Y-55686677D01*
X95727000Y-55646677D02*
X98759000Y-55646677D01*
X95753000Y-55606677D02*
X98759000Y-55606677D01*
X95779000Y-55566677D02*
X98759000Y-55566677D01*
X95806000Y-55526677D02*
X98759000Y-55526677D01*
X95834000Y-55486677D02*
X98759000Y-55486677D01*
X95862000Y-55446677D02*
X98759000Y-55446677D01*
X95890000Y-55406677D02*
X98759000Y-55406677D01*
X95920000Y-55366677D02*
X98759000Y-55366677D01*
X95950000Y-55326677D02*
X98759000Y-55326677D01*
X95980000Y-55286677D02*
X98759000Y-55286677D01*
X96011000Y-55246677D02*
X98759000Y-55246677D01*
X96043000Y-55206677D02*
X98759000Y-55206677D01*
X96075000Y-55166677D02*
X98759000Y-55166677D01*
X96108000Y-55126677D02*
X98759000Y-55126677D01*
X96142000Y-55086677D02*
X98759000Y-55086677D01*
X96176000Y-55046677D02*
X98759000Y-55046677D01*
X96211000Y-55006677D02*
X98759000Y-55006677D01*
X96247000Y-54966677D02*
X98759000Y-54966677D01*
X96284000Y-54926677D02*
X98759000Y-54926677D01*
X96321000Y-54886677D02*
X98759000Y-54886677D01*
X96360000Y-54846677D02*
X98759000Y-54846677D01*
X96399000Y-54806677D02*
X98759000Y-54806677D01*
X96439000Y-54766677D02*
X98759000Y-54766677D01*
X96480000Y-54726677D02*
X98759000Y-54726677D01*
X96522000Y-54686677D02*
X98759000Y-54686677D01*
X96564000Y-54646677D02*
X103436000Y-54646677D01*
X96608000Y-54606677D02*
X103392000Y-54606677D01*
X96625000Y-63387323D02*
X97625000Y-63387323D01*
X96653000Y-54566677D02*
X103347000Y-54566677D01*
X96699000Y-54526677D02*
X103301000Y-54526677D01*
X96746000Y-54486677D02*
X103254000Y-54486677D01*
X96794000Y-54446677D02*
X103206000Y-54446677D01*
X96844000Y-54406677D02*
X103156000Y-54406677D01*
X96894000Y-54366677D02*
X103106000Y-54366677D01*
X96946000Y-54326677D02*
X103054000Y-54326677D01*
X97000000Y-54286677D02*
X103000000Y-54286677D01*
X97055000Y-54246677D02*
X102945000Y-54246677D01*
X97111000Y-54206677D02*
X102889000Y-54206677D01*
X97125000Y-63887323D02*
X97125000Y-62887323D01*
X97170000Y-54166677D02*
X102830000Y-54166677D01*
X97230000Y-54126677D02*
X102770000Y-54126677D01*
X97291000Y-54086677D02*
X102709000Y-54086677D01*
X97355000Y-54046677D02*
X102645000Y-54046677D01*
X97421000Y-54006677D02*
X102579000Y-54006677D01*
X97490000Y-53966677D02*
X102510000Y-53966677D01*
X97561000Y-53926677D02*
X102439000Y-53926677D01*
X97635000Y-53886677D02*
X102365000Y-53886677D01*
X97711000Y-53846677D02*
X102289000Y-53846677D01*
X97791000Y-53806677D02*
X102209000Y-53806677D01*
X97875000Y-53766677D02*
X102125000Y-53766677D01*
X97963000Y-53726677D02*
X102037000Y-53726677D01*
X98056000Y-53686677D02*
X101944000Y-53686677D01*
X98154000Y-53646677D02*
X101846000Y-53646677D01*
X98258000Y-53606677D02*
X101742000Y-53606677D01*
X98370000Y-53566677D02*
X101630000Y-53566677D01*
X98490000Y-53526677D02*
X101510000Y-53526677D01*
X98622000Y-53486677D02*
X101378000Y-53486677D01*
X98770000Y-53446677D02*
X101230000Y-53446677D01*
X98938000Y-53406677D02*
X101062000Y-53406677D01*
X99138000Y-53366677D02*
X100862000Y-53366677D01*
X99401000Y-53326677D02*
X100599000Y-53326677D01*
X101241000Y-54686677D02*
X103478000Y-54686677D01*
X101241000Y-54726677D02*
X103520000Y-54726677D01*
X101241000Y-54766677D02*
X103561000Y-54766677D01*
X101241000Y-54806677D02*
X103601000Y-54806677D01*
X101241000Y-54846677D02*
X103640000Y-54846677D01*
X101241000Y-54886677D02*
X103679000Y-54886677D01*
X101241000Y-54926677D02*
X103716000Y-54926677D01*
X101241000Y-54966677D02*
X103753000Y-54966677D01*
X101241000Y-55006677D02*
X103789000Y-55006677D01*
X101241000Y-55046677D02*
X103824000Y-55046677D01*
X101241000Y-55086677D02*
X103858000Y-55086677D01*
X101241000Y-55126677D02*
X103892000Y-55126677D01*
X101241000Y-55166677D02*
X103925000Y-55166677D01*
X101241000Y-55206677D02*
X103957000Y-55206677D01*
X101241000Y-55246677D02*
X103989000Y-55246677D01*
X101241000Y-55286677D02*
X104020000Y-55286677D01*
X101241000Y-55326677D02*
X104050000Y-55326677D01*
X101241000Y-55366677D02*
X104080000Y-55366677D01*
X101241000Y-55406677D02*
X104110000Y-55406677D01*
X101241000Y-55446677D02*
X104138000Y-55446677D01*
X101241000Y-55486677D02*
X104166000Y-55486677D01*
X101241000Y-55526677D02*
X104194000Y-55526677D01*
X101241000Y-55566677D02*
X104221000Y-55566677D01*
X101241000Y-55606677D02*
X104247000Y-55606677D01*
X101241000Y-55646677D02*
X104273000Y-55646677D01*
X101241000Y-55686677D02*
X104298000Y-55686677D01*
X101241000Y-55726677D02*
X104323000Y-55726677D01*
X101241000Y-55766677D02*
X104347000Y-55766677D01*
X101241000Y-55806677D02*
X104371000Y-55806677D01*
X101241000Y-55846677D02*
X104395000Y-55846677D01*
X101241000Y-55886677D02*
X104417000Y-55886677D01*
X101241000Y-55926677D02*
X104440000Y-55926677D01*
X101241000Y-55966677D02*
X104462000Y-55966677D01*
X101241000Y-56006677D02*
X104483000Y-56006677D01*
X101241000Y-56046677D02*
X104504000Y-56046677D01*
X101241000Y-56086677D02*
X104525000Y-56086677D01*
X101241000Y-56126677D02*
X104545000Y-56126677D01*
X101241000Y-56166677D02*
X104564000Y-56166677D01*
X101241000Y-56206677D02*
X104584000Y-56206677D01*
X101241000Y-56246677D02*
X104603000Y-56246677D01*
X101241000Y-56286677D02*
X104621000Y-56286677D01*
X101241000Y-56326677D02*
X104639000Y-56326677D01*
X101241000Y-56366677D02*
X104657000Y-56366677D01*
X101241000Y-56406677D02*
X104674000Y-56406677D01*
X101241000Y-56446677D02*
X104690000Y-56446677D01*
X101241000Y-56486677D02*
X104707000Y-56486677D01*
X101241000Y-56526677D02*
X104723000Y-56526677D01*
X101241000Y-56566677D02*
X104738000Y-56566677D01*
X101241000Y-56606677D02*
X104754000Y-56606677D01*
X101241000Y-56646677D02*
X104768000Y-56646677D01*
X101241000Y-56686677D02*
X104783000Y-56686677D01*
X101241000Y-56726677D02*
X104797000Y-56726677D01*
X101241000Y-56766677D02*
X104811000Y-56766677D01*
X101241000Y-56806677D02*
X104824000Y-56806677D01*
X101241000Y-56846677D02*
X104837000Y-56846677D01*
X101241000Y-56886677D02*
X104850000Y-56886677D01*
X101241000Y-56926677D02*
X104862000Y-56926677D01*
X101241000Y-56966677D02*
X104874000Y-56966677D01*
X101241000Y-57006677D02*
X104885000Y-57006677D01*
X101241000Y-57046677D02*
X104897000Y-57046677D01*
X101241000Y-57086677D02*
X104907000Y-57086677D01*
X101241000Y-57126677D02*
X104918000Y-57126677D01*
X105120000Y-58407677D02*
G75*
G02*
X94880000Y-58407677I-5120000J0D01*
G01*
X94880000Y-58407677D02*
G75*
G02*
X105120000Y-58407677I5120000J0D01*
G01*
%TO.C,R2*%
X125512742Y-56477500D02*
X125987258Y-56477500D01*
X125512742Y-57522500D02*
X125987258Y-57522500D01*
%TO.C,C8*%
X132890000Y-41746267D02*
X132890000Y-41453733D01*
X133910000Y-41746267D02*
X133910000Y-41453733D01*
%TO.C,L2*%
X105120000Y-70000000D02*
G75*
G02*
X94880000Y-70000000I-5120000J0D01*
G01*
X94880000Y-70000000D02*
G75*
G02*
X105120000Y-70000000I5120000J0D01*
G01*
%TO.C,C9*%
X144590000Y-45346267D02*
X144590000Y-45053733D01*
X145610000Y-45346267D02*
X145610000Y-45053733D01*
%TO.C,C12*%
X132446267Y-47690000D02*
X132153733Y-47690000D01*
X132446267Y-48710000D02*
X132153733Y-48710000D01*
%TO.C,L1*%
X105120000Y-33000000D02*
G75*
G02*
X94880000Y-33000000I-5120000J0D01*
G01*
X94880000Y-33000000D02*
G75*
G02*
X105120000Y-33000000I5120000J0D01*
G01*
%TO.C,TP4*%
X156750000Y-43100000D02*
G75*
G02*
X154850000Y-43100000I-950000J0D01*
G01*
X154850000Y-43100000D02*
G75*
G02*
X156750000Y-43100000I950000J0D01*
G01*
%TO.C,C2*%
X123740000Y-48103733D02*
X123740000Y-48396267D01*
X124760000Y-48103733D02*
X124760000Y-48396267D01*
%TO.C,SHT31*%
X127170000Y-30645000D02*
X128500000Y-30645000D01*
X127170000Y-31975000D02*
X127170000Y-30645000D01*
X129770000Y-30645000D02*
X137450000Y-30645000D01*
X129770000Y-33305000D02*
X129770000Y-30645000D01*
X129770000Y-33305000D02*
X137450000Y-33305000D01*
X137450000Y-33305000D02*
X137450000Y-30645000D01*
%TO.C,C7*%
X135090000Y-41811252D02*
X135090000Y-40388748D01*
X136910000Y-41811252D02*
X136910000Y-40388748D01*
%TO.C,TP5*%
X137200000Y-36250000D02*
G75*
G02*
X135300000Y-36250000I-950000J0D01*
G01*
X135300000Y-36250000D02*
G75*
G02*
X137200000Y-36250000I950000J0D01*
G01*
%TO.C,TP7*%
X140450000Y-36250000D02*
G75*
G02*
X138550000Y-36250000I-950000J0D01*
G01*
X138550000Y-36250000D02*
G75*
G02*
X140450000Y-36250000I950000J0D01*
G01*
%TO.C,C6*%
X98759000Y-46413323D02*
X95082000Y-46413323D01*
X98759000Y-46453323D02*
X95093000Y-46453323D01*
X98759000Y-46493323D02*
X95103000Y-46493323D01*
X98759000Y-46533323D02*
X95115000Y-46533323D01*
X98759000Y-46573323D02*
X95126000Y-46573323D01*
X98759000Y-46613323D02*
X95138000Y-46613323D01*
X98759000Y-46653323D02*
X95150000Y-46653323D01*
X98759000Y-46693323D02*
X95163000Y-46693323D01*
X98759000Y-46733323D02*
X95176000Y-46733323D01*
X98759000Y-46773323D02*
X95189000Y-46773323D01*
X98759000Y-46813323D02*
X95203000Y-46813323D01*
X98759000Y-46853323D02*
X95217000Y-46853323D01*
X98759000Y-46893323D02*
X95232000Y-46893323D01*
X98759000Y-46933323D02*
X95246000Y-46933323D01*
X98759000Y-46973323D02*
X95262000Y-46973323D01*
X98759000Y-47013323D02*
X95277000Y-47013323D01*
X98759000Y-47053323D02*
X95293000Y-47053323D01*
X98759000Y-47093323D02*
X95310000Y-47093323D01*
X98759000Y-47133323D02*
X95326000Y-47133323D01*
X98759000Y-47173323D02*
X95343000Y-47173323D01*
X98759000Y-47213323D02*
X95361000Y-47213323D01*
X98759000Y-47253323D02*
X95379000Y-47253323D01*
X98759000Y-47293323D02*
X95397000Y-47293323D01*
X98759000Y-47333323D02*
X95416000Y-47333323D01*
X98759000Y-47373323D02*
X95436000Y-47373323D01*
X98759000Y-47413323D02*
X95455000Y-47413323D01*
X98759000Y-47453323D02*
X95475000Y-47453323D01*
X98759000Y-47493323D02*
X95496000Y-47493323D01*
X98759000Y-47533323D02*
X95517000Y-47533323D01*
X98759000Y-47573323D02*
X95538000Y-47573323D01*
X98759000Y-47613323D02*
X95560000Y-47613323D01*
X98759000Y-47653323D02*
X95583000Y-47653323D01*
X98759000Y-47693323D02*
X95605000Y-47693323D01*
X98759000Y-47733323D02*
X95629000Y-47733323D01*
X98759000Y-47773323D02*
X95653000Y-47773323D01*
X98759000Y-47813323D02*
X95677000Y-47813323D01*
X98759000Y-47853323D02*
X95702000Y-47853323D01*
X98759000Y-47893323D02*
X95727000Y-47893323D01*
X98759000Y-47933323D02*
X95753000Y-47933323D01*
X98759000Y-47973323D02*
X95779000Y-47973323D01*
X98759000Y-48013323D02*
X95806000Y-48013323D01*
X98759000Y-48053323D02*
X95834000Y-48053323D01*
X98759000Y-48093323D02*
X95862000Y-48093323D01*
X98759000Y-48133323D02*
X95890000Y-48133323D01*
X98759000Y-48173323D02*
X95920000Y-48173323D01*
X98759000Y-48213323D02*
X95950000Y-48213323D01*
X98759000Y-48253323D02*
X95980000Y-48253323D01*
X98759000Y-48293323D02*
X96011000Y-48293323D01*
X98759000Y-48333323D02*
X96043000Y-48333323D01*
X98759000Y-48373323D02*
X96075000Y-48373323D01*
X98759000Y-48413323D02*
X96108000Y-48413323D01*
X98759000Y-48453323D02*
X96142000Y-48453323D01*
X98759000Y-48493323D02*
X96176000Y-48493323D01*
X98759000Y-48533323D02*
X96211000Y-48533323D01*
X98759000Y-48573323D02*
X96247000Y-48573323D01*
X98759000Y-48613323D02*
X96284000Y-48613323D01*
X98759000Y-48653323D02*
X96321000Y-48653323D01*
X98759000Y-48693323D02*
X96360000Y-48693323D01*
X98759000Y-48733323D02*
X96399000Y-48733323D01*
X98759000Y-48773323D02*
X96439000Y-48773323D01*
X98759000Y-48813323D02*
X96480000Y-48813323D01*
X98759000Y-48853323D02*
X96522000Y-48853323D01*
X100599000Y-50213323D02*
X99401000Y-50213323D01*
X100862000Y-50173323D02*
X99138000Y-50173323D01*
X101062000Y-50133323D02*
X98938000Y-50133323D01*
X101230000Y-50093323D02*
X98770000Y-50093323D01*
X101378000Y-50053323D02*
X98622000Y-50053323D01*
X101510000Y-50013323D02*
X98490000Y-50013323D01*
X101630000Y-49973323D02*
X98370000Y-49973323D01*
X101742000Y-49933323D02*
X98258000Y-49933323D01*
X101846000Y-49893323D02*
X98154000Y-49893323D01*
X101944000Y-49853323D02*
X98056000Y-49853323D01*
X102037000Y-49813323D02*
X97963000Y-49813323D01*
X102125000Y-49773323D02*
X97875000Y-49773323D01*
X102209000Y-49733323D02*
X97791000Y-49733323D01*
X102289000Y-49693323D02*
X97711000Y-49693323D01*
X102365000Y-49653323D02*
X97635000Y-49653323D01*
X102439000Y-49613323D02*
X97561000Y-49613323D01*
X102510000Y-49573323D02*
X97490000Y-49573323D01*
X102579000Y-49533323D02*
X97421000Y-49533323D01*
X102645000Y-49493323D02*
X97355000Y-49493323D01*
X102709000Y-49453323D02*
X97291000Y-49453323D01*
X102770000Y-49413323D02*
X97230000Y-49413323D01*
X102830000Y-49373323D02*
X97170000Y-49373323D01*
X102875000Y-39652677D02*
X102875000Y-40652677D01*
X102889000Y-49333323D02*
X97111000Y-49333323D01*
X102945000Y-49293323D02*
X97055000Y-49293323D01*
X103000000Y-49253323D02*
X97000000Y-49253323D01*
X103054000Y-49213323D02*
X96946000Y-49213323D01*
X103106000Y-49173323D02*
X96894000Y-49173323D01*
X103156000Y-49133323D02*
X96844000Y-49133323D01*
X103206000Y-49093323D02*
X96794000Y-49093323D01*
X103254000Y-49053323D02*
X96746000Y-49053323D01*
X103301000Y-49013323D02*
X96699000Y-49013323D01*
X103347000Y-48973323D02*
X96653000Y-48973323D01*
X103375000Y-40152677D02*
X102375000Y-40152677D01*
X103392000Y-48933323D02*
X96608000Y-48933323D01*
X103436000Y-48893323D02*
X96564000Y-48893323D01*
X103478000Y-48853323D02*
X101241000Y-48853323D01*
X103520000Y-48813323D02*
X101241000Y-48813323D01*
X103561000Y-48773323D02*
X101241000Y-48773323D01*
X103601000Y-48733323D02*
X101241000Y-48733323D01*
X103640000Y-48693323D02*
X101241000Y-48693323D01*
X103679000Y-48653323D02*
X101241000Y-48653323D01*
X103716000Y-48613323D02*
X101241000Y-48613323D01*
X103753000Y-48573323D02*
X101241000Y-48573323D01*
X103789000Y-48533323D02*
X101241000Y-48533323D01*
X103824000Y-48493323D02*
X101241000Y-48493323D01*
X103858000Y-48453323D02*
X101241000Y-48453323D01*
X103892000Y-48413323D02*
X101241000Y-48413323D01*
X103925000Y-48373323D02*
X101241000Y-48373323D01*
X103957000Y-48333323D02*
X101241000Y-48333323D01*
X103989000Y-48293323D02*
X101241000Y-48293323D01*
X104020000Y-48253323D02*
X101241000Y-48253323D01*
X104050000Y-48213323D02*
X101241000Y-48213323D01*
X104080000Y-48173323D02*
X101241000Y-48173323D01*
X104110000Y-48133323D02*
X101241000Y-48133323D01*
X104138000Y-48093323D02*
X101241000Y-48093323D01*
X104166000Y-48053323D02*
X101241000Y-48053323D01*
X104194000Y-48013323D02*
X101241000Y-48013323D01*
X104221000Y-47973323D02*
X101241000Y-47973323D01*
X104247000Y-47933323D02*
X101241000Y-47933323D01*
X104273000Y-47893323D02*
X101241000Y-47893323D01*
X104298000Y-47853323D02*
X101241000Y-47853323D01*
X104323000Y-47813323D02*
X101241000Y-47813323D01*
X104347000Y-47773323D02*
X101241000Y-47773323D01*
X104371000Y-47733323D02*
X101241000Y-47733323D01*
X104395000Y-47693323D02*
X101241000Y-47693323D01*
X104417000Y-47653323D02*
X101241000Y-47653323D01*
X104440000Y-47613323D02*
X101241000Y-47613323D01*
X104462000Y-47573323D02*
X101241000Y-47573323D01*
X104483000Y-47533323D02*
X101241000Y-47533323D01*
X104504000Y-47493323D02*
X101241000Y-47493323D01*
X104525000Y-47453323D02*
X101241000Y-47453323D01*
X104545000Y-47413323D02*
X101241000Y-47413323D01*
X104564000Y-47373323D02*
X101241000Y-47373323D01*
X104584000Y-47333323D02*
X101241000Y-47333323D01*
X104603000Y-47293323D02*
X101241000Y-47293323D01*
X104621000Y-47253323D02*
X101241000Y-47253323D01*
X104639000Y-47213323D02*
X101241000Y-47213323D01*
X104657000Y-47173323D02*
X101241000Y-47173323D01*
X104674000Y-47133323D02*
X101241000Y-47133323D01*
X104690000Y-47093323D02*
X101241000Y-47093323D01*
X104707000Y-47053323D02*
X101241000Y-47053323D01*
X104723000Y-47013323D02*
X101241000Y-47013323D01*
X104738000Y-46973323D02*
X101241000Y-46973323D01*
X104754000Y-46933323D02*
X101241000Y-46933323D01*
X104768000Y-46893323D02*
X101241000Y-46893323D01*
X104783000Y-46853323D02*
X101241000Y-46853323D01*
X104797000Y-46813323D02*
X101241000Y-46813323D01*
X104811000Y-46773323D02*
X101241000Y-46773323D01*
X104824000Y-46733323D02*
X101241000Y-46733323D01*
X104837000Y-46693323D02*
X101241000Y-46693323D01*
X104850000Y-46653323D02*
X101241000Y-46653323D01*
X104862000Y-46613323D02*
X101241000Y-46613323D01*
X104874000Y-46573323D02*
X101241000Y-46573323D01*
X104885000Y-46533323D02*
X101241000Y-46533323D01*
X104897000Y-46493323D02*
X101241000Y-46493323D01*
X104907000Y-46453323D02*
X101241000Y-46453323D01*
X104918000Y-46413323D02*
X101241000Y-46413323D01*
X104928000Y-46373323D02*
X95072000Y-46373323D01*
X104938000Y-46333323D02*
X95062000Y-46333323D01*
X104947000Y-46293323D02*
X95053000Y-46293323D01*
X104956000Y-46253323D02*
X95044000Y-46253323D01*
X104965000Y-46213323D02*
X95035000Y-46213323D01*
X104974000Y-46173323D02*
X95026000Y-46173323D01*
X104982000Y-46133323D02*
X95018000Y-46133323D01*
X104990000Y-46093323D02*
X95010000Y-46093323D01*
X104997000Y-46053323D02*
X95003000Y-46053323D01*
X105004000Y-46013323D02*
X94996000Y-46013323D01*
X105011000Y-45973323D02*
X94989000Y-45973323D01*
X105018000Y-45933323D02*
X94982000Y-45933323D01*
X105024000Y-45893323D02*
X94976000Y-45893323D01*
X105030000Y-45853323D02*
X94970000Y-45853323D01*
X105035000Y-45812323D02*
X94965000Y-45812323D01*
X105040000Y-45772323D02*
X94960000Y-45772323D01*
X105045000Y-45732323D02*
X94955000Y-45732323D01*
X105050000Y-45692323D02*
X94950000Y-45692323D01*
X105054000Y-45652323D02*
X94946000Y-45652323D01*
X105058000Y-45612323D02*
X94942000Y-45612323D01*
X105062000Y-45572323D02*
X94938000Y-45572323D01*
X105065000Y-45532323D02*
X94935000Y-45532323D01*
X105068000Y-45492323D02*
X94932000Y-45492323D01*
X105070000Y-45452323D02*
X94930000Y-45452323D01*
X105073000Y-45412323D02*
X94927000Y-45412323D01*
X105075000Y-45372323D02*
X94925000Y-45372323D01*
X105077000Y-45332323D02*
X94923000Y-45332323D01*
X105078000Y-45292323D02*
X94922000Y-45292323D01*
X105079000Y-45252323D02*
X94921000Y-45252323D01*
X105080000Y-45132323D02*
X94920000Y-45132323D01*
X105080000Y-45172323D02*
X94920000Y-45172323D01*
X105080000Y-45212323D02*
X94920000Y-45212323D01*
X105120000Y-45132323D02*
G75*
G02*
X94880000Y-45132323I-5120000J0D01*
G01*
X94880000Y-45132323D02*
G75*
G02*
X105120000Y-45132323I5120000J0D01*
G01*
%TO.C,D3*%
X111000000Y-74960000D02*
X113860000Y-74960000D01*
X113860000Y-74960000D02*
X113860000Y-73040000D01*
X113860000Y-73040000D02*
X111000000Y-73040000D01*
%TO.C,J3*%
X142170000Y-69945000D02*
X143500000Y-69945000D01*
X142170000Y-71275000D02*
X142170000Y-69945000D01*
X144770000Y-69945000D02*
X152450000Y-69945000D01*
X144770000Y-72605000D02*
X144770000Y-69945000D01*
X144770000Y-72605000D02*
X152450000Y-72605000D01*
X152450000Y-72605000D02*
X152450000Y-69945000D01*
%TO.C,C3*%
X123740000Y-52396267D02*
X123740000Y-52103733D01*
X124760000Y-52396267D02*
X124760000Y-52103733D01*
%TO.C,C14*%
X132646267Y-52240000D02*
X132353733Y-52240000D01*
X132646267Y-53260000D02*
X132353733Y-53260000D01*
%TD*%
M02*
