%TF.GenerationSoftware,KiCad,Pcbnew,9.0.0*%
%TF.CreationDate,2025-04-23T22:05:31+03:00*%
%TF.ProjectId,LoRa,4c6f5261-2e6b-4696-9361-645f70636258,rev?*%
%TF.SameCoordinates,Original*%
%TF.FileFunction,Copper,L2,Bot*%
%TF.FilePolarity,Positive*%
%FSLAX46Y46*%
G04 Gerber Fmt 4.6, Leading zero omitted, Abs format (unit mm)*
G04 Created by KiCad (PCBNEW 9.0.0) date 2025-04-23 22:05:31*
%MOMM*%
%LPD*%
G01*
G04 APERTURE LIST*
G04 Aperture macros list*
%AMRoundRect*
0 Rectangle with rounded corners*
0 $1 Rounding radius*
0 $2 $3 $4 $5 $6 $7 $8 $9 X,Y pos of 4 corners*
0 Add a 4 corners polygon primitive as box body*
4,1,4,$2,$3,$4,$5,$6,$7,$8,$9,$2,$3,0*
0 Add four circle primitives for the rounded corners*
1,1,$1+$1,$2,$3*
1,1,$1+$1,$4,$5*
1,1,$1+$1,$6,$7*
1,1,$1+$1,$8,$9*
0 Add four rect primitives between the rounded corners*
20,1,$1+$1,$2,$3,$4,$5,0*
20,1,$1+$1,$4,$5,$6,$7,0*
20,1,$1+$1,$6,$7,$8,$9,0*
20,1,$1+$1,$8,$9,$2,$3,0*%
G04 Aperture macros list end*
%TA.AperFunction,ComponentPad*%
%ADD10R,1.700000X1.700000*%
%TD*%
%TA.AperFunction,ComponentPad*%
%ADD11O,1.700000X1.700000*%
%TD*%
%TA.AperFunction,ComponentPad*%
%ADD12RoundRect,0.250000X0.650000X1.550000X-0.650000X1.550000X-0.650000X-1.550000X0.650000X-1.550000X0*%
%TD*%
%TA.AperFunction,ComponentPad*%
%ADD13O,1.800000X3.600000*%
%TD*%
%TA.AperFunction,ComponentPad*%
%ADD14R,2.000000X2.000000*%
%TD*%
%TA.AperFunction,ComponentPad*%
%ADD15C,2.000000*%
%TD*%
%TA.AperFunction,ComponentPad*%
%ADD16RoundRect,0.250000X-0.650000X-1.550000X0.650000X-1.550000X0.650000X1.550000X-0.650000X1.550000X0*%
%TD*%
%TA.AperFunction,ComponentPad*%
%ADD17C,1.500000*%
%TD*%
%TA.AperFunction,ComponentPad*%
%ADD18C,2.400000*%
%TD*%
%TA.AperFunction,ViaPad*%
%ADD19C,0.600000*%
%TD*%
G04 APERTURE END LIST*
D10*
%TO.P,SWD1,1,Pin_1*%
%TO.N,+3.3V*%
X143800000Y-32000000D03*
D11*
%TO.P,SWD1,2,Pin_2*%
%TO.N,/SWDCLK*%
X146340000Y-32000000D03*
%TO.P,SWD1,3,Pin_3*%
%TO.N,/SWDIO*%
X148880000Y-32000000D03*
%TO.P,SWD1,4,Pin_4*%
%TO.N,GND*%
X151420000Y-32000000D03*
%TD*%
D10*
%TO.P,J4,1,Pin_1*%
%TO.N,+3.3V*%
X160175000Y-71120000D03*
D11*
%TO.P,J4,2,Pin_2*%
%TO.N,/Debug_Tx*%
X160175000Y-68580000D03*
%TO.P,J4,3,Pin_3*%
%TO.N,/Debug_Rx*%
X160175000Y-66040000D03*
%TO.P,J4,4,Pin_4*%
%TO.N,GND*%
X160175000Y-63500000D03*
%TD*%
D12*
%TO.P,J2,1,Pin_1*%
%TO.N,+5V_INPUT*%
X85732500Y-70000000D03*
D13*
%TO.P,J2,2,Pin_2*%
%TO.N,GND*%
X82232500Y-70000000D03*
%TD*%
D10*
%TO.P,pm2.5,1,Pin_1*%
%TO.N,+5V*%
X126400000Y-71250000D03*
D11*
%TO.P,pm2.5,2,Pin_2*%
%TO.N,GND*%
X128940000Y-71250000D03*
%TO.P,pm2.5,3,Pin_3*%
%TO.N,/mcu_pm_tx*%
X131480000Y-71250000D03*
%TO.P,pm2.5,4,Pin_4*%
%TO.N,/mcu__pm_rx*%
X134020000Y-71250000D03*
%TD*%
D14*
%TO.P,C5,1*%
%TO.N,+3.3V_INPUT*%
X84000000Y-42632323D03*
D15*
%TO.P,C5,2*%
%TO.N,GND*%
X84000000Y-47632323D03*
%TD*%
D14*
%TO.P,C10,1*%
%TO.N,+5V_INPUT*%
X84000000Y-60907677D03*
D15*
%TO.P,C10,2*%
%TO.N,GND*%
X84000000Y-55907677D03*
%TD*%
D10*
%TO.P,LoRa1,1,Pin_1*%
%TO.N,GND*%
X160175000Y-58200000D03*
D11*
%TO.P,LoRa1,2,Pin_2*%
%TO.N,+3.3V*%
X160175000Y-55660000D03*
%TO.P,LoRa1,3,Pin_3*%
%TO.N,/AUX*%
X160175000Y-53120000D03*
%TO.P,LoRa1,4,Pin_4*%
%TO.N,/mcu_LoRa_RX*%
X160175000Y-50580000D03*
%TO.P,LoRa1,5,Pin_5*%
%TO.N,/mcu_LoRa_TX*%
X160175000Y-48040000D03*
%TO.P,LoRa1,6,Pin_6*%
%TO.N,/M1*%
X160175000Y-45500000D03*
%TO.P,LoRa1,7,Pin_7*%
%TO.N,/M0*%
X160175000Y-42960000D03*
%TD*%
D16*
%TO.P,J1,1,Pin_1*%
%TO.N,GND*%
X82267500Y-33642500D03*
D13*
%TO.P,J1,2,Pin_2*%
%TO.N,+3.3V_INPUT*%
X85767500Y-33642500D03*
%TD*%
D17*
%TO.P,J5,1,Pin_1*%
%TO.N,GND*%
X160150000Y-37000000D03*
%TO.P,J5,2,Pin_2*%
%TO.N,/B0*%
X160150000Y-34000000D03*
%TO.P,J5,3,Pin_3*%
%TO.N,+3.3V*%
X160150000Y-31000000D03*
%TD*%
D14*
%TO.P,C13,1*%
%TO.N,+5V*%
X100000000Y-60907677D03*
D15*
%TO.P,C13,2*%
%TO.N,GND*%
X100000000Y-55907677D03*
%TD*%
D18*
%TO.P,L2,1,1*%
%TO.N,+5V_INPUT*%
X97500000Y-70000000D03*
%TO.P,L2,2,2*%
%TO.N,+5V*%
X102500000Y-70000000D03*
%TD*%
%TO.P,L1,1,1*%
%TO.N,+3.3V_INPUT*%
X97500000Y-33000000D03*
%TO.P,L1,2,2*%
%TO.N,+3.3V*%
X102500000Y-33000000D03*
%TD*%
D10*
%TO.P,SHT31,1,Pin_1*%
%TO.N,+3.3V*%
X128500000Y-31975000D03*
D11*
%TO.P,SHT31,2,Pin_2*%
%TO.N,GND*%
X131040000Y-31975000D03*
%TO.P,SHT31,3,Pin_3*%
%TO.N,/SHT31_SCL*%
X133580000Y-31975000D03*
%TO.P,SHT31,4,Pin_4*%
%TO.N,/SHT31_SDA*%
X136120000Y-31975000D03*
%TD*%
D14*
%TO.P,C6,1*%
%TO.N,+3.3V*%
X100000000Y-42632323D03*
D15*
%TO.P,C6,2*%
%TO.N,GND*%
X100000000Y-47632323D03*
%TD*%
D10*
%TO.P,J3,1,Pin_1*%
%TO.N,/CO_Enb*%
X143500000Y-71275000D03*
D11*
%TO.P,J3,2,Pin_2*%
%TO.N,/CO_ADC*%
X146040000Y-71275000D03*
%TO.P,J3,3,Pin_3*%
%TO.N,GND*%
X148580000Y-71275000D03*
%TO.P,J3,4,Pin_4*%
%TO.N,+5V*%
X151120000Y-71275000D03*
%TD*%
D19*
%TO.N,GND*%
X113500000Y-66750000D03*
X146000000Y-54000000D03*
X142500000Y-56250000D03*
X151250000Y-56000000D03*
X154000000Y-73250000D03*
X107500000Y-56250000D03*
X106250000Y-55000000D03*
X106250000Y-53750000D03*
X107500000Y-55000000D03*
X107500000Y-53750000D03*
X106250000Y-52500000D03*
X106250000Y-51250000D03*
X106250000Y-50000000D03*
X106250000Y-48750000D03*
X107500000Y-52500000D03*
X107500000Y-51250000D03*
X107500000Y-50000000D03*
X107500000Y-48750000D03*
X107500000Y-47500000D03*
X116000000Y-59000000D03*
X132000000Y-51500000D03*
X134000000Y-51500000D03*
X138000000Y-45000000D03*
X145500000Y-48000000D03*
X145250000Y-43250000D03*
X131250000Y-47250000D03*
X128750000Y-47000000D03*
X123000000Y-47250000D03*
X123000000Y-53250000D03*
X126750000Y-53000000D03*
X155750000Y-57750000D03*
X135750000Y-38750000D03*
X132500000Y-40750000D03*
X129250000Y-36750000D03*
X109750000Y-30000000D03*
X113000000Y-47750000D03*
X118750000Y-63750000D03*
X117000000Y-72750000D03*
X114250000Y-74250000D03*
%TD*%
%TA.AperFunction,Conductor*%
%TO.N,GND*%
G36*
X163942539Y-28020185D02*
G01*
X163988294Y-28072989D01*
X163999500Y-28124500D01*
X163999500Y-75875500D01*
X163979815Y-75942539D01*
X163927011Y-75988294D01*
X163875500Y-75999500D01*
X66124500Y-75999500D01*
X66057461Y-75979815D01*
X66011706Y-75927011D01*
X66000500Y-75875500D01*
X66000500Y-68989818D01*
X80832500Y-68989818D01*
X80832500Y-69750000D01*
X81684018Y-69750000D01*
X81673389Y-69768409D01*
X81632500Y-69921009D01*
X81632500Y-70078991D01*
X81673389Y-70231591D01*
X81684018Y-70250000D01*
X80832500Y-70250000D01*
X80832500Y-71010181D01*
X80866973Y-71227835D01*
X80935067Y-71437410D01*
X81035113Y-71633760D01*
X81164642Y-71812041D01*
X81320458Y-71967857D01*
X81498739Y-72097386D01*
X81695089Y-72197432D01*
X81904663Y-72265526D01*
X81982499Y-72277854D01*
X81982500Y-72277854D01*
X81982500Y-70548482D01*
X82000909Y-70559111D01*
X82153509Y-70600000D01*
X82311491Y-70600000D01*
X82464091Y-70559111D01*
X82482500Y-70548482D01*
X82482500Y-72277854D01*
X82560334Y-72265526D01*
X82560337Y-72265526D01*
X82769910Y-72197432D01*
X82966260Y-72097386D01*
X83144541Y-71967857D01*
X83300357Y-71812041D01*
X83429886Y-71633760D01*
X83529932Y-71437410D01*
X83598026Y-71227835D01*
X83632500Y-71010181D01*
X83632500Y-70250000D01*
X82780982Y-70250000D01*
X82791611Y-70231591D01*
X82832500Y-70078991D01*
X82832500Y-69921009D01*
X82791611Y-69768409D01*
X82780982Y-69750000D01*
X83632500Y-69750000D01*
X83632500Y-68989818D01*
X83598026Y-68772164D01*
X83529932Y-68562589D01*
X83477399Y-68459487D01*
X83450603Y-68406898D01*
X84532000Y-68406898D01*
X84532000Y-71593102D01*
X84537626Y-71639954D01*
X84542622Y-71681561D01*
X84598139Y-71822343D01*
X84689577Y-71942922D01*
X84810156Y-72034360D01*
X84810157Y-72034360D01*
X84810158Y-72034361D01*
X84950936Y-72089877D01*
X85039398Y-72100500D01*
X85039403Y-72100500D01*
X86425597Y-72100500D01*
X86425602Y-72100500D01*
X86514064Y-72089877D01*
X86654842Y-72034361D01*
X86775422Y-71942922D01*
X86866861Y-71822342D01*
X86922377Y-71681564D01*
X86933000Y-71593102D01*
X86933000Y-69881902D01*
X95999500Y-69881902D01*
X95999500Y-70118097D01*
X96036446Y-70351368D01*
X96109433Y-70575996D01*
X96203548Y-70760705D01*
X96216657Y-70786433D01*
X96355483Y-70977510D01*
X96522490Y-71144517D01*
X96713567Y-71283343D01*
X96812991Y-71334002D01*
X96924003Y-71390566D01*
X96924005Y-71390566D01*
X96924008Y-71390568D01*
X97044412Y-71429689D01*
X97148631Y-71463553D01*
X97381903Y-71500500D01*
X97381908Y-71500500D01*
X97618097Y-71500500D01*
X97851368Y-71463553D01*
X98075992Y-71390568D01*
X98286433Y-71283343D01*
X98477510Y-71144517D01*
X98644517Y-70977510D01*
X98783343Y-70786433D01*
X98890568Y-70575992D01*
X98963553Y-70351368D01*
X98966596Y-70332156D01*
X99000500Y-70118097D01*
X99000500Y-69881902D01*
X100999500Y-69881902D01*
X100999500Y-70118097D01*
X101036446Y-70351368D01*
X101109433Y-70575996D01*
X101203548Y-70760705D01*
X101216657Y-70786433D01*
X101355483Y-70977510D01*
X101522490Y-71144517D01*
X101713567Y-71283343D01*
X101812991Y-71334002D01*
X101924003Y-71390566D01*
X101924005Y-71390566D01*
X101924008Y-71390568D01*
X102044412Y-71429689D01*
X102148631Y-71463553D01*
X102381903Y-71500500D01*
X102381908Y-71500500D01*
X102618097Y-71500500D01*
X102851368Y-71463553D01*
X103075992Y-71390568D01*
X103286433Y-71283343D01*
X103477510Y-71144517D01*
X103644517Y-70977510D01*
X103783343Y-70786433D01*
X103890568Y-70575992D01*
X103962330Y-70355131D01*
X125249500Y-70355131D01*
X125249500Y-72144856D01*
X125249502Y-72144882D01*
X125252413Y-72169987D01*
X125252415Y-72169991D01*
X125297793Y-72272764D01*
X125297794Y-72272765D01*
X125377235Y-72352206D01*
X125480009Y-72397585D01*
X125505135Y-72400500D01*
X127294864Y-72400499D01*
X127294879Y-72400497D01*
X127294882Y-72400497D01*
X127319987Y-72397586D01*
X127319988Y-72397585D01*
X127319991Y-72397585D01*
X127422765Y-72352206D01*
X127502206Y-72272765D01*
X127547585Y-72169991D01*
X127550500Y-72144865D01*
X127550499Y-72013076D01*
X127570183Y-71946040D01*
X127622987Y-71900285D01*
X127692145Y-71890341D01*
X127755701Y-71919365D01*
X127782500Y-71953605D01*
X127782832Y-71953402D01*
X127784603Y-71956292D01*
X127784977Y-71956770D01*
X127785377Y-71957555D01*
X127910272Y-72129459D01*
X127910276Y-72129464D01*
X128060535Y-72279723D01*
X128060540Y-72279727D01*
X128232442Y-72404620D01*
X128421782Y-72501095D01*
X128623871Y-72566757D01*
X128690000Y-72577231D01*
X128690000Y-71683012D01*
X128747007Y-71715925D01*
X128874174Y-71750000D01*
X129005826Y-71750000D01*
X129132993Y-71715925D01*
X129190000Y-71683012D01*
X129190000Y-72577230D01*
X129256126Y-72566757D01*
X129256129Y-72566757D01*
X129458217Y-72501095D01*
X129647557Y-72404620D01*
X129819459Y-72279727D01*
X129819464Y-72279723D01*
X129969723Y-72129464D01*
X129969727Y-72129459D01*
X130094620Y-71957557D01*
X130191095Y-71768217D01*
X130200492Y-71739295D01*
X130239928Y-71681618D01*
X130304286Y-71654419D01*
X130373133Y-71666331D01*
X130424610Y-71713574D01*
X130428908Y-71721314D01*
X130496004Y-71852995D01*
X130602441Y-71999494D01*
X130602445Y-71999499D01*
X130730500Y-72127554D01*
X130730505Y-72127558D01*
X130858287Y-72220396D01*
X130877006Y-72233996D01*
X130953094Y-72272765D01*
X131038360Y-72316211D01*
X131038363Y-72316212D01*
X131115304Y-72341211D01*
X131210591Y-72372171D01*
X131293429Y-72385291D01*
X131389449Y-72400500D01*
X131389454Y-72400500D01*
X131570551Y-72400500D01*
X131657259Y-72386765D01*
X131749409Y-72372171D01*
X131921639Y-72316211D01*
X132082994Y-72233996D01*
X132229501Y-72127553D01*
X132357553Y-71999501D01*
X132463996Y-71852994D01*
X132546211Y-71691639D01*
X132602171Y-71519409D01*
X132616422Y-71429425D01*
X132627527Y-71359321D01*
X132657456Y-71296186D01*
X132716768Y-71259255D01*
X132786630Y-71260253D01*
X132844863Y-71298863D01*
X132872473Y-71359321D01*
X132897829Y-71519410D01*
X132953787Y-71691636D01*
X132953788Y-71691639D01*
X132996264Y-71775000D01*
X133020386Y-71822343D01*
X133036006Y-71852997D01*
X133142441Y-71999494D01*
X133142445Y-71999499D01*
X133270500Y-72127554D01*
X133270505Y-72127558D01*
X133398287Y-72220396D01*
X133417006Y-72233996D01*
X133493094Y-72272765D01*
X133578360Y-72316211D01*
X133578363Y-72316212D01*
X133655304Y-72341211D01*
X133750591Y-72372171D01*
X133833429Y-72385291D01*
X133929449Y-72400500D01*
X133929454Y-72400500D01*
X134110551Y-72400500D01*
X134197259Y-72386765D01*
X134289409Y-72372171D01*
X134461639Y-72316211D01*
X134622994Y-72233996D01*
X134769501Y-72127553D01*
X134897553Y-71999501D01*
X135003996Y-71852994D01*
X135086211Y-71691639D01*
X135142171Y-71519409D01*
X135156765Y-71427259D01*
X135170500Y-71340551D01*
X135170500Y-71159448D01*
X135154019Y-71055397D01*
X135142171Y-70980591D01*
X135091207Y-70823737D01*
X135086212Y-70808363D01*
X135086211Y-70808360D01*
X135047191Y-70731780D01*
X135003996Y-70647006D01*
X134961320Y-70588267D01*
X134897558Y-70500505D01*
X134897554Y-70500500D01*
X134777185Y-70380131D01*
X142349500Y-70380131D01*
X142349500Y-72169856D01*
X142349502Y-72169882D01*
X142352413Y-72194987D01*
X142352415Y-72194991D01*
X142397793Y-72297764D01*
X142397794Y-72297765D01*
X142477235Y-72377206D01*
X142580009Y-72422585D01*
X142605135Y-72425500D01*
X144394864Y-72425499D01*
X144394879Y-72425497D01*
X144394882Y-72425497D01*
X144419987Y-72422586D01*
X144419988Y-72422585D01*
X144419991Y-72422585D01*
X144522765Y-72377206D01*
X144602206Y-72297765D01*
X144647585Y-72194991D01*
X144650500Y-72169865D01*
X144650499Y-71432125D01*
X144670183Y-71365089D01*
X144722987Y-71319334D01*
X144792146Y-71309390D01*
X144855702Y-71338415D01*
X144893476Y-71397193D01*
X144896972Y-71412729D01*
X144917829Y-71544410D01*
X144973787Y-71716636D01*
X144973788Y-71716639D01*
X145022399Y-71812041D01*
X145043267Y-71852997D01*
X145056006Y-71877997D01*
X145162441Y-72024494D01*
X145162445Y-72024499D01*
X145290500Y-72152554D01*
X145290505Y-72152558D01*
X145402592Y-72233993D01*
X145437006Y-72258996D01*
X145513094Y-72297765D01*
X145598360Y-72341211D01*
X145598363Y-72341212D01*
X145684476Y-72369191D01*
X145770591Y-72397171D01*
X145853429Y-72410291D01*
X145949449Y-72425500D01*
X145949454Y-72425500D01*
X146130551Y-72425500D01*
X146217259Y-72411765D01*
X146309409Y-72397171D01*
X146481639Y-72341211D01*
X146642994Y-72258996D01*
X146789501Y-72152553D01*
X146917553Y-72024501D01*
X147023996Y-71877994D01*
X147091090Y-71746314D01*
X147139065Y-71695519D01*
X147206886Y-71678724D01*
X147273021Y-71701262D01*
X147316472Y-71755977D01*
X147319506Y-71764292D01*
X147328904Y-71793217D01*
X147425379Y-71982557D01*
X147550272Y-72154459D01*
X147550276Y-72154464D01*
X147700535Y-72304723D01*
X147700540Y-72304727D01*
X147872442Y-72429620D01*
X148061782Y-72526095D01*
X148263871Y-72591757D01*
X148330000Y-72602231D01*
X148330000Y-71708012D01*
X148387007Y-71740925D01*
X148514174Y-71775000D01*
X148645826Y-71775000D01*
X148772993Y-71740925D01*
X148830000Y-71708012D01*
X148830000Y-72602230D01*
X148896126Y-72591757D01*
X148896129Y-72591757D01*
X149098217Y-72526095D01*
X149287557Y-72429620D01*
X149459459Y-72304727D01*
X149459464Y-72304723D01*
X149609723Y-72154464D01*
X149609727Y-72154459D01*
X149734620Y-71982557D01*
X149831095Y-71793217D01*
X149840492Y-71764295D01*
X149879928Y-71706618D01*
X149944286Y-71679419D01*
X150013133Y-71691331D01*
X150064610Y-71738574D01*
X150068908Y-71746314D01*
X150136004Y-71877995D01*
X150242441Y-72024494D01*
X150242445Y-72024499D01*
X150370500Y-72152554D01*
X150370505Y-72152558D01*
X150482592Y-72233993D01*
X150517006Y-72258996D01*
X150593094Y-72297765D01*
X150678360Y-72341211D01*
X150678363Y-72341212D01*
X150764476Y-72369191D01*
X150850591Y-72397171D01*
X150933429Y-72410291D01*
X151029449Y-72425500D01*
X151029454Y-72425500D01*
X151210551Y-72425500D01*
X151297259Y-72411765D01*
X151389409Y-72397171D01*
X151561639Y-72341211D01*
X151722994Y-72258996D01*
X151869501Y-72152553D01*
X151997553Y-72024501D01*
X152103996Y-71877994D01*
X152186211Y-71716639D01*
X152242171Y-71544409D01*
X152259118Y-71437410D01*
X152270500Y-71365551D01*
X152270500Y-71184448D01*
X152250314Y-71057007D01*
X152242171Y-71005591D01*
X152198530Y-70871275D01*
X152186212Y-70833363D01*
X152186211Y-70833360D01*
X152143736Y-70750000D01*
X152103996Y-70672006D01*
X152051681Y-70600000D01*
X151997558Y-70525505D01*
X151997554Y-70525500D01*
X151869499Y-70397445D01*
X151869494Y-70397441D01*
X151722997Y-70291006D01*
X151722996Y-70291005D01*
X151722994Y-70291004D01*
X151646906Y-70252235D01*
X151561639Y-70208788D01*
X151561636Y-70208787D01*
X151389410Y-70152829D01*
X151210551Y-70124500D01*
X151210546Y-70124500D01*
X151029454Y-70124500D01*
X151029449Y-70124500D01*
X150850589Y-70152829D01*
X150678363Y-70208787D01*
X150678360Y-70208788D01*
X150517002Y-70291006D01*
X150370505Y-70397441D01*
X150370500Y-70397445D01*
X150242445Y-70525500D01*
X150242441Y-70525505D01*
X150136004Y-70672004D01*
X150068908Y-70803685D01*
X150020933Y-70854480D01*
X149953112Y-70871275D01*
X149886977Y-70848737D01*
X149843527Y-70794021D01*
X149840492Y-70785705D01*
X149831094Y-70756780D01*
X149734620Y-70567442D01*
X149609727Y-70395540D01*
X149609723Y-70395535D01*
X149459464Y-70245276D01*
X149459459Y-70245272D01*
X149287557Y-70120379D01*
X149098215Y-70023903D01*
X148896124Y-69958241D01*
X148830000Y-69947768D01*
X148830000Y-70841988D01*
X148772993Y-70809075D01*
X148645826Y-70775000D01*
X148514174Y-70775000D01*
X148387007Y-70809075D01*
X148330000Y-70841988D01*
X148330000Y-69947768D01*
X148329999Y-69947768D01*
X148263875Y-69958241D01*
X148061784Y-70023903D01*
X147872442Y-70120379D01*
X147700540Y-70245272D01*
X147700535Y-70245276D01*
X147550276Y-70395535D01*
X147550272Y-70395540D01*
X147425379Y-70567442D01*
X147328905Y-70756781D01*
X147319506Y-70785708D01*
X147280068Y-70843383D01*
X147215709Y-70870581D01*
X147146862Y-70858666D01*
X147095387Y-70811421D01*
X147091090Y-70803684D01*
X147063736Y-70750000D01*
X147023996Y-70672006D01*
X146971681Y-70600000D01*
X146917558Y-70525505D01*
X146917554Y-70525500D01*
X146789499Y-70397445D01*
X146789494Y-70397441D01*
X146642997Y-70291006D01*
X146642996Y-70291005D01*
X146642994Y-70291004D01*
X146566906Y-70252235D01*
X146481639Y-70208788D01*
X146481636Y-70208787D01*
X146309410Y-70152829D01*
X146130551Y-70124500D01*
X146130546Y-70124500D01*
X145949454Y-70124500D01*
X145949449Y-70124500D01*
X145770589Y-70152829D01*
X145598363Y-70208787D01*
X145598360Y-70208788D01*
X145437002Y-70291006D01*
X145290505Y-70397441D01*
X145290500Y-70397445D01*
X145162445Y-70525500D01*
X145162441Y-70525505D01*
X145056006Y-70672002D01*
X144973788Y-70833360D01*
X144973787Y-70833363D01*
X144917829Y-71005589D01*
X144896972Y-71137271D01*
X144867042Y-71200405D01*
X144807731Y-71237336D01*
X144737868Y-71236338D01*
X144679636Y-71197728D01*
X144651522Y-71133764D01*
X144650499Y-71117872D01*
X144650499Y-70380143D01*
X144650499Y-70380136D01*
X144650497Y-70380117D01*
X144647586Y-70355012D01*
X144647585Y-70355010D01*
X144647585Y-70355009D01*
X144602206Y-70252235D01*
X144522765Y-70172794D01*
X144522763Y-70172793D01*
X144419992Y-70127415D01*
X144394865Y-70124500D01*
X142605143Y-70124500D01*
X142605117Y-70124502D01*
X142580012Y-70127413D01*
X142580008Y-70127415D01*
X142477235Y-70172793D01*
X142397794Y-70252234D01*
X142352415Y-70355006D01*
X142352415Y-70355008D01*
X142349500Y-70380131D01*
X134777185Y-70380131D01*
X134769499Y-70372445D01*
X134769494Y-70372441D01*
X134622997Y-70266006D01*
X134622996Y-70266005D01*
X134622994Y-70266004D01*
X134546906Y-70227235D01*
X134461639Y-70183788D01*
X134461636Y-70183787D01*
X134289410Y-70127829D01*
X134110551Y-70099500D01*
X134110546Y-70099500D01*
X133929454Y-70099500D01*
X133929449Y-70099500D01*
X133750589Y-70127829D01*
X133578363Y-70183787D01*
X133578360Y-70183788D01*
X133417002Y-70266006D01*
X133270505Y-70372441D01*
X133270500Y-70372445D01*
X133142445Y-70500500D01*
X133142441Y-70500505D01*
X133036006Y-70647002D01*
X132953788Y-70808360D01*
X132953787Y-70808363D01*
X132897829Y-70980589D01*
X132872473Y-71140678D01*
X132842544Y-71203813D01*
X132783232Y-71240744D01*
X132713369Y-71239746D01*
X132655137Y-71201136D01*
X132627527Y-71140678D01*
X132613740Y-71053639D01*
X132602171Y-70980591D01*
X132551207Y-70823737D01*
X132546212Y-70808363D01*
X132546211Y-70808360D01*
X132507191Y-70731780D01*
X132463996Y-70647006D01*
X132421320Y-70588267D01*
X132357558Y-70500505D01*
X132357554Y-70500500D01*
X132229499Y-70372445D01*
X132229494Y-70372441D01*
X132082997Y-70266006D01*
X132082996Y-70266005D01*
X132082994Y-70266004D01*
X132006906Y-70227235D01*
X131921639Y-70183788D01*
X131921636Y-70183787D01*
X131749410Y-70127829D01*
X131570551Y-70099500D01*
X131570546Y-70099500D01*
X131389454Y-70099500D01*
X131389449Y-70099500D01*
X131210589Y-70127829D01*
X131038363Y-70183787D01*
X131038360Y-70183788D01*
X130877002Y-70266006D01*
X130730505Y-70372441D01*
X130730500Y-70372445D01*
X130602445Y-70500500D01*
X130602441Y-70500505D01*
X130496004Y-70647004D01*
X130428908Y-70778685D01*
X130380933Y-70829480D01*
X130313112Y-70846275D01*
X130246977Y-70823737D01*
X130203527Y-70769021D01*
X130200492Y-70760705D01*
X130191094Y-70731780D01*
X130094620Y-70542442D01*
X129969727Y-70370540D01*
X129969723Y-70370535D01*
X129819464Y-70220276D01*
X129819459Y-70220272D01*
X129647557Y-70095379D01*
X129458215Y-69998903D01*
X129256124Y-69933241D01*
X129190000Y-69922768D01*
X129190000Y-70816988D01*
X129132993Y-70784075D01*
X129005826Y-70750000D01*
X128874174Y-70750000D01*
X128747007Y-70784075D01*
X128690000Y-70816988D01*
X128690000Y-69922768D01*
X128689999Y-69922768D01*
X128623875Y-69933241D01*
X128421784Y-69998903D01*
X128232442Y-70095379D01*
X128060540Y-70220272D01*
X128060535Y-70220276D01*
X127910276Y-70370535D01*
X127910272Y-70370540D01*
X127785376Y-70542445D01*
X127784981Y-70543222D01*
X127784752Y-70543463D01*
X127782832Y-70546598D01*
X127782173Y-70546194D01*
X127737004Y-70594016D01*
X127669183Y-70610808D01*
X127603049Y-70588267D01*
X127559600Y-70533550D01*
X127550499Y-70486922D01*
X127550499Y-70355143D01*
X127550499Y-70355136D01*
X127550062Y-70351368D01*
X127547586Y-70330012D01*
X127547585Y-70330010D01*
X127547585Y-70330009D01*
X127502206Y-70227235D01*
X127422765Y-70147794D01*
X127422763Y-70147793D01*
X127319992Y-70102415D01*
X127294865Y-70099500D01*
X125505143Y-70099500D01*
X125505117Y-70099502D01*
X125480012Y-70102413D01*
X125480008Y-70102415D01*
X125377235Y-70147793D01*
X125297794Y-70227234D01*
X125252415Y-70330006D01*
X125252415Y-70330008D01*
X125249500Y-70355131D01*
X103962330Y-70355131D01*
X103963553Y-70351368D01*
X103966596Y-70332156D01*
X104000500Y-70118097D01*
X104000500Y-69881902D01*
X103963553Y-69648631D01*
X103890566Y-69424003D01*
X103783342Y-69213566D01*
X103644517Y-69022490D01*
X103477510Y-68855483D01*
X103286433Y-68716657D01*
X103075996Y-68609433D01*
X102851368Y-68536446D01*
X102618097Y-68499500D01*
X102618092Y-68499500D01*
X102381908Y-68499500D01*
X102381903Y-68499500D01*
X102148631Y-68536446D01*
X101924003Y-68609433D01*
X101713566Y-68716657D01*
X101637168Y-68772164D01*
X101522490Y-68855483D01*
X101522488Y-68855485D01*
X101522487Y-68855485D01*
X101355485Y-69022487D01*
X101355485Y-69022488D01*
X101355483Y-69022490D01*
X101295862Y-69104550D01*
X101216657Y-69213566D01*
X101109433Y-69424003D01*
X101036446Y-69648631D01*
X100999500Y-69881902D01*
X99000500Y-69881902D01*
X98963553Y-69648631D01*
X98890566Y-69424003D01*
X98783342Y-69213566D01*
X98644517Y-69022490D01*
X98477510Y-68855483D01*
X98286433Y-68716657D01*
X98075996Y-68609433D01*
X97851368Y-68536446D01*
X97618097Y-68499500D01*
X97618092Y-68499500D01*
X97381908Y-68499500D01*
X97381903Y-68499500D01*
X97148631Y-68536446D01*
X96924003Y-68609433D01*
X96713566Y-68716657D01*
X96637168Y-68772164D01*
X96522490Y-68855483D01*
X96522488Y-68855485D01*
X96522487Y-68855485D01*
X96355485Y-69022487D01*
X96355485Y-69022488D01*
X96355483Y-69022490D01*
X96295862Y-69104550D01*
X96216657Y-69213566D01*
X96109433Y-69424003D01*
X96036446Y-69648631D01*
X95999500Y-69881902D01*
X86933000Y-69881902D01*
X86933000Y-68406898D01*
X86922377Y-68318436D01*
X86866861Y-68177658D01*
X86866860Y-68177657D01*
X86866860Y-68177656D01*
X86775422Y-68057077D01*
X86654843Y-67965639D01*
X86514061Y-67910122D01*
X86468426Y-67904642D01*
X86425602Y-67899500D01*
X85039398Y-67899500D01*
X85000353Y-67904188D01*
X84950938Y-67910122D01*
X84810156Y-67965639D01*
X84689577Y-68057077D01*
X84598139Y-68177656D01*
X84542622Y-68318438D01*
X84536883Y-68366239D01*
X84532000Y-68406898D01*
X83450603Y-68406898D01*
X83429886Y-68366239D01*
X83300357Y-68187958D01*
X83144541Y-68032142D01*
X82966260Y-67902613D01*
X82769910Y-67802567D01*
X82560336Y-67734473D01*
X82482500Y-67722144D01*
X82482500Y-69451517D01*
X82464091Y-69440889D01*
X82311491Y-69400000D01*
X82153509Y-69400000D01*
X82000909Y-69440889D01*
X81982500Y-69451517D01*
X81982500Y-67722144D01*
X81904664Y-67734473D01*
X81904661Y-67734473D01*
X81695089Y-67802567D01*
X81498739Y-67902613D01*
X81320458Y-68032142D01*
X81164642Y-68187958D01*
X81035113Y-68366239D01*
X80935067Y-68562589D01*
X80866973Y-68772164D01*
X80832500Y-68989818D01*
X66000500Y-68989818D01*
X66000500Y-63250000D01*
X158847769Y-63250000D01*
X159741988Y-63250000D01*
X159709075Y-63307007D01*
X159675000Y-63434174D01*
X159675000Y-63565826D01*
X159709075Y-63692993D01*
X159741988Y-63750000D01*
X158847769Y-63750000D01*
X158858242Y-63816126D01*
X158858242Y-63816129D01*
X158923904Y-64018217D01*
X159020379Y-64207557D01*
X159145272Y-64379459D01*
X159145276Y-64379464D01*
X159295535Y-64529723D01*
X159295540Y-64529727D01*
X159467442Y-64654620D01*
X159656780Y-64751094D01*
X159685705Y-64760492D01*
X159743381Y-64799929D01*
X159770580Y-64864287D01*
X159758667Y-64933134D01*
X159711424Y-64984610D01*
X159703685Y-64988908D01*
X159572004Y-65056004D01*
X159425505Y-65162441D01*
X159425500Y-65162445D01*
X159297445Y-65290500D01*
X159297441Y-65290505D01*
X159191006Y-65437002D01*
X159108788Y-65598360D01*
X159108787Y-65598363D01*
X159052829Y-65770589D01*
X159024500Y-65949448D01*
X159024500Y-66130551D01*
X159052829Y-66309410D01*
X159108787Y-66481636D01*
X159108788Y-66481639D01*
X159191006Y-66642997D01*
X159297441Y-66789494D01*
X159297445Y-66789499D01*
X159425500Y-66917554D01*
X159425505Y-66917558D01*
X159553287Y-67010396D01*
X159572006Y-67023996D01*
X159677484Y-67077740D01*
X159733360Y-67106211D01*
X159733363Y-67106212D01*
X159819476Y-67134191D01*
X159905591Y-67162171D01*
X159978639Y-67173740D01*
X160065678Y-67187527D01*
X160128813Y-67217456D01*
X160165744Y-67276768D01*
X160164746Y-67346631D01*
X160126136Y-67404863D01*
X160065678Y-67432473D01*
X159905589Y-67457829D01*
X159733363Y-67513787D01*
X159733360Y-67513788D01*
X159572002Y-67596006D01*
X159425505Y-67702441D01*
X159425500Y-67702445D01*
X159297445Y-67830500D01*
X159297441Y-67830505D01*
X159191006Y-67977002D01*
X159108788Y-68138360D01*
X159108787Y-68138363D01*
X159052829Y-68310589D01*
X159024500Y-68489448D01*
X159024500Y-68670551D01*
X159052829Y-68849410D01*
X159108787Y-69021636D01*
X159108788Y-69021639D01*
X159191006Y-69182997D01*
X159297441Y-69329494D01*
X159297445Y-69329499D01*
X159425500Y-69457554D01*
X159425505Y-69457558D01*
X159553287Y-69550396D01*
X159572006Y-69563996D01*
X159677484Y-69617740D01*
X159733360Y-69646211D01*
X159733363Y-69646212D01*
X159819476Y-69674191D01*
X159905591Y-69702171D01*
X160009716Y-69718662D01*
X160037270Y-69723027D01*
X160100405Y-69752956D01*
X160137336Y-69812268D01*
X160136338Y-69882130D01*
X160097728Y-69940363D01*
X160033765Y-69968477D01*
X160017872Y-69969500D01*
X159280143Y-69969500D01*
X159280117Y-69969502D01*
X159255012Y-69972413D01*
X159255008Y-69972415D01*
X159152235Y-70017793D01*
X159072794Y-70097234D01*
X159027415Y-70200006D01*
X159027415Y-70200008D01*
X159024500Y-70225131D01*
X159024500Y-72014856D01*
X159024502Y-72014882D01*
X159027413Y-72039987D01*
X159027415Y-72039991D01*
X159072793Y-72142764D01*
X159072794Y-72142765D01*
X159152235Y-72222206D01*
X159255009Y-72267585D01*
X159280135Y-72270500D01*
X161069864Y-72270499D01*
X161069879Y-72270497D01*
X161069882Y-72270497D01*
X161094987Y-72267586D01*
X161094988Y-72267585D01*
X161094991Y-72267585D01*
X161197765Y-72222206D01*
X161277206Y-72142765D01*
X161322585Y-72039991D01*
X161325500Y-72014865D01*
X161325499Y-70225136D01*
X161325497Y-70225117D01*
X161322586Y-70200012D01*
X161322585Y-70200010D01*
X161322585Y-70200009D01*
X161277206Y-70097235D01*
X161197765Y-70017794D01*
X161154981Y-69998903D01*
X161094992Y-69972415D01*
X161069868Y-69969500D01*
X160332128Y-69969500D01*
X160265089Y-69949815D01*
X160219334Y-69897011D01*
X160209390Y-69827853D01*
X160238415Y-69764297D01*
X160297193Y-69726523D01*
X160312730Y-69723027D01*
X160336014Y-69719338D01*
X160444409Y-69702171D01*
X160616639Y-69646211D01*
X160777994Y-69563996D01*
X160924501Y-69457553D01*
X161052553Y-69329501D01*
X161158996Y-69182994D01*
X161241211Y-69021639D01*
X161297171Y-68849409D01*
X161318197Y-68716657D01*
X161325500Y-68670551D01*
X161325500Y-68489448D01*
X161305985Y-68366239D01*
X161297171Y-68310591D01*
X161241211Y-68138361D01*
X161241211Y-68138360D01*
X161187089Y-68032142D01*
X161158996Y-67977006D01*
X161102685Y-67899500D01*
X161052558Y-67830505D01*
X161052554Y-67830500D01*
X160924499Y-67702445D01*
X160924494Y-67702441D01*
X160777997Y-67596006D01*
X160777996Y-67596005D01*
X160777994Y-67596004D01*
X160726300Y-67569664D01*
X160616639Y-67513788D01*
X160616636Y-67513787D01*
X160444410Y-67457829D01*
X160284321Y-67432473D01*
X160221186Y-67402544D01*
X160184255Y-67343232D01*
X160185253Y-67273370D01*
X160223863Y-67215137D01*
X160284321Y-67187527D01*
X160354425Y-67176422D01*
X160444409Y-67162171D01*
X160616639Y-67106211D01*
X160777994Y-67023996D01*
X160924501Y-66917553D01*
X161052553Y-66789501D01*
X161158996Y-66642994D01*
X161241211Y-66481639D01*
X161297171Y-66309409D01*
X161311765Y-66217259D01*
X161325500Y-66130551D01*
X161325500Y-65949448D01*
X161309019Y-65845397D01*
X161297171Y-65770591D01*
X161241211Y-65598361D01*
X161241211Y-65598360D01*
X161212740Y-65542484D01*
X161158996Y-65437006D01*
X161145396Y-65418287D01*
X161052558Y-65290505D01*
X161052554Y-65290500D01*
X160924499Y-65162445D01*
X160924494Y-65162441D01*
X160777995Y-65056004D01*
X160646314Y-64988908D01*
X160595519Y-64940934D01*
X160578724Y-64873113D01*
X160601262Y-64806978D01*
X160655977Y-64763527D01*
X160664295Y-64760492D01*
X160693217Y-64751095D01*
X160882557Y-64654620D01*
X161054459Y-64529727D01*
X161054464Y-64529723D01*
X161204723Y-64379464D01*
X161204727Y-64379459D01*
X161329620Y-64207557D01*
X161426095Y-64018217D01*
X161491757Y-63816129D01*
X161491757Y-63816126D01*
X161502231Y-63750000D01*
X160608012Y-63750000D01*
X160640925Y-63692993D01*
X160675000Y-63565826D01*
X160675000Y-63434174D01*
X160640925Y-63307007D01*
X160608012Y-63250000D01*
X161502231Y-63250000D01*
X161491757Y-63183873D01*
X161491757Y-63183870D01*
X161426095Y-62981782D01*
X161329620Y-62792442D01*
X161204727Y-62620540D01*
X161204723Y-62620535D01*
X161054464Y-62470276D01*
X161054459Y-62470272D01*
X160882557Y-62345379D01*
X160693215Y-62248903D01*
X160491124Y-62183241D01*
X160425000Y-62172768D01*
X160425000Y-63066988D01*
X160367993Y-63034075D01*
X160240826Y-63000000D01*
X160109174Y-63000000D01*
X159982007Y-63034075D01*
X159925000Y-63066988D01*
X159925000Y-62172768D01*
X159924999Y-62172768D01*
X159858875Y-62183241D01*
X159656784Y-62248903D01*
X159467442Y-62345379D01*
X159295540Y-62470272D01*
X159295535Y-62470276D01*
X159145276Y-62620535D01*
X159145272Y-62620540D01*
X159020379Y-62792442D01*
X158923904Y-62981782D01*
X158858242Y-63183870D01*
X158858242Y-63183873D01*
X158847769Y-63250000D01*
X66000500Y-63250000D01*
X66000500Y-59862808D01*
X82699500Y-59862808D01*
X82699500Y-61952533D01*
X82699502Y-61952559D01*
X82702413Y-61977664D01*
X82702415Y-61977668D01*
X82747793Y-62080441D01*
X82747794Y-62080442D01*
X82827235Y-62159883D01*
X82930009Y-62205262D01*
X82955135Y-62208177D01*
X85044864Y-62208176D01*
X85044879Y-62208174D01*
X85044882Y-62208174D01*
X85069987Y-62205263D01*
X85069988Y-62205262D01*
X85069991Y-62205262D01*
X85172765Y-62159883D01*
X85252206Y-62080442D01*
X85297585Y-61977668D01*
X85300500Y-61952542D01*
X85300499Y-59862813D01*
X85300499Y-59862812D01*
X85300499Y-59862808D01*
X98699500Y-59862808D01*
X98699500Y-61952533D01*
X98699502Y-61952559D01*
X98702413Y-61977664D01*
X98702415Y-61977668D01*
X98747793Y-62080441D01*
X98747794Y-62080442D01*
X98827235Y-62159883D01*
X98930009Y-62205262D01*
X98955135Y-62208177D01*
X101044864Y-62208176D01*
X101044879Y-62208174D01*
X101044882Y-62208174D01*
X101069987Y-62205263D01*
X101069988Y-62205262D01*
X101069991Y-62205262D01*
X101172765Y-62159883D01*
X101252206Y-62080442D01*
X101297585Y-61977668D01*
X101300500Y-61952542D01*
X101300499Y-59862813D01*
X101300497Y-59862794D01*
X101297586Y-59837689D01*
X101297585Y-59837687D01*
X101297585Y-59837686D01*
X101252206Y-59734912D01*
X101172765Y-59655471D01*
X101172763Y-59655470D01*
X101069992Y-59610092D01*
X101044865Y-59607177D01*
X98955143Y-59607177D01*
X98955117Y-59607179D01*
X98930012Y-59610090D01*
X98930008Y-59610092D01*
X98827235Y-59655470D01*
X98747794Y-59734911D01*
X98702415Y-59837683D01*
X98702415Y-59837685D01*
X98699500Y-59862808D01*
X85300499Y-59862808D01*
X85300499Y-59862807D01*
X85297586Y-59837689D01*
X85297585Y-59837687D01*
X85297585Y-59837686D01*
X85252206Y-59734912D01*
X85172765Y-59655471D01*
X85172763Y-59655470D01*
X85069992Y-59610092D01*
X85044865Y-59607177D01*
X82955143Y-59607177D01*
X82955117Y-59607179D01*
X82930012Y-59610090D01*
X82930008Y-59610092D01*
X82827235Y-59655470D01*
X82747794Y-59734911D01*
X82702415Y-59837683D01*
X82702415Y-59837685D01*
X82699500Y-59862808D01*
X66000500Y-59862808D01*
X66000500Y-55789624D01*
X82500000Y-55789624D01*
X82500000Y-56025729D01*
X82536934Y-56258924D01*
X82609897Y-56483479D01*
X82717087Y-56693851D01*
X82777338Y-56776781D01*
X82777340Y-56776782D01*
X83517037Y-56037085D01*
X83534075Y-56100670D01*
X83599901Y-56214684D01*
X83692993Y-56307776D01*
X83807007Y-56373602D01*
X83870590Y-56390639D01*
X83130893Y-57130335D01*
X83213828Y-57190591D01*
X83424197Y-57297779D01*
X83648752Y-57370742D01*
X83648751Y-57370742D01*
X83881948Y-57407677D01*
X84118052Y-57407677D01*
X84351247Y-57370742D01*
X84575802Y-57297779D01*
X84786163Y-57190595D01*
X84786169Y-57190591D01*
X84869104Y-57130335D01*
X84869105Y-57130335D01*
X84129408Y-56390639D01*
X84192993Y-56373602D01*
X84307007Y-56307776D01*
X84400099Y-56214684D01*
X84465925Y-56100670D01*
X84482962Y-56037086D01*
X85222658Y-56776782D01*
X85222658Y-56776781D01*
X85282914Y-56693846D01*
X85282918Y-56693840D01*
X85390102Y-56483479D01*
X85463065Y-56258924D01*
X85500000Y-56025729D01*
X85500000Y-55789624D01*
X98500000Y-55789624D01*
X98500000Y-56025729D01*
X98536934Y-56258924D01*
X98609897Y-56483479D01*
X98717087Y-56693851D01*
X98777338Y-56776781D01*
X98777340Y-56776782D01*
X99517037Y-56037085D01*
X99534075Y-56100670D01*
X99599901Y-56214684D01*
X99692993Y-56307776D01*
X99807007Y-56373602D01*
X99870590Y-56390639D01*
X99130893Y-57130335D01*
X99213828Y-57190591D01*
X99424197Y-57297779D01*
X99648752Y-57370742D01*
X99648751Y-57370742D01*
X99881948Y-57407677D01*
X100118052Y-57407677D01*
X100351247Y-57370742D01*
X100562334Y-57302155D01*
X158825000Y-57302155D01*
X158825000Y-57950000D01*
X159741988Y-57950000D01*
X159709075Y-58007007D01*
X159675000Y-58134174D01*
X159675000Y-58265826D01*
X159709075Y-58392993D01*
X159741988Y-58450000D01*
X158825000Y-58450000D01*
X158825000Y-59097844D01*
X158831401Y-59157372D01*
X158831403Y-59157379D01*
X158881645Y-59292086D01*
X158881649Y-59292093D01*
X158967809Y-59407187D01*
X158967812Y-59407190D01*
X159082906Y-59493350D01*
X159082913Y-59493354D01*
X159217620Y-59543596D01*
X159217627Y-59543598D01*
X159277155Y-59549999D01*
X159277172Y-59550000D01*
X159925000Y-59550000D01*
X159925000Y-58633012D01*
X159982007Y-58665925D01*
X160109174Y-58700000D01*
X160240826Y-58700000D01*
X160367993Y-58665925D01*
X160425000Y-58633012D01*
X160425000Y-59550000D01*
X161072828Y-59550000D01*
X161072844Y-59549999D01*
X161132372Y-59543598D01*
X161132379Y-59543596D01*
X161267086Y-59493354D01*
X161267093Y-59493350D01*
X161382187Y-59407190D01*
X161382190Y-59407187D01*
X161468350Y-59292093D01*
X161468354Y-59292086D01*
X161518596Y-59157379D01*
X161518598Y-59157372D01*
X161524999Y-59097844D01*
X161525000Y-59097827D01*
X161525000Y-58450000D01*
X160608012Y-58450000D01*
X160640925Y-58392993D01*
X160675000Y-58265826D01*
X160675000Y-58134174D01*
X160640925Y-58007007D01*
X160608012Y-57950000D01*
X161525000Y-57950000D01*
X161525000Y-57302172D01*
X161524999Y-57302155D01*
X161518598Y-57242627D01*
X161518596Y-57242620D01*
X161468354Y-57107913D01*
X161468350Y-57107906D01*
X161382190Y-56992812D01*
X161382187Y-56992809D01*
X161267093Y-56906649D01*
X161267086Y-56906645D01*
X161132379Y-56856403D01*
X161132372Y-56856401D01*
X161072844Y-56850000D01*
X160876087Y-56850000D01*
X160809048Y-56830315D01*
X160763293Y-56777511D01*
X160753349Y-56708353D01*
X160782374Y-56644797D01*
X160803202Y-56625682D01*
X160924495Y-56537558D01*
X160924497Y-56537555D01*
X160924501Y-56537553D01*
X161052553Y-56409501D01*
X161158996Y-56262994D01*
X161241211Y-56101639D01*
X161297171Y-55929409D01*
X161319311Y-55789624D01*
X161325500Y-55750551D01*
X161325500Y-55569448D01*
X161299877Y-55407677D01*
X161297171Y-55390591D01*
X161241211Y-55218361D01*
X161241211Y-55218360D01*
X161191860Y-55121505D01*
X161158996Y-55057006D01*
X161145396Y-55038287D01*
X161052558Y-54910505D01*
X161052554Y-54910500D01*
X160924499Y-54782445D01*
X160924494Y-54782441D01*
X160777997Y-54676006D01*
X160777996Y-54676005D01*
X160777994Y-54676004D01*
X160726300Y-54649664D01*
X160616639Y-54593788D01*
X160616636Y-54593787D01*
X160444410Y-54537829D01*
X160284321Y-54512473D01*
X160221186Y-54482544D01*
X160184255Y-54423232D01*
X160185253Y-54353370D01*
X160223863Y-54295137D01*
X160284321Y-54267527D01*
X160354425Y-54256422D01*
X160444409Y-54242171D01*
X160616639Y-54186211D01*
X160777994Y-54103996D01*
X160924501Y-53997553D01*
X161052553Y-53869501D01*
X161158996Y-53722994D01*
X161241211Y-53561639D01*
X161297171Y-53389409D01*
X161311765Y-53297259D01*
X161325500Y-53210551D01*
X161325500Y-53029448D01*
X161309019Y-52925397D01*
X161297171Y-52850591D01*
X161241211Y-52678361D01*
X161241211Y-52678360D01*
X161212740Y-52622484D01*
X161158996Y-52517006D01*
X161145396Y-52498287D01*
X161052558Y-52370505D01*
X161052554Y-52370500D01*
X160924499Y-52242445D01*
X160924494Y-52242441D01*
X160777997Y-52136006D01*
X160777996Y-52136005D01*
X160777994Y-52136004D01*
X160726300Y-52109664D01*
X160616639Y-52053788D01*
X160616636Y-52053787D01*
X160444410Y-51997829D01*
X160284321Y-51972473D01*
X160221186Y-51942544D01*
X160184255Y-51883232D01*
X160185253Y-51813370D01*
X160223863Y-51755137D01*
X160284321Y-51727527D01*
X160354425Y-51716422D01*
X160444409Y-51702171D01*
X160616639Y-51646211D01*
X160777994Y-51563996D01*
X160924501Y-51457553D01*
X161052553Y-51329501D01*
X161158996Y-51182994D01*
X161241211Y-51021639D01*
X161297171Y-50849409D01*
X161311765Y-50757259D01*
X161325500Y-50670551D01*
X161325500Y-50489448D01*
X161309019Y-50385397D01*
X161297171Y-50310591D01*
X161241211Y-50138361D01*
X161241211Y-50138360D01*
X161212740Y-50082484D01*
X161158996Y-49977006D01*
X161145396Y-49958287D01*
X161052558Y-49830505D01*
X161052554Y-49830500D01*
X160924499Y-49702445D01*
X160924494Y-49702441D01*
X160777997Y-49596006D01*
X160777996Y-49596005D01*
X160777994Y-49596004D01*
X160726300Y-49569664D01*
X160616639Y-49513788D01*
X160616636Y-49513787D01*
X160444410Y-49457829D01*
X160284321Y-49432473D01*
X160221186Y-49402544D01*
X160184255Y-49343232D01*
X160185253Y-49273370D01*
X160223863Y-49215137D01*
X160284321Y-49187527D01*
X160354425Y-49176422D01*
X160444409Y-49162171D01*
X160616639Y-49106211D01*
X160777994Y-49023996D01*
X160924501Y-48917553D01*
X161052553Y-48789501D01*
X161158996Y-48642994D01*
X161241211Y-48481639D01*
X161297171Y-48309409D01*
X161325219Y-48132323D01*
X161325500Y-48130551D01*
X161325500Y-47949448D01*
X161309019Y-47845397D01*
X161297171Y-47770591D01*
X161252246Y-47632323D01*
X161241212Y-47598363D01*
X161241211Y-47598360D01*
X161198364Y-47514270D01*
X161158996Y-47437006D01*
X161077849Y-47325316D01*
X161052558Y-47290505D01*
X161052554Y-47290500D01*
X160924499Y-47162445D01*
X160924494Y-47162441D01*
X160777997Y-47056006D01*
X160777996Y-47056005D01*
X160777994Y-47056004D01*
X160726300Y-47029664D01*
X160616639Y-46973788D01*
X160616636Y-46973787D01*
X160444410Y-46917829D01*
X160284321Y-46892473D01*
X160221186Y-46862544D01*
X160184255Y-46803232D01*
X160185253Y-46733370D01*
X160223863Y-46675137D01*
X160284321Y-46647527D01*
X160354425Y-46636422D01*
X160444409Y-46622171D01*
X160616639Y-46566211D01*
X160777994Y-46483996D01*
X160924501Y-46377553D01*
X161052553Y-46249501D01*
X161158996Y-46102994D01*
X161241211Y-45941639D01*
X161297171Y-45769409D01*
X161311765Y-45677259D01*
X161325500Y-45590551D01*
X161325500Y-45409448D01*
X161309019Y-45305397D01*
X161297171Y-45230591D01*
X161241211Y-45058361D01*
X161241211Y-45058360D01*
X161212740Y-45002484D01*
X161158996Y-44897006D01*
X161145396Y-44878287D01*
X161052558Y-44750505D01*
X161052554Y-44750500D01*
X160924499Y-44622445D01*
X160924494Y-44622441D01*
X160777997Y-44516006D01*
X160777996Y-44516005D01*
X160777994Y-44516004D01*
X160726300Y-44489664D01*
X160616639Y-44433788D01*
X160616636Y-44433787D01*
X160444410Y-44377829D01*
X160284321Y-44352473D01*
X160221186Y-44322544D01*
X160184255Y-44263232D01*
X160185253Y-44193370D01*
X160223863Y-44135137D01*
X160284321Y-44107527D01*
X160354425Y-44096422D01*
X160444409Y-44082171D01*
X160616639Y-44026211D01*
X160777994Y-43943996D01*
X160924501Y-43837553D01*
X161052553Y-43709501D01*
X161158996Y-43562994D01*
X161241211Y-43401639D01*
X161297171Y-43229409D01*
X161311765Y-43137259D01*
X161325500Y-43050551D01*
X161325500Y-42869448D01*
X161309019Y-42765397D01*
X161297171Y-42690591D01*
X161241211Y-42518361D01*
X161241211Y-42518360D01*
X161212740Y-42462484D01*
X161158996Y-42357006D01*
X161145396Y-42338287D01*
X161052558Y-42210505D01*
X161052554Y-42210500D01*
X160924499Y-42082445D01*
X160924494Y-42082441D01*
X160777997Y-41976006D01*
X160777996Y-41976005D01*
X160777994Y-41976004D01*
X160726300Y-41949664D01*
X160616639Y-41893788D01*
X160616636Y-41893787D01*
X160444410Y-41837829D01*
X160265551Y-41809500D01*
X160265546Y-41809500D01*
X160084454Y-41809500D01*
X160084449Y-41809500D01*
X159905589Y-41837829D01*
X159733363Y-41893787D01*
X159733360Y-41893788D01*
X159572002Y-41976006D01*
X159425505Y-42082441D01*
X159425500Y-42082445D01*
X159297445Y-42210500D01*
X159297441Y-42210505D01*
X159191006Y-42357002D01*
X159108788Y-42518360D01*
X159108787Y-42518363D01*
X159052829Y-42690589D01*
X159024500Y-42869448D01*
X159024500Y-43050551D01*
X159052829Y-43229410D01*
X159108787Y-43401636D01*
X159108788Y-43401639D01*
X159191006Y-43562997D01*
X159297441Y-43709494D01*
X159297445Y-43709499D01*
X159425500Y-43837554D01*
X159425505Y-43837558D01*
X159490156Y-43884529D01*
X159572006Y-43943996D01*
X159677484Y-43997740D01*
X159733360Y-44026211D01*
X159733363Y-44026212D01*
X159819476Y-44054191D01*
X159905591Y-44082171D01*
X159978639Y-44093740D01*
X160065678Y-44107527D01*
X160128813Y-44137456D01*
X160165744Y-44196768D01*
X160164746Y-44266631D01*
X160126136Y-44324863D01*
X160065678Y-44352473D01*
X159905589Y-44377829D01*
X159733363Y-44433787D01*
X159733360Y-44433788D01*
X159572002Y-44516006D01*
X159425505Y-44622441D01*
X159425500Y-44622445D01*
X159297445Y-44750500D01*
X159297441Y-44750505D01*
X159191006Y-44897002D01*
X159108788Y-45058360D01*
X159108787Y-45058363D01*
X159052829Y-45230589D01*
X159024500Y-45409448D01*
X159024500Y-45590551D01*
X159052829Y-45769410D01*
X159108787Y-45941636D01*
X159108788Y-45941639D01*
X159191006Y-46102997D01*
X159297441Y-46249494D01*
X159297445Y-46249499D01*
X159425500Y-46377554D01*
X159425505Y-46377558D01*
X159553287Y-46470396D01*
X159572006Y-46483996D01*
X159677484Y-46537740D01*
X159733360Y-46566211D01*
X159733363Y-46566212D01*
X159819476Y-46594191D01*
X159905591Y-46622171D01*
X159978639Y-46633740D01*
X160065678Y-46647527D01*
X160128813Y-46677456D01*
X160165744Y-46736768D01*
X160164746Y-46806631D01*
X160126136Y-46864863D01*
X160065678Y-46892473D01*
X159905589Y-46917829D01*
X159733363Y-46973787D01*
X159733360Y-46973788D01*
X159572002Y-47056006D01*
X159425505Y-47162441D01*
X159425500Y-47162445D01*
X159297445Y-47290500D01*
X159297441Y-47290505D01*
X159191006Y-47437002D01*
X159108788Y-47598360D01*
X159108787Y-47598363D01*
X159052829Y-47770589D01*
X159024500Y-47949448D01*
X159024500Y-48130551D01*
X159052829Y-48309410D01*
X159108787Y-48481636D01*
X159108788Y-48481639D01*
X159191006Y-48642997D01*
X159297441Y-48789494D01*
X159297445Y-48789499D01*
X159425500Y-48917554D01*
X159425505Y-48917558D01*
X159553287Y-49010396D01*
X159572006Y-49023996D01*
X159677484Y-49077740D01*
X159733360Y-49106211D01*
X159733363Y-49106212D01*
X159813727Y-49132323D01*
X159905591Y-49162171D01*
X159978639Y-49173740D01*
X160065678Y-49187527D01*
X160128813Y-49217456D01*
X160165744Y-49276768D01*
X160164746Y-49346631D01*
X160126136Y-49404863D01*
X160065678Y-49432473D01*
X159905589Y-49457829D01*
X159733363Y-49513787D01*
X159733360Y-49513788D01*
X159572002Y-49596006D01*
X159425505Y-49702441D01*
X159425500Y-49702445D01*
X159297445Y-49830500D01*
X159297441Y-49830505D01*
X159191006Y-49977002D01*
X159108788Y-50138360D01*
X159108787Y-50138363D01*
X159052829Y-50310589D01*
X159024500Y-50489448D01*
X159024500Y-50670551D01*
X159052829Y-50849410D01*
X159108787Y-51021636D01*
X159108788Y-51021639D01*
X159191006Y-51182997D01*
X159297441Y-51329494D01*
X159297445Y-51329499D01*
X159425500Y-51457554D01*
X159425505Y-51457558D01*
X159553287Y-51550396D01*
X159572006Y-51563996D01*
X159677484Y-51617740D01*
X159733360Y-51646211D01*
X159733363Y-51646212D01*
X159819476Y-51674191D01*
X159905591Y-51702171D01*
X159978639Y-51713740D01*
X160065678Y-51727527D01*
X160128813Y-51757456D01*
X160165744Y-51816768D01*
X160164746Y-51886631D01*
X160126136Y-51944863D01*
X160065678Y-51972473D01*
X159905589Y-51997829D01*
X159733363Y-52053787D01*
X159733360Y-52053788D01*
X159572002Y-52136006D01*
X159425505Y-52242441D01*
X159425500Y-52242445D01*
X159297445Y-52370500D01*
X159297441Y-52370505D01*
X159191006Y-52517002D01*
X159108788Y-52678360D01*
X159108787Y-52678363D01*
X159052829Y-52850589D01*
X159024500Y-53029448D01*
X159024500Y-53210551D01*
X159052829Y-53389410D01*
X159108787Y-53561636D01*
X159108788Y-53561639D01*
X159191006Y-53722997D01*
X159297441Y-53869494D01*
X159297445Y-53869499D01*
X159425500Y-53997554D01*
X159425505Y-53997558D01*
X159553287Y-54090396D01*
X159572006Y-54103996D01*
X159677484Y-54157740D01*
X159733360Y-54186211D01*
X159733363Y-54186212D01*
X159819476Y-54214191D01*
X159905591Y-54242171D01*
X159978639Y-54253740D01*
X160065678Y-54267527D01*
X160128813Y-54297456D01*
X160165744Y-54356768D01*
X160164746Y-54426631D01*
X160126136Y-54484863D01*
X160065678Y-54512473D01*
X159905589Y-54537829D01*
X159733363Y-54593787D01*
X159733360Y-54593788D01*
X159572002Y-54676006D01*
X159425505Y-54782441D01*
X159425500Y-54782445D01*
X159297445Y-54910500D01*
X159297441Y-54910505D01*
X159191006Y-55057002D01*
X159108788Y-55218360D01*
X159108787Y-55218363D01*
X159052829Y-55390589D01*
X159024500Y-55569448D01*
X159024500Y-55750551D01*
X159052829Y-55929410D01*
X159108787Y-56101636D01*
X159108788Y-56101639D01*
X159164664Y-56211300D01*
X159188930Y-56258924D01*
X159191006Y-56262997D01*
X159297441Y-56409494D01*
X159297445Y-56409499D01*
X159425504Y-56537558D01*
X159546798Y-56625682D01*
X159589464Y-56681011D01*
X159595443Y-56750625D01*
X159562838Y-56812420D01*
X159501999Y-56846777D01*
X159473913Y-56850000D01*
X159277155Y-56850000D01*
X159217627Y-56856401D01*
X159217620Y-56856403D01*
X159082913Y-56906645D01*
X159082906Y-56906649D01*
X158967812Y-56992809D01*
X158967809Y-56992812D01*
X158881649Y-57107906D01*
X158881645Y-57107913D01*
X158831403Y-57242620D01*
X158831401Y-57242627D01*
X158825000Y-57302155D01*
X100562334Y-57302155D01*
X100575802Y-57297779D01*
X100786166Y-57190593D01*
X100869104Y-57130335D01*
X100869105Y-57130335D01*
X100129408Y-56390639D01*
X100192993Y-56373602D01*
X100307007Y-56307776D01*
X100400099Y-56214684D01*
X100465925Y-56100670D01*
X100482962Y-56037086D01*
X101222658Y-56776782D01*
X101222658Y-56776781D01*
X101282914Y-56693846D01*
X101282918Y-56693840D01*
X101390102Y-56483479D01*
X101463065Y-56258924D01*
X101500000Y-56025729D01*
X101500000Y-55789624D01*
X101463065Y-55556429D01*
X101390102Y-55331874D01*
X101282914Y-55121505D01*
X101222658Y-55038571D01*
X101222658Y-55038570D01*
X100482962Y-55778267D01*
X100465925Y-55714684D01*
X100400099Y-55600670D01*
X100307007Y-55507578D01*
X100192993Y-55441752D01*
X100129409Y-55424714D01*
X100869105Y-54685017D01*
X100869104Y-54685015D01*
X100786174Y-54624764D01*
X100575802Y-54517574D01*
X100351247Y-54444611D01*
X100351248Y-54444611D01*
X100118052Y-54407677D01*
X99881948Y-54407677D01*
X99648752Y-54444611D01*
X99424197Y-54517574D01*
X99213830Y-54624761D01*
X99130894Y-54685017D01*
X99870591Y-55424714D01*
X99807007Y-55441752D01*
X99692993Y-55507578D01*
X99599901Y-55600670D01*
X99534075Y-55714684D01*
X99517037Y-55778268D01*
X98777340Y-55038571D01*
X98717084Y-55121507D01*
X98609897Y-55331874D01*
X98536934Y-55556429D01*
X98500000Y-55789624D01*
X85500000Y-55789624D01*
X85463065Y-55556429D01*
X85390102Y-55331874D01*
X85282914Y-55121505D01*
X85222658Y-55038571D01*
X85222658Y-55038570D01*
X84482962Y-55778267D01*
X84465925Y-55714684D01*
X84400099Y-55600670D01*
X84307007Y-55507578D01*
X84192993Y-55441752D01*
X84129409Y-55424714D01*
X84869105Y-54685017D01*
X84869104Y-54685016D01*
X84786174Y-54624764D01*
X84575802Y-54517574D01*
X84351247Y-54444611D01*
X84351248Y-54444611D01*
X84118052Y-54407677D01*
X83881948Y-54407677D01*
X83648752Y-54444611D01*
X83424197Y-54517574D01*
X83213830Y-54624761D01*
X83130894Y-54685017D01*
X83870591Y-55424714D01*
X83807007Y-55441752D01*
X83692993Y-55507578D01*
X83599901Y-55600670D01*
X83534075Y-55714684D01*
X83517037Y-55778268D01*
X82777340Y-55038571D01*
X82717084Y-55121507D01*
X82609897Y-55331874D01*
X82536934Y-55556429D01*
X82500000Y-55789624D01*
X66000500Y-55789624D01*
X66000500Y-47514270D01*
X82500000Y-47514270D01*
X82500000Y-47750375D01*
X82536934Y-47983570D01*
X82609897Y-48208125D01*
X82717087Y-48418497D01*
X82777338Y-48501427D01*
X82777340Y-48501428D01*
X83517037Y-47761731D01*
X83534075Y-47825316D01*
X83599901Y-47939330D01*
X83692993Y-48032422D01*
X83807007Y-48098248D01*
X83870590Y-48115285D01*
X83130893Y-48854981D01*
X83213828Y-48915237D01*
X83424197Y-49022425D01*
X83648752Y-49095388D01*
X83648751Y-49095388D01*
X83881948Y-49132323D01*
X84118052Y-49132323D01*
X84351247Y-49095388D01*
X84575802Y-49022425D01*
X84786163Y-48915241D01*
X84786169Y-48915237D01*
X84869104Y-48854981D01*
X84869105Y-48854981D01*
X84129408Y-48115285D01*
X84192993Y-48098248D01*
X84307007Y-48032422D01*
X84400099Y-47939330D01*
X84465925Y-47825316D01*
X84482962Y-47761732D01*
X85222658Y-48501428D01*
X85222658Y-48501427D01*
X85282914Y-48418492D01*
X85282918Y-48418486D01*
X85390102Y-48208125D01*
X85463065Y-47983570D01*
X85500000Y-47750375D01*
X85500000Y-47514270D01*
X98500000Y-47514270D01*
X98500000Y-47750375D01*
X98536934Y-47983570D01*
X98609897Y-48208125D01*
X98717087Y-48418497D01*
X98777338Y-48501427D01*
X98777340Y-48501428D01*
X99517037Y-47761731D01*
X99534075Y-47825316D01*
X99599901Y-47939330D01*
X99692993Y-48032422D01*
X99807007Y-48098248D01*
X99870590Y-48115285D01*
X99130893Y-48854981D01*
X99213828Y-48915237D01*
X99424197Y-49022425D01*
X99648752Y-49095388D01*
X99648751Y-49095388D01*
X99881948Y-49132323D01*
X100118052Y-49132323D01*
X100351247Y-49095388D01*
X100575802Y-49022425D01*
X100786163Y-48915241D01*
X100786169Y-48915237D01*
X100869104Y-48854981D01*
X100869105Y-48854981D01*
X100129408Y-48115285D01*
X100192993Y-48098248D01*
X100307007Y-48032422D01*
X100400099Y-47939330D01*
X100465925Y-47825316D01*
X100482962Y-47761732D01*
X101222658Y-48501428D01*
X101222658Y-48501427D01*
X101282914Y-48418492D01*
X101282918Y-48418486D01*
X101390102Y-48208125D01*
X101463065Y-47983570D01*
X101500000Y-47750375D01*
X101500000Y-47514270D01*
X101463065Y-47281075D01*
X101390102Y-47056520D01*
X101282914Y-46846151D01*
X101222658Y-46763217D01*
X101222658Y-46763216D01*
X100482962Y-47502913D01*
X100465925Y-47439330D01*
X100400099Y-47325316D01*
X100307007Y-47232224D01*
X100192993Y-47166398D01*
X100129409Y-47149360D01*
X100869105Y-46409663D01*
X100869104Y-46409661D01*
X100786174Y-46349410D01*
X100575802Y-46242220D01*
X100351247Y-46169257D01*
X100351248Y-46169257D01*
X100118052Y-46132323D01*
X99881948Y-46132323D01*
X99648752Y-46169257D01*
X99424197Y-46242220D01*
X99213830Y-46349407D01*
X99130894Y-46409663D01*
X99870591Y-47149360D01*
X99807007Y-47166398D01*
X99692993Y-47232224D01*
X99599901Y-47325316D01*
X99534075Y-47439330D01*
X99517037Y-47502914D01*
X98777340Y-46763217D01*
X98717084Y-46846153D01*
X98609897Y-47056520D01*
X98536934Y-47281075D01*
X98500000Y-47514270D01*
X85500000Y-47514270D01*
X85463065Y-47281075D01*
X85390102Y-47056520D01*
X85282914Y-46846151D01*
X85222658Y-46763217D01*
X85222658Y-46763216D01*
X84482962Y-47502913D01*
X84465925Y-47439330D01*
X84400099Y-47325316D01*
X84307007Y-47232224D01*
X84192993Y-47166398D01*
X84129409Y-47149360D01*
X84869105Y-46409663D01*
X84869104Y-46409662D01*
X84786174Y-46349410D01*
X84575802Y-46242220D01*
X84351247Y-46169257D01*
X84351248Y-46169257D01*
X84118052Y-46132323D01*
X83881948Y-46132323D01*
X83648752Y-46169257D01*
X83424197Y-46242220D01*
X83213830Y-46349407D01*
X83130894Y-46409663D01*
X83870591Y-47149360D01*
X83807007Y-47166398D01*
X83692993Y-47232224D01*
X83599901Y-47325316D01*
X83534075Y-47439330D01*
X83517037Y-47502914D01*
X82777340Y-46763217D01*
X82717084Y-46846153D01*
X82609897Y-47056520D01*
X82536934Y-47281075D01*
X82500000Y-47514270D01*
X66000500Y-47514270D01*
X66000500Y-41587454D01*
X82699500Y-41587454D01*
X82699500Y-43677179D01*
X82699502Y-43677205D01*
X82702413Y-43702310D01*
X82702415Y-43702314D01*
X82747793Y-43805087D01*
X82747794Y-43805088D01*
X82827235Y-43884529D01*
X82930009Y-43929908D01*
X82955135Y-43932823D01*
X85044864Y-43932822D01*
X85044879Y-43932820D01*
X85044882Y-43932820D01*
X85069987Y-43929909D01*
X85069988Y-43929908D01*
X85069991Y-43929908D01*
X85172765Y-43884529D01*
X85252206Y-43805088D01*
X85297585Y-43702314D01*
X85300500Y-43677188D01*
X85300499Y-41587459D01*
X85300499Y-41587458D01*
X85300499Y-41587454D01*
X98699500Y-41587454D01*
X98699500Y-43677179D01*
X98699502Y-43677205D01*
X98702413Y-43702310D01*
X98702415Y-43702314D01*
X98747793Y-43805087D01*
X98747794Y-43805088D01*
X98827235Y-43884529D01*
X98930009Y-43929908D01*
X98955135Y-43932823D01*
X101044864Y-43932822D01*
X101044879Y-43932820D01*
X101044882Y-43932820D01*
X101069987Y-43929909D01*
X101069988Y-43929908D01*
X101069991Y-43929908D01*
X101172765Y-43884529D01*
X101252206Y-43805088D01*
X101297585Y-43702314D01*
X101300500Y-43677188D01*
X101300499Y-41587459D01*
X101300497Y-41587440D01*
X101297586Y-41562335D01*
X101297585Y-41562333D01*
X101297585Y-41562332D01*
X101252206Y-41459558D01*
X101172765Y-41380117D01*
X101172763Y-41380116D01*
X101069992Y-41334738D01*
X101044865Y-41331823D01*
X98955143Y-41331823D01*
X98955117Y-41331825D01*
X98930012Y-41334736D01*
X98930008Y-41334738D01*
X98827235Y-41380116D01*
X98747794Y-41459557D01*
X98702415Y-41562329D01*
X98702415Y-41562331D01*
X98699500Y-41587454D01*
X85300499Y-41587454D01*
X85300499Y-41587453D01*
X85297586Y-41562335D01*
X85297585Y-41562333D01*
X85297585Y-41562332D01*
X85252206Y-41459558D01*
X85172765Y-41380117D01*
X85172763Y-41380116D01*
X85069992Y-41334738D01*
X85044865Y-41331823D01*
X82955143Y-41331823D01*
X82955117Y-41331825D01*
X82930012Y-41334736D01*
X82930008Y-41334738D01*
X82827235Y-41380116D01*
X82747794Y-41459557D01*
X82702415Y-41562329D01*
X82702415Y-41562331D01*
X82699500Y-41587454D01*
X66000500Y-41587454D01*
X66000500Y-36901617D01*
X158900000Y-36901617D01*
X158900000Y-37098382D01*
X158930778Y-37292705D01*
X158991581Y-37479835D01*
X159080905Y-37655145D01*
X159106319Y-37690125D01*
X159106320Y-37690125D01*
X159750000Y-37046445D01*
X159750000Y-37052661D01*
X159777259Y-37154394D01*
X159829920Y-37245606D01*
X159904394Y-37320080D01*
X159995606Y-37372741D01*
X160097339Y-37400000D01*
X160103553Y-37400000D01*
X159459873Y-38043677D01*
X159459873Y-38043678D01*
X159494858Y-38069096D01*
X159670164Y-38158418D01*
X159857294Y-38219221D01*
X160051618Y-38250000D01*
X160248382Y-38250000D01*
X160442705Y-38219221D01*
X160629835Y-38158418D01*
X160805143Y-38069095D01*
X160840125Y-38043678D01*
X160840126Y-38043678D01*
X160196448Y-37400000D01*
X160202661Y-37400000D01*
X160304394Y-37372741D01*
X160395606Y-37320080D01*
X160470080Y-37245606D01*
X160522741Y-37154394D01*
X160550000Y-37052661D01*
X160550000Y-37046448D01*
X161193678Y-37690126D01*
X161193678Y-37690125D01*
X161219095Y-37655143D01*
X161308418Y-37479835D01*
X161369221Y-37292705D01*
X161400000Y-37098382D01*
X161400000Y-36901617D01*
X161369221Y-36707294D01*
X161308418Y-36520164D01*
X161219096Y-36344858D01*
X161193678Y-36309873D01*
X161193677Y-36309873D01*
X160550000Y-36953551D01*
X160550000Y-36947339D01*
X160522741Y-36845606D01*
X160470080Y-36754394D01*
X160395606Y-36679920D01*
X160304394Y-36627259D01*
X160202661Y-36600000D01*
X160196447Y-36600000D01*
X160840125Y-35956320D01*
X160840125Y-35956319D01*
X160805145Y-35930905D01*
X160629835Y-35841581D01*
X160442705Y-35780778D01*
X160248382Y-35750000D01*
X160051618Y-35750000D01*
X159857294Y-35780778D01*
X159670161Y-35841582D01*
X159494863Y-35930899D01*
X159494859Y-35930902D01*
X159459873Y-35956320D01*
X159459872Y-35956320D01*
X160103554Y-36600000D01*
X160097339Y-36600000D01*
X159995606Y-36627259D01*
X159904394Y-36679920D01*
X159829920Y-36754394D01*
X159777259Y-36845606D01*
X159750000Y-36947339D01*
X159750000Y-36953552D01*
X159106320Y-36309872D01*
X159106320Y-36309873D01*
X159080902Y-36344859D01*
X159080899Y-36344863D01*
X158991582Y-36520161D01*
X158930778Y-36707294D01*
X158900000Y-36901617D01*
X66000500Y-36901617D01*
X66000500Y-32042513D01*
X80867500Y-32042513D01*
X80867500Y-33392500D01*
X81719018Y-33392500D01*
X81708389Y-33410909D01*
X81667500Y-33563509D01*
X81667500Y-33721491D01*
X81708389Y-33874091D01*
X81719018Y-33892500D01*
X80867501Y-33892500D01*
X80867501Y-35242486D01*
X80877994Y-35345197D01*
X80933141Y-35511619D01*
X80933143Y-35511624D01*
X81025184Y-35660845D01*
X81149154Y-35784815D01*
X81298375Y-35876856D01*
X81298380Y-35876858D01*
X81464802Y-35932005D01*
X81464809Y-35932006D01*
X81567519Y-35942499D01*
X82017499Y-35942499D01*
X82017500Y-35942498D01*
X82017500Y-34190982D01*
X82035909Y-34201611D01*
X82188509Y-34242500D01*
X82346491Y-34242500D01*
X82499091Y-34201611D01*
X82517500Y-34190982D01*
X82517500Y-35942499D01*
X82967472Y-35942499D01*
X82967486Y-35942498D01*
X83070197Y-35932005D01*
X83209415Y-35885873D01*
X83236619Y-35876858D01*
X83236624Y-35876856D01*
X83385845Y-35784815D01*
X83509815Y-35660845D01*
X83601856Y-35511624D01*
X83601858Y-35511619D01*
X83657005Y-35345197D01*
X83657006Y-35345190D01*
X83667499Y-35242486D01*
X83667500Y-35242473D01*
X83667500Y-33892500D01*
X82815982Y-33892500D01*
X82826611Y-33874091D01*
X82867500Y-33721491D01*
X82867500Y-33563509D01*
X82826611Y-33410909D01*
X82815982Y-33392500D01*
X83667499Y-33392500D01*
X83667499Y-32648013D01*
X84567000Y-32648013D01*
X84567000Y-34636986D01*
X84596559Y-34823618D01*
X84654954Y-35003336D01*
X84740740Y-35171699D01*
X84851810Y-35324573D01*
X84985427Y-35458190D01*
X85138301Y-35569260D01*
X85217847Y-35609790D01*
X85306663Y-35655045D01*
X85306665Y-35655045D01*
X85306668Y-35655047D01*
X85402997Y-35686346D01*
X85486381Y-35713440D01*
X85673014Y-35743000D01*
X85673019Y-35743000D01*
X85861986Y-35743000D01*
X86048618Y-35713440D01*
X86228332Y-35655047D01*
X86396699Y-35569260D01*
X86549573Y-35458190D01*
X86683190Y-35324573D01*
X86794260Y-35171699D01*
X86880047Y-35003332D01*
X86938440Y-34823618D01*
X86962825Y-34669657D01*
X86968000Y-34636986D01*
X86968000Y-32881902D01*
X95999500Y-32881902D01*
X95999500Y-33118097D01*
X96036446Y-33351368D01*
X96109433Y-33575996D01*
X96183567Y-33721491D01*
X96216657Y-33786433D01*
X96355483Y-33977510D01*
X96522490Y-34144517D01*
X96713567Y-34283343D01*
X96812991Y-34334002D01*
X96924003Y-34390566D01*
X96924005Y-34390566D01*
X96924008Y-34390568D01*
X97044412Y-34429689D01*
X97148631Y-34463553D01*
X97381903Y-34500500D01*
X97381908Y-34500500D01*
X97618097Y-34500500D01*
X97851368Y-34463553D01*
X98075992Y-34390568D01*
X98286433Y-34283343D01*
X98477510Y-34144517D01*
X98644517Y-33977510D01*
X98783343Y-33786433D01*
X98890568Y-33575992D01*
X98963553Y-33351368D01*
X98969035Y-33316757D01*
X99000500Y-33118097D01*
X99000500Y-32881902D01*
X100999500Y-32881902D01*
X100999500Y-33118097D01*
X101036446Y-33351368D01*
X101109433Y-33575996D01*
X101183567Y-33721491D01*
X101216657Y-33786433D01*
X101355483Y-33977510D01*
X101522490Y-34144517D01*
X101713567Y-34283343D01*
X101812991Y-34334002D01*
X101924003Y-34390566D01*
X101924005Y-34390566D01*
X101924008Y-34390568D01*
X102044412Y-34429689D01*
X102148631Y-34463553D01*
X102381903Y-34500500D01*
X102381908Y-34500500D01*
X102618097Y-34500500D01*
X102851368Y-34463553D01*
X103075992Y-34390568D01*
X103286433Y-34283343D01*
X103477510Y-34144517D01*
X103644517Y-33977510D01*
X103703353Y-33896530D01*
X159099500Y-33896530D01*
X159099500Y-34103469D01*
X159139868Y-34306412D01*
X159139870Y-34306420D01*
X159219058Y-34497596D01*
X159334024Y-34669657D01*
X159480342Y-34815975D01*
X159480345Y-34815977D01*
X159652402Y-34930941D01*
X159843580Y-35010130D01*
X160046530Y-35050499D01*
X160046534Y-35050500D01*
X160046535Y-35050500D01*
X160253466Y-35050500D01*
X160253467Y-35050499D01*
X160456420Y-35010130D01*
X160647598Y-34930941D01*
X160819655Y-34815977D01*
X160965977Y-34669655D01*
X161080941Y-34497598D01*
X161160130Y-34306420D01*
X161200500Y-34103465D01*
X161200500Y-33896535D01*
X161160130Y-33693580D01*
X161080941Y-33502402D01*
X160965977Y-33330345D01*
X160965975Y-33330342D01*
X160819657Y-33184024D01*
X160689669Y-33097170D01*
X160647598Y-33069059D01*
X160640722Y-33066211D01*
X160456420Y-32989870D01*
X160456412Y-32989868D01*
X160253469Y-32949500D01*
X160253465Y-32949500D01*
X160046535Y-32949500D01*
X160046530Y-32949500D01*
X159843587Y-32989868D01*
X159843579Y-32989870D01*
X159652403Y-33069058D01*
X159480342Y-33184024D01*
X159334024Y-33330342D01*
X159219058Y-33502403D01*
X159139870Y-33693579D01*
X159139868Y-33693587D01*
X159099500Y-33896530D01*
X103703353Y-33896530D01*
X103783343Y-33786433D01*
X103890568Y-33575992D01*
X103963553Y-33351368D01*
X103969035Y-33316757D01*
X104000500Y-33118097D01*
X104000500Y-32881902D01*
X103963553Y-32648631D01*
X103905939Y-32471315D01*
X103890568Y-32424008D01*
X103890566Y-32424005D01*
X103890566Y-32424003D01*
X103818042Y-32281668D01*
X103783343Y-32213567D01*
X103644517Y-32022490D01*
X103477510Y-31855483D01*
X103286433Y-31716657D01*
X103222085Y-31683870D01*
X103075996Y-31609433D01*
X102851368Y-31536446D01*
X102618097Y-31499500D01*
X102618092Y-31499500D01*
X102381908Y-31499500D01*
X102381903Y-31499500D01*
X102148631Y-31536446D01*
X101924003Y-31609433D01*
X101713566Y-31716657D01*
X101623621Y-31782007D01*
X101522490Y-31855483D01*
X101522488Y-31855485D01*
X101522487Y-31855485D01*
X101355485Y-32022487D01*
X101355485Y-32022488D01*
X101355483Y-32022490D01*
X101310560Y-32084321D01*
X101216657Y-32213566D01*
X101109433Y-32424003D01*
X101036446Y-32648631D01*
X100999500Y-32881902D01*
X99000500Y-32881902D01*
X98963553Y-32648631D01*
X98905939Y-32471315D01*
X98890568Y-32424008D01*
X98890566Y-32424005D01*
X98890566Y-32424003D01*
X98818042Y-32281668D01*
X98783343Y-32213567D01*
X98644517Y-32022490D01*
X98477510Y-31855483D01*
X98286433Y-31716657D01*
X98222085Y-31683870D01*
X98075996Y-31609433D01*
X97851368Y-31536446D01*
X97618097Y-31499500D01*
X97618092Y-31499500D01*
X97381908Y-31499500D01*
X97381903Y-31499500D01*
X97148631Y-31536446D01*
X96924003Y-31609433D01*
X96713566Y-31716657D01*
X96623621Y-31782007D01*
X96522490Y-31855483D01*
X96522488Y-31855485D01*
X96522487Y-31855485D01*
X96355485Y-32022487D01*
X96355485Y-32022488D01*
X96355483Y-32022490D01*
X96310560Y-32084321D01*
X96216657Y-32213566D01*
X96109433Y-32424003D01*
X96036446Y-32648631D01*
X95999500Y-32881902D01*
X86968000Y-32881902D01*
X86968000Y-32648013D01*
X86938440Y-32461381D01*
X86880045Y-32281663D01*
X86816591Y-32157128D01*
X86794260Y-32113301D01*
X86683190Y-31960427D01*
X86549573Y-31826810D01*
X86396699Y-31715740D01*
X86228336Y-31629954D01*
X86048618Y-31571559D01*
X85861986Y-31542000D01*
X85861981Y-31542000D01*
X85673019Y-31542000D01*
X85673014Y-31542000D01*
X85486381Y-31571559D01*
X85306663Y-31629954D01*
X85138300Y-31715740D01*
X85117860Y-31730591D01*
X84985427Y-31826810D01*
X84985425Y-31826812D01*
X84985424Y-31826812D01*
X84851812Y-31960424D01*
X84851812Y-31960425D01*
X84851810Y-31960427D01*
X84815698Y-32010131D01*
X84740740Y-32113300D01*
X84654954Y-32281663D01*
X84596559Y-32461381D01*
X84567000Y-32648013D01*
X83667499Y-32648013D01*
X83667499Y-32042528D01*
X83667498Y-32042513D01*
X83657005Y-31939802D01*
X83601858Y-31773380D01*
X83601856Y-31773375D01*
X83509815Y-31624154D01*
X83385845Y-31500184D01*
X83236624Y-31408143D01*
X83236619Y-31408141D01*
X83070197Y-31352994D01*
X83070190Y-31352993D01*
X82967486Y-31342500D01*
X82517500Y-31342500D01*
X82517500Y-33094017D01*
X82499091Y-33083389D01*
X82346491Y-33042500D01*
X82188509Y-33042500D01*
X82035909Y-33083389D01*
X82017500Y-33094017D01*
X82017500Y-31342500D01*
X81567528Y-31342500D01*
X81567512Y-31342501D01*
X81464802Y-31352994D01*
X81298380Y-31408141D01*
X81298375Y-31408143D01*
X81149154Y-31500184D01*
X81025184Y-31624154D01*
X80933143Y-31773375D01*
X80933141Y-31773380D01*
X80877994Y-31939802D01*
X80877993Y-31939809D01*
X80867500Y-32042513D01*
X66000500Y-32042513D01*
X66000500Y-31080131D01*
X127349500Y-31080131D01*
X127349500Y-32869856D01*
X127349502Y-32869882D01*
X127352413Y-32894987D01*
X127352415Y-32894991D01*
X127397793Y-32997764D01*
X127397794Y-32997765D01*
X127477235Y-33077206D01*
X127580009Y-33122585D01*
X127605135Y-33125500D01*
X129394864Y-33125499D01*
X129394879Y-33125497D01*
X129394882Y-33125497D01*
X129419987Y-33122586D01*
X129419988Y-33122585D01*
X129419991Y-33122585D01*
X129522765Y-33077206D01*
X129602206Y-32997765D01*
X129647585Y-32894991D01*
X129650500Y-32869865D01*
X129650499Y-32738076D01*
X129670183Y-32671040D01*
X129722987Y-32625285D01*
X129792145Y-32615341D01*
X129855701Y-32644365D01*
X129882500Y-32678605D01*
X129882832Y-32678402D01*
X129884603Y-32681292D01*
X129884977Y-32681770D01*
X129885377Y-32682555D01*
X130010272Y-32854459D01*
X130010276Y-32854464D01*
X130160535Y-33004723D01*
X130160540Y-33004727D01*
X130332442Y-33129620D01*
X130521782Y-33226095D01*
X130723871Y-33291757D01*
X130790000Y-33302231D01*
X130790000Y-32408012D01*
X130847007Y-32440925D01*
X130974174Y-32475000D01*
X131105826Y-32475000D01*
X131232993Y-32440925D01*
X131290000Y-32408012D01*
X131290000Y-33302230D01*
X131356126Y-33291757D01*
X131356129Y-33291757D01*
X131558217Y-33226095D01*
X131747557Y-33129620D01*
X131919459Y-33004727D01*
X131919464Y-33004723D01*
X132069723Y-32854464D01*
X132069727Y-32854459D01*
X132194620Y-32682557D01*
X132291095Y-32493217D01*
X132300492Y-32464295D01*
X132339928Y-32406618D01*
X132404286Y-32379419D01*
X132473133Y-32391331D01*
X132524610Y-32438574D01*
X132528908Y-32446314D01*
X132596004Y-32577995D01*
X132702441Y-32724494D01*
X132702445Y-32724499D01*
X132830500Y-32852554D01*
X132830505Y-32852558D01*
X132958287Y-32945396D01*
X132977006Y-32958996D01*
X133053094Y-32997765D01*
X133138360Y-33041211D01*
X133138363Y-33041212D01*
X133215304Y-33066211D01*
X133310591Y-33097171D01*
X133393429Y-33110291D01*
X133489449Y-33125500D01*
X133489454Y-33125500D01*
X133670551Y-33125500D01*
X133757259Y-33111765D01*
X133849409Y-33097171D01*
X134021639Y-33041211D01*
X134182994Y-32958996D01*
X134329501Y-32852553D01*
X134457553Y-32724501D01*
X134563996Y-32577994D01*
X134646211Y-32416639D01*
X134702171Y-32244409D01*
X134716422Y-32154425D01*
X134727527Y-32084321D01*
X134757456Y-32021186D01*
X134816768Y-31984255D01*
X134886630Y-31985253D01*
X134944863Y-32023863D01*
X134972473Y-32084321D01*
X134997829Y-32244410D01*
X135053787Y-32416636D01*
X135053788Y-32416639D01*
X135136006Y-32577997D01*
X135242441Y-32724494D01*
X135242445Y-32724499D01*
X135370500Y-32852554D01*
X135370505Y-32852558D01*
X135498287Y-32945396D01*
X135517006Y-32958996D01*
X135593094Y-32997765D01*
X135678360Y-33041211D01*
X135678363Y-33041212D01*
X135755304Y-33066211D01*
X135850591Y-33097171D01*
X135933429Y-33110291D01*
X136029449Y-33125500D01*
X136029454Y-33125500D01*
X136210551Y-33125500D01*
X136297259Y-33111765D01*
X136389409Y-33097171D01*
X136561639Y-33041211D01*
X136722994Y-32958996D01*
X136869501Y-32852553D01*
X136997553Y-32724501D01*
X137103996Y-32577994D01*
X137186211Y-32416639D01*
X137242171Y-32244409D01*
X137256765Y-32152259D01*
X137270500Y-32065551D01*
X137270500Y-31884448D01*
X137252907Y-31773375D01*
X137242171Y-31705591D01*
X137199708Y-31574901D01*
X137186212Y-31533363D01*
X137186211Y-31533360D01*
X137147191Y-31456780D01*
X137103996Y-31372006D01*
X137090182Y-31352993D01*
X136997558Y-31225505D01*
X136997554Y-31225500D01*
X136877185Y-31105131D01*
X142649500Y-31105131D01*
X142649500Y-32894856D01*
X142649502Y-32894882D01*
X142652413Y-32919987D01*
X142652415Y-32919991D01*
X142697793Y-33022764D01*
X142697794Y-33022765D01*
X142777235Y-33102206D01*
X142880009Y-33147585D01*
X142905135Y-33150500D01*
X144694864Y-33150499D01*
X144694879Y-33150497D01*
X144694882Y-33150497D01*
X144719987Y-33147586D01*
X144719988Y-33147585D01*
X144719991Y-33147585D01*
X144822765Y-33102206D01*
X144902206Y-33022765D01*
X144947585Y-32919991D01*
X144950500Y-32894865D01*
X144950499Y-32157125D01*
X144970183Y-32090089D01*
X145022987Y-32044334D01*
X145092146Y-32034390D01*
X145155702Y-32063415D01*
X145193476Y-32122193D01*
X145196972Y-32137729D01*
X145217829Y-32269410D01*
X145273787Y-32441636D01*
X145273788Y-32441639D01*
X145329664Y-32551300D01*
X145343267Y-32577997D01*
X145356006Y-32602997D01*
X145462441Y-32749494D01*
X145462445Y-32749499D01*
X145590500Y-32877554D01*
X145590505Y-32877558D01*
X145689526Y-32949500D01*
X145737006Y-32983996D01*
X145813094Y-33022765D01*
X145898360Y-33066211D01*
X145898363Y-33066212D01*
X145951230Y-33083389D01*
X146070591Y-33122171D01*
X146153429Y-33135291D01*
X146249449Y-33150500D01*
X146249454Y-33150500D01*
X146430551Y-33150500D01*
X146517259Y-33136765D01*
X146609409Y-33122171D01*
X146781639Y-33066211D01*
X146942994Y-32983996D01*
X147089501Y-32877553D01*
X147217553Y-32749501D01*
X147323996Y-32602994D01*
X147406211Y-32441639D01*
X147462171Y-32269409D01*
X147478234Y-32167993D01*
X147487527Y-32109321D01*
X147517456Y-32046186D01*
X147576768Y-32009255D01*
X147646630Y-32010253D01*
X147704863Y-32048863D01*
X147732473Y-32109321D01*
X147757829Y-32269410D01*
X147813787Y-32441636D01*
X147813788Y-32441639D01*
X147869664Y-32551300D01*
X147883267Y-32577997D01*
X147896006Y-32602997D01*
X148002441Y-32749494D01*
X148002445Y-32749499D01*
X148130500Y-32877554D01*
X148130505Y-32877558D01*
X148229526Y-32949500D01*
X148277006Y-32983996D01*
X148353094Y-33022765D01*
X148438360Y-33066211D01*
X148438363Y-33066212D01*
X148491230Y-33083389D01*
X148610591Y-33122171D01*
X148693429Y-33135291D01*
X148789449Y-33150500D01*
X148789454Y-33150500D01*
X148970551Y-33150500D01*
X149057259Y-33136765D01*
X149149409Y-33122171D01*
X149321639Y-33066211D01*
X149482994Y-32983996D01*
X149629501Y-32877553D01*
X149757553Y-32749501D01*
X149863996Y-32602994D01*
X149931090Y-32471314D01*
X149979065Y-32420519D01*
X150046886Y-32403724D01*
X150113021Y-32426262D01*
X150156472Y-32480977D01*
X150159506Y-32489292D01*
X150168904Y-32518217D01*
X150265379Y-32707557D01*
X150390272Y-32879459D01*
X150390276Y-32879464D01*
X150540535Y-33029723D01*
X150540540Y-33029727D01*
X150712442Y-33154620D01*
X150901782Y-33251095D01*
X151103871Y-33316757D01*
X151170000Y-33327231D01*
X151170000Y-32433012D01*
X151227007Y-32465925D01*
X151354174Y-32500000D01*
X151485826Y-32500000D01*
X151612993Y-32465925D01*
X151670000Y-32433012D01*
X151670000Y-33327230D01*
X151736126Y-33316757D01*
X151736129Y-33316757D01*
X151938217Y-33251095D01*
X152127557Y-33154620D01*
X152299459Y-33029727D01*
X152299464Y-33029723D01*
X152449723Y-32879464D01*
X152449727Y-32879459D01*
X152574620Y-32707557D01*
X152671095Y-32518217D01*
X152736757Y-32316129D01*
X152736757Y-32316126D01*
X152747231Y-32250000D01*
X151853012Y-32250000D01*
X151885925Y-32192993D01*
X151920000Y-32065826D01*
X151920000Y-31934174D01*
X151885925Y-31807007D01*
X151853012Y-31750000D01*
X152747231Y-31750000D01*
X152736757Y-31683873D01*
X152736757Y-31683870D01*
X152671095Y-31481782D01*
X152574620Y-31292442D01*
X152449727Y-31120540D01*
X152449723Y-31120535D01*
X152299464Y-30970276D01*
X152299459Y-30970272D01*
X152197961Y-30896530D01*
X159099500Y-30896530D01*
X159099500Y-31103469D01*
X159139868Y-31306412D01*
X159139870Y-31306420D01*
X159209698Y-31475000D01*
X159219059Y-31497598D01*
X159270711Y-31574901D01*
X159334024Y-31669657D01*
X159480342Y-31815975D01*
X159480345Y-31815977D01*
X159652402Y-31930941D01*
X159843580Y-32010130D01*
X160024847Y-32046186D01*
X160046530Y-32050499D01*
X160046534Y-32050500D01*
X160046535Y-32050500D01*
X160253466Y-32050500D01*
X160253467Y-32050499D01*
X160456420Y-32010130D01*
X160647598Y-31930941D01*
X160819655Y-31815977D01*
X160965977Y-31669655D01*
X161080941Y-31497598D01*
X161160130Y-31306420D01*
X161200500Y-31103465D01*
X161200500Y-30896535D01*
X161160130Y-30693580D01*
X161080941Y-30502402D01*
X160965977Y-30330345D01*
X160965975Y-30330342D01*
X160819657Y-30184024D01*
X160733626Y-30126541D01*
X160647598Y-30069059D01*
X160456420Y-29989870D01*
X160456412Y-29989868D01*
X160253469Y-29949500D01*
X160253465Y-29949500D01*
X160046535Y-29949500D01*
X160046530Y-29949500D01*
X159843587Y-29989868D01*
X159843579Y-29989870D01*
X159652403Y-30069058D01*
X159480342Y-30184024D01*
X159334024Y-30330342D01*
X159219058Y-30502403D01*
X159139870Y-30693579D01*
X159139868Y-30693587D01*
X159099500Y-30896530D01*
X152197961Y-30896530D01*
X152127557Y-30845379D01*
X151938215Y-30748903D01*
X151736124Y-30683241D01*
X151670000Y-30672768D01*
X151670000Y-31566988D01*
X151612993Y-31534075D01*
X151485826Y-31500000D01*
X151354174Y-31500000D01*
X151227007Y-31534075D01*
X151170000Y-31566988D01*
X151170000Y-30672768D01*
X151169999Y-30672768D01*
X151103875Y-30683241D01*
X150901784Y-30748903D01*
X150712442Y-30845379D01*
X150540540Y-30970272D01*
X150540535Y-30970276D01*
X150390276Y-31120535D01*
X150390272Y-31120540D01*
X150265379Y-31292442D01*
X150168905Y-31481781D01*
X150159506Y-31510708D01*
X150120068Y-31568383D01*
X150055709Y-31595581D01*
X149986862Y-31583666D01*
X149935387Y-31536421D01*
X149931090Y-31528684D01*
X149915853Y-31498780D01*
X149863996Y-31397006D01*
X149819533Y-31335808D01*
X149757558Y-31250505D01*
X149757554Y-31250500D01*
X149629499Y-31122445D01*
X149629494Y-31122441D01*
X149482997Y-31016006D01*
X149482996Y-31016005D01*
X149482994Y-31016004D01*
X149406906Y-30977235D01*
X149321639Y-30933788D01*
X149321636Y-30933787D01*
X149149410Y-30877829D01*
X148970551Y-30849500D01*
X148970546Y-30849500D01*
X148789454Y-30849500D01*
X148789449Y-30849500D01*
X148610589Y-30877829D01*
X148438363Y-30933787D01*
X148438360Y-30933788D01*
X148277002Y-31016006D01*
X148130505Y-31122441D01*
X148130500Y-31122445D01*
X148002445Y-31250500D01*
X148002441Y-31250505D01*
X147896006Y-31397002D01*
X147813788Y-31558360D01*
X147813787Y-31558363D01*
X147757829Y-31730589D01*
X147732473Y-31890678D01*
X147702544Y-31953813D01*
X147643232Y-31990744D01*
X147573369Y-31989746D01*
X147515137Y-31951136D01*
X147487527Y-31890678D01*
X147465245Y-31750000D01*
X147462171Y-31730591D01*
X147419708Y-31599901D01*
X147406212Y-31558363D01*
X147406211Y-31558360D01*
X147376220Y-31499500D01*
X147323996Y-31397006D01*
X147279533Y-31335808D01*
X147217558Y-31250505D01*
X147217554Y-31250500D01*
X147089499Y-31122445D01*
X147089494Y-31122441D01*
X146942997Y-31016006D01*
X146942996Y-31016005D01*
X146942994Y-31016004D01*
X146866906Y-30977235D01*
X146781639Y-30933788D01*
X146781636Y-30933787D01*
X146609410Y-30877829D01*
X146430551Y-30849500D01*
X146430546Y-30849500D01*
X146249454Y-30849500D01*
X146249449Y-30849500D01*
X146070589Y-30877829D01*
X145898363Y-30933787D01*
X145898360Y-30933788D01*
X145737002Y-31016006D01*
X145590505Y-31122441D01*
X145590500Y-31122445D01*
X145462445Y-31250500D01*
X145462441Y-31250505D01*
X145356006Y-31397002D01*
X145273788Y-31558360D01*
X145273787Y-31558363D01*
X145217829Y-31730589D01*
X145196972Y-31862271D01*
X145167042Y-31925405D01*
X145107731Y-31962336D01*
X145037868Y-31961338D01*
X144979636Y-31922728D01*
X144951522Y-31858764D01*
X144950499Y-31842872D01*
X144950499Y-31105143D01*
X144950499Y-31105136D01*
X144950306Y-31103469D01*
X144947586Y-31080012D01*
X144947585Y-31080010D01*
X144947585Y-31080009D01*
X144902206Y-30977235D01*
X144822765Y-30897794D01*
X144819902Y-30896530D01*
X144719992Y-30852415D01*
X144694865Y-30849500D01*
X142905143Y-30849500D01*
X142905117Y-30849502D01*
X142880012Y-30852413D01*
X142880008Y-30852415D01*
X142777235Y-30897793D01*
X142697794Y-30977234D01*
X142652415Y-31080006D01*
X142652415Y-31080008D01*
X142649500Y-31105131D01*
X136877185Y-31105131D01*
X136869499Y-31097445D01*
X136869494Y-31097441D01*
X136722997Y-30991006D01*
X136722996Y-30991005D01*
X136722994Y-30991004D01*
X136646906Y-30952235D01*
X136561639Y-30908788D01*
X136561636Y-30908787D01*
X136389410Y-30852829D01*
X136210551Y-30824500D01*
X136210546Y-30824500D01*
X136029454Y-30824500D01*
X136029449Y-30824500D01*
X135850589Y-30852829D01*
X135678363Y-30908787D01*
X135678360Y-30908788D01*
X135517002Y-30991006D01*
X135370505Y-31097441D01*
X135370500Y-31097445D01*
X135242445Y-31225500D01*
X135242441Y-31225505D01*
X135136006Y-31372002D01*
X135053788Y-31533360D01*
X135053787Y-31533363D01*
X134997829Y-31705589D01*
X134972473Y-31865678D01*
X134942544Y-31928813D01*
X134883232Y-31965744D01*
X134813369Y-31964746D01*
X134755137Y-31926136D01*
X134727527Y-31865678D01*
X134712907Y-31773375D01*
X134702171Y-31705591D01*
X134659708Y-31574901D01*
X134646212Y-31533363D01*
X134646211Y-31533360D01*
X134607191Y-31456780D01*
X134563996Y-31372006D01*
X134550182Y-31352993D01*
X134457558Y-31225505D01*
X134457554Y-31225500D01*
X134329499Y-31097445D01*
X134329494Y-31097441D01*
X134182997Y-30991006D01*
X134182996Y-30991005D01*
X134182994Y-30991004D01*
X134106906Y-30952235D01*
X134021639Y-30908788D01*
X134021636Y-30908787D01*
X133849410Y-30852829D01*
X133670551Y-30824500D01*
X133670546Y-30824500D01*
X133489454Y-30824500D01*
X133489449Y-30824500D01*
X133310589Y-30852829D01*
X133138363Y-30908787D01*
X133138360Y-30908788D01*
X132977002Y-30991006D01*
X132830505Y-31097441D01*
X132830500Y-31097445D01*
X132702445Y-31225500D01*
X132702441Y-31225505D01*
X132596004Y-31372004D01*
X132528908Y-31503685D01*
X132480933Y-31554480D01*
X132413112Y-31571275D01*
X132346977Y-31548737D01*
X132303527Y-31494021D01*
X132300492Y-31485705D01*
X132291094Y-31456780D01*
X132194620Y-31267442D01*
X132069727Y-31095540D01*
X132069723Y-31095535D01*
X131919464Y-30945276D01*
X131919459Y-30945272D01*
X131747557Y-30820379D01*
X131558215Y-30723903D01*
X131356124Y-30658241D01*
X131290000Y-30647768D01*
X131290000Y-31541988D01*
X131232993Y-31509075D01*
X131105826Y-31475000D01*
X130974174Y-31475000D01*
X130847007Y-31509075D01*
X130790000Y-31541988D01*
X130790000Y-30647768D01*
X130789999Y-30647768D01*
X130723875Y-30658241D01*
X130521784Y-30723903D01*
X130332442Y-30820379D01*
X130160540Y-30945272D01*
X130160535Y-30945276D01*
X130010276Y-31095535D01*
X130010272Y-31095540D01*
X129885376Y-31267445D01*
X129884981Y-31268222D01*
X129884752Y-31268463D01*
X129882832Y-31271598D01*
X129882173Y-31271194D01*
X129837004Y-31319016D01*
X129769183Y-31335808D01*
X129703049Y-31313267D01*
X129659600Y-31258550D01*
X129650499Y-31211922D01*
X129650499Y-31080143D01*
X129650499Y-31080136D01*
X129650484Y-31080006D01*
X129647586Y-31055012D01*
X129647585Y-31055010D01*
X129647585Y-31055009D01*
X129602206Y-30952235D01*
X129522765Y-30872794D01*
X129522763Y-30872793D01*
X129419992Y-30827415D01*
X129394865Y-30824500D01*
X127605143Y-30824500D01*
X127605117Y-30824502D01*
X127580012Y-30827413D01*
X127580008Y-30827415D01*
X127477235Y-30872793D01*
X127397794Y-30952234D01*
X127352415Y-31055006D01*
X127352415Y-31055008D01*
X127349500Y-31080131D01*
X66000500Y-31080131D01*
X66000500Y-28124500D01*
X66020185Y-28057461D01*
X66072989Y-28011706D01*
X66124500Y-28000500D01*
X163875500Y-28000500D01*
X163942539Y-28020185D01*
G37*
%TD.AperFunction*%
%TD*%
M02*
