%TF.GenerationSoftware,KiCad,Pcbnew,9.0.0*%
%TF.CreationDate,2025-04-23T22:05:31+03:00*%
%TF.ProjectId,LoRa,4c6f5261-2e6b-4696-9361-645f70636258,rev?*%
%TF.SameCoordinates,Original*%
%TF.FileFunction,Copper,L1,Top*%
%TF.FilePolarity,Positive*%
%FSLAX46Y46*%
G04 Gerber Fmt 4.6, Leading zero omitted, Abs format (unit mm)*
G04 Created by KiCad (PCBNEW 9.0.0) date 2025-04-23 22:05:31*
%MOMM*%
%LPD*%
G01*
G04 APERTURE LIST*
G04 Aperture macros list*
%AMRoundRect*
0 Rectangle with rounded corners*
0 $1 Rounding radius*
0 $2 $3 $4 $5 $6 $7 $8 $9 X,Y pos of 4 corners*
0 Add a 4 corners polygon primitive as box body*
4,1,4,$2,$3,$4,$5,$6,$7,$8,$9,$2,$3,0*
0 Add four circle primitives for the rounded corners*
1,1,$1+$1,$2,$3*
1,1,$1+$1,$4,$5*
1,1,$1+$1,$6,$7*
1,1,$1+$1,$8,$9*
0 Add four rect primitives between the rounded corners*
20,1,$1+$1,$2,$3,$4,$5,0*
20,1,$1+$1,$4,$5,$6,$7,0*
20,1,$1+$1,$6,$7,$8,$9,0*
20,1,$1+$1,$8,$9,$2,$3,0*%
G04 Aperture macros list end*
%TA.AperFunction,ComponentPad*%
%ADD10R,1.700000X1.700000*%
%TD*%
%TA.AperFunction,ComponentPad*%
%ADD11O,1.700000X1.700000*%
%TD*%
%TA.AperFunction,SMDPad,CuDef*%
%ADD12RoundRect,0.200000X-0.275000X0.200000X-0.275000X-0.200000X0.275000X-0.200000X0.275000X0.200000X0*%
%TD*%
%TA.AperFunction,SMDPad,CuDef*%
%ADD13RoundRect,0.250000X0.450000X-0.325000X0.450000X0.325000X-0.450000X0.325000X-0.450000X-0.325000X0*%
%TD*%
%TA.AperFunction,SMDPad,CuDef*%
%ADD14RoundRect,0.075000X-0.075000X-0.662500X0.075000X-0.662500X0.075000X0.662500X-0.075000X0.662500X0*%
%TD*%
%TA.AperFunction,SMDPad,CuDef*%
%ADD15RoundRect,0.075000X-0.662500X-0.075000X0.662500X-0.075000X0.662500X0.075000X-0.662500X0.075000X0*%
%TD*%
%TA.AperFunction,SMDPad,CuDef*%
%ADD16R,2.000000X2.000000*%
%TD*%
%TA.AperFunction,SMDPad,CuDef*%
%ADD17C,1.500000*%
%TD*%
%TA.AperFunction,SMDPad,CuDef*%
%ADD18RoundRect,0.237500X0.300000X0.237500X-0.300000X0.237500X-0.300000X-0.237500X0.300000X-0.237500X0*%
%TD*%
%TA.AperFunction,SMDPad,CuDef*%
%ADD19RoundRect,0.200000X-0.200000X-0.275000X0.200000X-0.275000X0.200000X0.275000X-0.200000X0.275000X0*%
%TD*%
%TA.AperFunction,ComponentPad*%
%ADD20RoundRect,0.250000X0.650000X1.550000X-0.650000X1.550000X-0.650000X-1.550000X0.650000X-1.550000X0*%
%TD*%
%TA.AperFunction,ComponentPad*%
%ADD21O,1.800000X3.600000*%
%TD*%
%TA.AperFunction,SMDPad,CuDef*%
%ADD22RoundRect,0.250000X-0.325000X-0.450000X0.325000X-0.450000X0.325000X0.450000X-0.325000X0.450000X0*%
%TD*%
%TA.AperFunction,SMDPad,CuDef*%
%ADD23RoundRect,0.237500X-0.237500X0.300000X-0.237500X-0.300000X0.237500X-0.300000X0.237500X0.300000X0*%
%TD*%
%TA.AperFunction,ComponentPad*%
%ADD24R,2.000000X2.000000*%
%TD*%
%TA.AperFunction,ComponentPad*%
%ADD25C,2.000000*%
%TD*%
%TA.AperFunction,SMDPad,CuDef*%
%ADD26RoundRect,0.300000X-1.075000X-0.700000X1.075000X-0.700000X1.075000X0.700000X-1.075000X0.700000X0*%
%TD*%
%TA.AperFunction,SMDPad,CuDef*%
%ADD27RoundRect,0.200000X0.200000X0.275000X-0.200000X0.275000X-0.200000X-0.275000X0.200000X-0.275000X0*%
%TD*%
%TA.AperFunction,ComponentPad*%
%ADD28RoundRect,0.250000X-0.650000X-1.550000X0.650000X-1.550000X0.650000X1.550000X-0.650000X1.550000X0*%
%TD*%
%TA.AperFunction,SMDPad,CuDef*%
%ADD29RoundRect,0.237500X-0.300000X-0.237500X0.300000X-0.237500X0.300000X0.237500X-0.300000X0.237500X0*%
%TD*%
%TA.AperFunction,SMDPad,CuDef*%
%ADD30R,1.300000X1.600000*%
%TD*%
%TA.AperFunction,ComponentPad*%
%ADD31C,1.500000*%
%TD*%
%TA.AperFunction,SMDPad,CuDef*%
%ADD32RoundRect,0.237500X0.237500X-0.300000X0.237500X0.300000X-0.237500X0.300000X-0.237500X-0.300000X0*%
%TD*%
%TA.AperFunction,ComponentPad*%
%ADD33C,2.400000*%
%TD*%
%TA.AperFunction,SMDPad,CuDef*%
%ADD34RoundRect,0.250000X0.650000X-0.325000X0.650000X0.325000X-0.650000X0.325000X-0.650000X-0.325000X0*%
%TD*%
%TA.AperFunction,SMDPad,CuDef*%
%ADD35RoundRect,0.250000X0.325000X0.450000X-0.325000X0.450000X-0.325000X-0.450000X0.325000X-0.450000X0*%
%TD*%
%TA.AperFunction,ViaPad*%
%ADD36C,0.600000*%
%TD*%
%TA.AperFunction,Conductor*%
%ADD37C,0.160000*%
%TD*%
%TA.AperFunction,Conductor*%
%ADD38C,1.000000*%
%TD*%
%TA.AperFunction,Conductor*%
%ADD39C,0.180000*%
%TD*%
%TA.AperFunction,Conductor*%
%ADD40C,0.250000*%
%TD*%
G04 APERTURE END LIST*
D10*
%TO.P,SWD1,1,Pin_1*%
%TO.N,+3.3V*%
X143800000Y-32000000D03*
D11*
%TO.P,SWD1,2,Pin_2*%
%TO.N,/SWDCLK*%
X146340000Y-32000000D03*
%TO.P,SWD1,3,Pin_3*%
%TO.N,/SWDIO*%
X148880000Y-32000000D03*
%TO.P,SWD1,4,Pin_4*%
%TO.N,GND*%
X151420000Y-32000000D03*
%TD*%
D10*
%TO.P,J4,1,Pin_1*%
%TO.N,+3.3V*%
X160175000Y-71120000D03*
D11*
%TO.P,J4,2,Pin_2*%
%TO.N,/Debug_Tx*%
X160175000Y-68580000D03*
%TO.P,J4,3,Pin_3*%
%TO.N,/Debug_Rx*%
X160175000Y-66040000D03*
%TO.P,J4,4,Pin_4*%
%TO.N,GND*%
X160175000Y-63500000D03*
%TD*%
D12*
%TO.P,R3,2*%
%TO.N,/led_katot*%
X151500000Y-58825000D03*
%TO.P,R3,1*%
%TO.N,GND*%
X151500000Y-57175000D03*
%TD*%
D13*
%TO.P,D1,2,A*%
%TO.N,/debug_led_anot*%
X149250000Y-57225000D03*
%TO.P,D1,1,K*%
%TO.N,/led_katot*%
X149250000Y-59275000D03*
%TD*%
D14*
%TO.P,U2,48,VDD*%
%TO.N,+3.3V*%
X137050000Y-46437500D03*
%TO.P,U2,47,VSS*%
%TO.N,GND*%
X137550000Y-46437500D03*
%TO.P,U2,46,PB9*%
%TO.N,unconnected-(U2-PB9-Pad46)*%
X138050000Y-46437500D03*
%TO.P,U2,45,PB8*%
%TO.N,unconnected-(U2-PB8-Pad45)*%
X138550000Y-46437500D03*
%TO.P,U2,44,BOOT0*%
%TO.N,/BOOT0*%
X139050000Y-46437500D03*
%TO.P,U2,43,PB7*%
%TO.N,/SHT31_SDA*%
X139550000Y-46437500D03*
%TO.P,U2,42,PB6*%
%TO.N,Net-(U2-PB6)*%
X140050000Y-46437500D03*
%TO.P,U2,41,PB5*%
%TO.N,unconnected-(U2-PB5-Pad41)*%
X140550000Y-46437500D03*
%TO.P,U2,40,PB4*%
%TO.N,unconnected-(U2-PB4-Pad40)*%
X141050000Y-46437500D03*
%TO.P,U2,39,PB3*%
%TO.N,unconnected-(U2-PB3-Pad39)*%
X141550000Y-46437500D03*
%TO.P,U2,38,PA15*%
%TO.N,unconnected-(U2-PA15-Pad38)*%
X142050000Y-46437500D03*
%TO.P,U2,37,PA14*%
%TO.N,/SWDCLK*%
X142550000Y-46437500D03*
D15*
%TO.P,U2,36,VDD*%
%TO.N,+3.3V*%
X143962500Y-47850000D03*
%TO.P,U2,35,VSS*%
%TO.N,GND*%
X143962500Y-48350000D03*
%TO.P,U2,34,PA13*%
%TO.N,/SWDIO*%
X143962500Y-48850000D03*
%TO.P,U2,33,PA12*%
%TO.N,/M0*%
X143962500Y-49350000D03*
%TO.P,U2,32,PA11*%
%TO.N,/M1*%
X143962500Y-49850000D03*
%TO.P,U2,31,PA10*%
%TO.N,/mcu_LoRa_RX*%
X143962500Y-50350000D03*
%TO.P,U2,30,PA9*%
%TO.N,/mcu_LoRa_TX*%
X143962500Y-50850000D03*
%TO.P,U2,29,PA8*%
%TO.N,/AUX*%
X143962500Y-51350000D03*
%TO.P,U2,28,PB15*%
%TO.N,unconnected-(U2-PB15-Pad28)*%
X143962500Y-51850000D03*
%TO.P,U2,27,PB14*%
%TO.N,unconnected-(U2-PB14-Pad27)*%
X143962500Y-52350000D03*
%TO.P,U2,26,PB13*%
%TO.N,/debug_led_anot*%
X143962500Y-52850000D03*
%TO.P,U2,25,PB12*%
%TO.N,unconnected-(U2-PB12-Pad25)*%
X143962500Y-53350000D03*
D14*
%TO.P,U2,24,VDD*%
%TO.N,+3.3V*%
X142550000Y-54762500D03*
%TO.P,U2,23,VSS*%
%TO.N,GND*%
X142050000Y-54762500D03*
%TO.P,U2,22,PB11*%
%TO.N,/Debug_Rx*%
X141550000Y-54762500D03*
%TO.P,U2,21,PB10*%
%TO.N,/Debug_Tx*%
X141050000Y-54762500D03*
%TO.P,U2,20,PB2*%
%TO.N,unconnected-(U2-PB2-Pad20)*%
X140550000Y-54762500D03*
%TO.P,U2,19,PB1*%
%TO.N,unconnected-(U2-PB1-Pad19)*%
X140050000Y-54762500D03*
%TO.P,U2,18,PB0*%
%TO.N,/CO_ADC*%
X139550000Y-54762500D03*
%TO.P,U2,17,PA7*%
%TO.N,/CO_Enb*%
X139050000Y-54762500D03*
%TO.P,U2,16,PA6*%
%TO.N,unconnected-(U2-PA6-Pad16)*%
X138550000Y-54762500D03*
%TO.P,U2,15,PA5*%
%TO.N,unconnected-(U2-PA5-Pad15)*%
X138050000Y-54762500D03*
%TO.P,U2,14,PA4*%
%TO.N,unconnected-(U2-PA4-Pad14)*%
X137550000Y-54762500D03*
%TO.P,U2,13,PA3*%
%TO.N,/mcu__pm_rx*%
X137050000Y-54762500D03*
D15*
%TO.P,U2,12,PA2*%
%TO.N,/mcu_pm_tx*%
X135637500Y-53350000D03*
%TO.P,U2,11,PA1*%
%TO.N,unconnected-(U2-PA1-Pad11)*%
X135637500Y-52850000D03*
%TO.P,U2,10,PA0*%
%TO.N,unconnected-(U2-PA0-Pad10)*%
X135637500Y-52350000D03*
%TO.P,U2,9,VDDA*%
%TO.N,+3.3V*%
X135637500Y-51850000D03*
%TO.P,U2,8,VSSA*%
%TO.N,GND*%
X135637500Y-51350000D03*
%TO.P,U2,7,NRST*%
%TO.N,/Reset*%
X135637500Y-50850000D03*
%TO.P,U2,6,PD1*%
%TO.N,/OSCOUT*%
X135637500Y-50350000D03*
%TO.P,U2,5,PD0*%
%TO.N,/OSCIN*%
X135637500Y-49850000D03*
%TO.P,U2,4,PC15*%
%TO.N,unconnected-(U2-PC15-Pad4)*%
X135637500Y-49350000D03*
%TO.P,U2,3,PC14*%
%TO.N,unconnected-(U2-PC14-Pad3)*%
X135637500Y-48850000D03*
%TO.P,U2,2,PC13*%
%TO.N,unconnected-(U2-PC13-Pad2)*%
X135637500Y-48350000D03*
%TO.P,U2,1,VBAT*%
%TO.N,+3.3V*%
X135637500Y-47850000D03*
%TD*%
D16*
%TO.P,TP1,1,1*%
%TO.N,GND*%
X111750000Y-66500000D03*
%TD*%
D17*
%TO.P,TP6,1,1*%
%TO.N,/M1*%
X155800000Y-45900000D03*
%TD*%
%TO.P,TP2,1,1*%
%TO.N,/CO_ADC*%
X145700000Y-66100000D03*
%TD*%
D18*
%TO.P,C1,1*%
%TO.N,+3.3V*%
X144612500Y-35000000D03*
%TO.P,C1,2*%
%TO.N,GND*%
X142887500Y-35000000D03*
%TD*%
D19*
%TO.P,R6,2*%
%TO.N,Net-(U2-PB6)*%
X140325000Y-39250000D03*
%TO.P,R6,1*%
%TO.N,/SHT31_SCL*%
X138675000Y-39250000D03*
%TD*%
D17*
%TO.P,TP3,1,1*%
%TO.N,/CO_Enb*%
X142800000Y-66100000D03*
%TD*%
D20*
%TO.P,J2,1,Pin_1*%
%TO.N,+5V_INPUT*%
X85732500Y-70000000D03*
D21*
%TO.P,J2,2,Pin_2*%
%TO.N,GND*%
X82232500Y-70000000D03*
%TD*%
D22*
%TO.P,D2,1,K*%
%TO.N,GND*%
X110975000Y-30000000D03*
%TO.P,D2,2,A*%
%TO.N,Net-(D2-A)*%
X113025000Y-30000000D03*
%TD*%
D23*
%TO.P,C19,1*%
%TO.N,+3.3V*%
X113000000Y-45137500D03*
%TO.P,C19,2*%
%TO.N,GND*%
X113000000Y-46862500D03*
%TD*%
D10*
%TO.P,pm2.5,1,Pin_1*%
%TO.N,+5V*%
X126400000Y-71250000D03*
D11*
%TO.P,pm2.5,2,Pin_2*%
%TO.N,GND*%
X128940000Y-71250000D03*
%TO.P,pm2.5,3,Pin_3*%
%TO.N,/mcu_pm_tx*%
X131480000Y-71250000D03*
%TO.P,pm2.5,4,Pin_4*%
%TO.N,/mcu__pm_rx*%
X134020000Y-71250000D03*
%TD*%
D24*
%TO.P,C5,1*%
%TO.N,+3.3V_INPUT*%
X84000000Y-42632323D03*
D25*
%TO.P,C5,2*%
%TO.N,GND*%
X84000000Y-47632323D03*
%TD*%
D26*
%TO.P,RESET1,1,1*%
%TO.N,GND*%
X116380000Y-60500000D03*
%TO.P,RESET1,2,2*%
%TO.N,/Reset*%
X125630000Y-60500000D03*
%TD*%
D27*
%TO.P,R1,1*%
%TO.N,/B0*%
X148825000Y-39000000D03*
%TO.P,R1,2*%
%TO.N,/BOOT0*%
X147175000Y-39000000D03*
%TD*%
D19*
%TO.P,R5,1*%
%TO.N,Net-(D3-A)*%
X111175000Y-72000000D03*
%TO.P,R5,2*%
%TO.N,+5V*%
X112825000Y-72000000D03*
%TD*%
D23*
%TO.P,C18,1*%
%TO.N,+5V*%
X117000000Y-70137500D03*
%TO.P,C18,2*%
%TO.N,GND*%
X117000000Y-71862500D03*
%TD*%
D24*
%TO.P,C10,1*%
%TO.N,+5V_INPUT*%
X84000000Y-60907677D03*
D25*
%TO.P,C10,2*%
%TO.N,GND*%
X84000000Y-55907677D03*
%TD*%
D23*
%TO.P,C17,1*%
%TO.N,+5V*%
X154250000Y-70387500D03*
%TO.P,C17,2*%
%TO.N,GND*%
X154250000Y-72112500D03*
%TD*%
D10*
%TO.P,LoRa1,1,Pin_1*%
%TO.N,GND*%
X160175000Y-58200000D03*
D11*
%TO.P,LoRa1,2,Pin_2*%
%TO.N,+3.3V*%
X160175000Y-55660000D03*
%TO.P,LoRa1,3,Pin_3*%
%TO.N,/AUX*%
X160175000Y-53120000D03*
%TO.P,LoRa1,4,Pin_4*%
%TO.N,/mcu_LoRa_RX*%
X160175000Y-50580000D03*
%TO.P,LoRa1,5,Pin_5*%
%TO.N,/mcu_LoRa_TX*%
X160175000Y-48040000D03*
%TO.P,LoRa1,6,Pin_6*%
%TO.N,/M1*%
X160175000Y-45500000D03*
%TO.P,LoRa1,7,Pin_7*%
%TO.N,/M0*%
X160175000Y-42960000D03*
%TD*%
D28*
%TO.P,J1,1,Pin_1*%
%TO.N,GND*%
X82267500Y-33642500D03*
D21*
%TO.P,J1,2,Pin_2*%
%TO.N,+3.3V_INPUT*%
X85767500Y-33642500D03*
%TD*%
D27*
%TO.P,R4,1*%
%TO.N,Net-(D2-A)*%
X112825000Y-32900000D03*
%TO.P,R4,2*%
%TO.N,+3.3V*%
X111175000Y-32900000D03*
%TD*%
D29*
%TO.P,C15,1*%
%TO.N,+3.3V*%
X127537500Y-35700000D03*
%TO.P,C15,2*%
%TO.N,GND*%
X129262500Y-35700000D03*
%TD*%
%TO.P,C11,1*%
%TO.N,+3.3V*%
X144387500Y-55250000D03*
%TO.P,C11,2*%
%TO.N,GND*%
X146112500Y-55250000D03*
%TD*%
D23*
%TO.P,C16,1*%
%TO.N,+3.3V*%
X157100000Y-55737500D03*
%TO.P,C16,2*%
%TO.N,GND*%
X157100000Y-57462500D03*
%TD*%
D30*
%TO.P,Y1,1,1*%
%TO.N,/OSCOUT*%
X128750000Y-51650000D03*
%TO.P,Y1,2,2*%
%TO.N,GND*%
X128750000Y-48350000D03*
%TO.P,Y1,3,3*%
%TO.N,/OSCIN*%
X126750000Y-48350000D03*
%TO.P,Y1,4,4*%
%TO.N,GND*%
X126750000Y-51650000D03*
%TD*%
D31*
%TO.P,J5,1,Pin_1*%
%TO.N,GND*%
X160150000Y-37000000D03*
%TO.P,J5,2,Pin_2*%
%TO.N,/B0*%
X160150000Y-34000000D03*
%TO.P,J5,3,Pin_3*%
%TO.N,+3.3V*%
X160150000Y-31000000D03*
%TD*%
D18*
%TO.P,C4,1*%
%TO.N,/Reset*%
X121612500Y-63750000D03*
%TO.P,C4,2*%
%TO.N,GND*%
X119887500Y-63750000D03*
%TD*%
D24*
%TO.P,C13,1*%
%TO.N,+5V*%
X100000000Y-60907677D03*
D25*
%TO.P,C13,2*%
%TO.N,GND*%
X100000000Y-55907677D03*
%TD*%
D19*
%TO.P,R2,1*%
%TO.N,+3.3V*%
X124925000Y-57000000D03*
%TO.P,R2,2*%
%TO.N,/Reset*%
X126575000Y-57000000D03*
%TD*%
D32*
%TO.P,C8,1*%
%TO.N,+3.3V*%
X133400000Y-42462500D03*
%TO.P,C8,2*%
%TO.N,GND*%
X133400000Y-40737500D03*
%TD*%
D33*
%TO.P,L2,1,1*%
%TO.N,+5V_INPUT*%
X97500000Y-70000000D03*
%TO.P,L2,2,2*%
%TO.N,+5V*%
X102500000Y-70000000D03*
%TD*%
D32*
%TO.P,C9,1*%
%TO.N,+3.3V*%
X145100000Y-46062500D03*
%TO.P,C9,2*%
%TO.N,GND*%
X145100000Y-44337500D03*
%TD*%
D18*
%TO.P,C12,1*%
%TO.N,+3.3V*%
X133162500Y-48200000D03*
%TO.P,C12,2*%
%TO.N,GND*%
X131437500Y-48200000D03*
%TD*%
D33*
%TO.P,L1,1,1*%
%TO.N,+3.3V_INPUT*%
X97500000Y-33000000D03*
%TO.P,L1,2,2*%
%TO.N,+3.3V*%
X102500000Y-33000000D03*
%TD*%
D17*
%TO.P,TP4,1,1*%
%TO.N,/M0*%
X155800000Y-43100000D03*
%TD*%
D23*
%TO.P,C2,1*%
%TO.N,GND*%
X124250000Y-47387500D03*
%TO.P,C2,2*%
%TO.N,/OSCIN*%
X124250000Y-49112500D03*
%TD*%
D10*
%TO.P,SHT31,1,Pin_1*%
%TO.N,+3.3V*%
X128500000Y-31975000D03*
D11*
%TO.P,SHT31,2,Pin_2*%
%TO.N,GND*%
X131040000Y-31975000D03*
%TO.P,SHT31,3,Pin_3*%
%TO.N,/SHT31_SCL*%
X133580000Y-31975000D03*
%TO.P,SHT31,4,Pin_4*%
%TO.N,/SHT31_SDA*%
X136120000Y-31975000D03*
%TD*%
D34*
%TO.P,C7,1*%
%TO.N,+3.3V*%
X136000000Y-42575000D03*
%TO.P,C7,2*%
%TO.N,GND*%
X136000000Y-39625000D03*
%TD*%
D17*
%TO.P,TP5,1,1*%
%TO.N,/SHT31_SCL*%
X136250000Y-36250000D03*
%TD*%
%TO.P,TP7,1,1*%
%TO.N,/SHT31_SDA*%
X139500000Y-36250000D03*
%TD*%
D24*
%TO.P,C6,1*%
%TO.N,+3.3V*%
X100000000Y-42632323D03*
D25*
%TO.P,C6,2*%
%TO.N,GND*%
X100000000Y-47632323D03*
%TD*%
D35*
%TO.P,D3,1,K*%
%TO.N,GND*%
X113025000Y-74000000D03*
%TO.P,D3,2,A*%
%TO.N,Net-(D3-A)*%
X110975000Y-74000000D03*
%TD*%
D10*
%TO.P,J3,1,Pin_1*%
%TO.N,/CO_Enb*%
X143500000Y-71275000D03*
D11*
%TO.P,J3,2,Pin_2*%
%TO.N,/CO_ADC*%
X146040000Y-71275000D03*
%TO.P,J3,3,Pin_3*%
%TO.N,GND*%
X148580000Y-71275000D03*
%TO.P,J3,4,Pin_4*%
%TO.N,+5V*%
X151120000Y-71275000D03*
%TD*%
D32*
%TO.P,C3,1*%
%TO.N,GND*%
X124250000Y-53112500D03*
%TO.P,C3,2*%
%TO.N,/OSCOUT*%
X124250000Y-51387500D03*
%TD*%
D18*
%TO.P,C14,1*%
%TO.N,+3.3V*%
X133362500Y-52750000D03*
%TO.P,C14,2*%
%TO.N,GND*%
X131637500Y-52750000D03*
%TD*%
D36*
%TO.N,GND*%
X113500000Y-66750000D03*
X146000000Y-54000000D03*
X142500000Y-56250000D03*
X151250000Y-56000000D03*
X154000000Y-73250000D03*
X107500000Y-56250000D03*
X106250000Y-55000000D03*
X106250000Y-53750000D03*
X107500000Y-55000000D03*
X107500000Y-53750000D03*
X106250000Y-52500000D03*
X106250000Y-51250000D03*
X106250000Y-50000000D03*
X106250000Y-48750000D03*
X107500000Y-52500000D03*
X107500000Y-51250000D03*
X107500000Y-50000000D03*
X107500000Y-48750000D03*
X107500000Y-47500000D03*
X116000000Y-59000000D03*
X132000000Y-51500000D03*
X134000000Y-51500000D03*
X138000000Y-45000000D03*
X145500000Y-48000000D03*
X145250000Y-43250000D03*
X131250000Y-47250000D03*
X128750000Y-47000000D03*
X123000000Y-47250000D03*
X123000000Y-53250000D03*
X126750000Y-53000000D03*
X155750000Y-57750000D03*
X135750000Y-38750000D03*
X132500000Y-40750000D03*
X129250000Y-36750000D03*
X109750000Y-30000000D03*
X113000000Y-47750000D03*
X118750000Y-63750000D03*
X117000000Y-72750000D03*
X114250000Y-74250000D03*
%TD*%
D37*
%TO.N,+3.3V*%
X144612500Y-32812500D02*
X143800000Y-32000000D01*
X144612500Y-35000000D02*
X144612500Y-32812500D01*
%TO.N,GND*%
X113250000Y-66500000D02*
X113500000Y-66750000D01*
X111750000Y-66500000D02*
X113250000Y-66500000D01*
X146112500Y-54112500D02*
X146000000Y-54000000D01*
X146112500Y-55250000D02*
X146112500Y-54112500D01*
D38*
%TO.N,+3.3V*%
X163250000Y-68045000D02*
X163250000Y-55250000D01*
X160175000Y-71120000D02*
X163250000Y-68045000D01*
D39*
%TO.N,/debug_led_anot*%
X146475822Y-52850000D02*
X149250000Y-55624178D01*
X149250000Y-55624178D02*
X149250000Y-57225000D01*
%TO.N,+3.3V*%
X143037500Y-55250000D02*
X144387500Y-55250000D01*
X142550000Y-54762500D02*
X143037500Y-55250000D01*
%TO.N,/Debug_Tx*%
X153455384Y-68580000D02*
X160175000Y-68580000D01*
X141050000Y-56174616D02*
X153455384Y-68580000D01*
X141050000Y-54762500D02*
X141050000Y-56174616D01*
%TO.N,/Debug_Rx*%
X151454199Y-66040000D02*
X160175000Y-66040000D01*
X141550000Y-56135801D02*
X151454199Y-66040000D01*
X141550000Y-54762500D02*
X141550000Y-56135801D01*
%TO.N,GND*%
X142050000Y-55800000D02*
X142500000Y-56250000D01*
X142050000Y-54762500D02*
X142050000Y-55800000D01*
%TO.N,/led_katot*%
X151050000Y-59275000D02*
X151500000Y-58825000D01*
X149250000Y-59275000D02*
X151050000Y-59275000D01*
%TO.N,GND*%
X151500000Y-57175000D02*
X151500000Y-56250000D01*
X151500000Y-56250000D02*
X151250000Y-56000000D01*
X154250000Y-73000000D02*
X154000000Y-73250000D01*
X154250000Y-72112500D02*
X154250000Y-73000000D01*
%TO.N,+5V*%
X154250000Y-70387500D02*
X152007500Y-70387500D01*
X152007500Y-70387500D02*
X151120000Y-71275000D01*
%TO.N,Net-(U2-PB6)*%
X140050000Y-39525000D02*
X140050000Y-46437500D01*
X140325000Y-39250000D02*
X140050000Y-39525000D01*
%TO.N,/SHT31_SCL*%
X136250000Y-36825000D02*
X138675000Y-39250000D01*
X136250000Y-36250000D02*
X136250000Y-36825000D01*
%TO.N,GND*%
X116380000Y-59380000D02*
X116000000Y-59000000D01*
X116380000Y-60500000D02*
X116380000Y-59380000D01*
D40*
%TO.N,/SHT31_SCL*%
X136250000Y-36825000D02*
X136250000Y-36666000D01*
D39*
%TO.N,/debug_led_anot*%
X146475822Y-52850000D02*
X143962500Y-52850000D01*
%TO.N,GND*%
X131637500Y-51862500D02*
X132000000Y-51500000D01*
X131637500Y-52750000D02*
X131637500Y-51862500D01*
%TO.N,+3.3V*%
X133980318Y-52750000D02*
X134880318Y-51850000D01*
X134880318Y-51850000D02*
X135637500Y-51850000D01*
X133362500Y-52750000D02*
X133980318Y-52750000D01*
%TO.N,GND*%
X134150000Y-51350000D02*
X134000000Y-51500000D01*
X135637500Y-51350000D02*
X134150000Y-51350000D01*
X137550000Y-45450000D02*
X138000000Y-45000000D01*
X137550000Y-46437500D02*
X137550000Y-45450000D01*
X145150000Y-48350000D02*
X145500000Y-48000000D01*
X143962500Y-48350000D02*
X145150000Y-48350000D01*
X145100000Y-43400000D02*
X145250000Y-43250000D01*
X145100000Y-44337500D02*
X145100000Y-43400000D01*
%TO.N,+3.3V*%
X145100000Y-46712500D02*
X143962500Y-47850000D01*
X145100000Y-46062500D02*
X145100000Y-46712500D01*
%TO.N,GND*%
X131437500Y-47437500D02*
X131250000Y-47250000D01*
X131437500Y-48200000D02*
X131437500Y-47437500D01*
X128750000Y-48350000D02*
X128750000Y-47000000D01*
X123137500Y-47387500D02*
X123000000Y-47250000D01*
X124250000Y-47387500D02*
X123137500Y-47387500D01*
X123137500Y-53112500D02*
X123000000Y-53250000D01*
X124250000Y-53112500D02*
X123137500Y-53112500D01*
X126750000Y-51650000D02*
X126750000Y-53000000D01*
X156037500Y-57462500D02*
X155750000Y-57750000D01*
X157100000Y-57462500D02*
X156037500Y-57462500D01*
%TO.N,+3.3V*%
X143612500Y-32187500D02*
X143800000Y-32000000D01*
%TO.N,GND*%
X136000000Y-39000000D02*
X135750000Y-38750000D01*
X136000000Y-39625000D02*
X136000000Y-39000000D01*
X132512500Y-40737500D02*
X132500000Y-40750000D01*
X133400000Y-40737500D02*
X132512500Y-40737500D01*
X129262500Y-36737500D02*
X129250000Y-36750000D01*
X129262500Y-35700000D02*
X129262500Y-36737500D01*
X110975000Y-30000000D02*
X109750000Y-30000000D01*
X113000000Y-46862500D02*
X113000000Y-47750000D01*
X119887500Y-63750000D02*
X118750000Y-63750000D01*
X117000000Y-71862500D02*
X117000000Y-72750000D01*
X114000000Y-74000000D02*
X114250000Y-74250000D01*
X113025000Y-74000000D02*
X114000000Y-74000000D01*
%TO.N,+5V*%
X112825000Y-72000000D02*
X112825000Y-70175000D01*
D38*
X102500000Y-70000000D02*
X113000000Y-70000000D01*
D39*
X112825000Y-70175000D02*
X113000000Y-70000000D01*
%TO.N,/OSCOUT*%
X128250000Y-50500000D02*
X128750000Y-51000000D01*
X125137500Y-50500000D02*
X128250000Y-50500000D01*
X124250000Y-51387500D02*
X125137500Y-50500000D01*
X128750000Y-51000000D02*
X128750000Y-51650000D01*
%TO.N,/OSCIN*%
X125987500Y-49112500D02*
X126750000Y-48350000D01*
X124250000Y-49112500D02*
X125987500Y-49112500D01*
%TO.N,+3.3V*%
X127537500Y-32937500D02*
X128500000Y-31975000D01*
X127537500Y-35700000D02*
X127537500Y-32937500D01*
%TO.N,Net-(D3-A)*%
X110975000Y-72200000D02*
X111175000Y-72000000D01*
X110975000Y-74000000D02*
X110975000Y-72200000D01*
%TO.N,/CO_ADC*%
X145700000Y-66100000D02*
X139550000Y-59950000D01*
X139550000Y-59950000D02*
X139550000Y-54762500D01*
%TO.N,/CO_Enb*%
X139050000Y-62350000D02*
X139050000Y-54762500D01*
X142800000Y-66100000D02*
X139050000Y-62350000D01*
X143500000Y-66800000D02*
X142800000Y-66100000D01*
X143500000Y-71275000D02*
X143500000Y-66800000D01*
%TO.N,/CO_ADC*%
X146040000Y-66440000D02*
X145700000Y-66100000D01*
X146040000Y-71275000D02*
X146040000Y-66440000D01*
%TO.N,+5V*%
X151120000Y-71275000D02*
X151120000Y-70880000D01*
%TO.N,+3.3V*%
X160097500Y-55737500D02*
X160175000Y-55660000D01*
X157100000Y-55737500D02*
X160097500Y-55737500D01*
%TO.N,/AUX*%
X148370000Y-53120000D02*
X146600000Y-51350000D01*
X160175000Y-53120000D02*
X148370000Y-53120000D01*
X146600000Y-51350000D02*
X143962500Y-51350000D01*
%TO.N,/mcu_LoRa_RX*%
X159945000Y-50350000D02*
X160175000Y-50580000D01*
X143962500Y-50350000D02*
X159945000Y-50350000D01*
%TO.N,/mcu_LoRa_TX*%
X147600000Y-50850000D02*
X143962500Y-50850000D01*
X148500000Y-51750000D02*
X147600000Y-50850000D01*
X161500000Y-51750000D02*
X148500000Y-51750000D01*
X162000000Y-51250000D02*
X161500000Y-51750000D01*
X162000000Y-48500000D02*
X162000000Y-51250000D01*
X161540000Y-48040000D02*
X162000000Y-48500000D01*
X160175000Y-48040000D02*
X161540000Y-48040000D01*
%TO.N,/M1*%
X151850000Y-49850000D02*
X143962500Y-49850000D01*
X155800000Y-45900000D02*
X151850000Y-49850000D01*
X156200000Y-45500000D02*
X155800000Y-45900000D01*
X160175000Y-45500000D02*
X156200000Y-45500000D01*
%TO.N,/M0*%
X149550000Y-49350000D02*
X143962500Y-49350000D01*
X155800000Y-43100000D02*
X149550000Y-49350000D01*
X160175000Y-42960000D02*
X155940000Y-42960000D01*
X155940000Y-42960000D02*
X155800000Y-43100000D01*
%TO.N,/B0*%
X153825000Y-39000000D02*
X154825000Y-38000000D01*
X148825000Y-39000000D02*
X153825000Y-39000000D01*
%TO.N,/BOOT0*%
X146500000Y-39000000D02*
X147175000Y-39000000D01*
X143750000Y-41750000D02*
X146500000Y-39000000D01*
X142778682Y-47466000D02*
X143750000Y-46494682D01*
X143750000Y-46494682D02*
X143750000Y-41750000D01*
X139050000Y-47194682D02*
X139321318Y-47466000D01*
X139321318Y-47466000D02*
X142778682Y-47466000D01*
X139050000Y-46437500D02*
X139050000Y-47194682D01*
%TO.N,/SHT31_SDA*%
X139500000Y-46387500D02*
X139550000Y-46437500D01*
X139500000Y-36250000D02*
X139500000Y-46387500D01*
D37*
%TO.N,/SWDIO*%
X148000000Y-47000000D02*
X146150000Y-48850000D01*
X146150000Y-48850000D02*
X143962500Y-48850000D01*
X148000000Y-32880000D02*
X148000000Y-47000000D01*
X148880000Y-32000000D02*
X148000000Y-32880000D01*
%TO.N,/SWDCLK*%
X142550000Y-41450000D02*
X142550000Y-46437500D01*
X146250000Y-37750000D02*
X142550000Y-41450000D01*
X146250000Y-32090000D02*
X146250000Y-37750000D01*
X146340000Y-32000000D02*
X146250000Y-32090000D01*
D39*
%TO.N,/SHT31_SCL*%
X136250000Y-34645000D02*
X136250000Y-36250000D01*
X133580000Y-31975000D02*
X136250000Y-34645000D01*
%TO.N,Net-(D2-A)*%
X112825000Y-30200000D02*
X113025000Y-30000000D01*
X112825000Y-32900000D02*
X112825000Y-30200000D01*
%TO.N,+3.3V*%
X111175000Y-33575000D02*
X109750000Y-35000000D01*
X111175000Y-32900000D02*
X111175000Y-33575000D01*
D38*
X109750000Y-35000000D02*
X119750000Y-35000000D01*
D39*
%TO.N,/Reset*%
X121612500Y-62387500D02*
X121612500Y-63750000D01*
X123500000Y-60500000D02*
X121612500Y-62387500D01*
X125630000Y-60500000D02*
X123500000Y-60500000D01*
D37*
%TO.N,GND*%
X119887500Y-62137500D02*
X119887500Y-63750000D01*
X118250000Y-60500000D02*
X119887500Y-62137500D01*
X116380000Y-60500000D02*
X118250000Y-60500000D01*
%TO.N,+3.3V*%
X119500000Y-54250000D02*
X119500000Y-45000000D01*
X122250000Y-57000000D02*
X119500000Y-54250000D01*
X124925000Y-57000000D02*
X122250000Y-57000000D01*
%TO.N,/Reset*%
X125630000Y-58120000D02*
X125630000Y-60500000D01*
X126575000Y-57175000D02*
X125630000Y-58120000D01*
X126575000Y-57000000D02*
X126575000Y-57175000D01*
X128750000Y-57000000D02*
X126575000Y-57000000D01*
X130000000Y-55750000D02*
X128750000Y-57000000D01*
X130000000Y-51250000D02*
X130000000Y-55750000D01*
X130400000Y-50850000D02*
X130000000Y-51250000D01*
X135637500Y-50850000D02*
X130400000Y-50850000D01*
%TO.N,/OSCOUT*%
X130050000Y-50350000D02*
X135637500Y-50350000D01*
X128750000Y-51650000D02*
X130050000Y-50350000D01*
%TO.N,/OSCIN*%
X128250000Y-49850000D02*
X135637500Y-49850000D01*
X126750000Y-48350000D02*
X128250000Y-49850000D01*
D38*
%TO.N,+5V*%
X121000000Y-72000000D02*
X121000000Y-70000000D01*
X123000000Y-74000000D02*
X121000000Y-72000000D01*
X149750000Y-74000000D02*
X123000000Y-74000000D01*
X151120000Y-72630000D02*
X149750000Y-74000000D01*
X151120000Y-71275000D02*
X151120000Y-72630000D01*
%TO.N,+3.3V*%
X143800000Y-29050000D02*
X143500000Y-28750000D01*
X143800000Y-32000000D02*
X143800000Y-29050000D01*
X143500000Y-28750000D02*
X157900000Y-28750000D01*
X128500000Y-31975000D02*
X128500000Y-29000000D01*
X128750000Y-28750000D02*
X143500000Y-28750000D01*
X128500000Y-29000000D02*
X128750000Y-28750000D01*
X163250000Y-29750000D02*
X162250000Y-28750000D01*
X163250000Y-55250000D02*
X163250000Y-29750000D01*
X162250000Y-28750000D02*
X157900000Y-28750000D01*
X162840000Y-55660000D02*
X163250000Y-55250000D01*
X160175000Y-55660000D02*
X162840000Y-55660000D01*
X126000000Y-28750000D02*
X128750000Y-28750000D01*
X104500000Y-35000000D02*
X109750000Y-35000000D01*
X157900000Y-28750000D02*
X160150000Y-31000000D01*
X102500000Y-33000000D02*
X104500000Y-35000000D01*
X119750000Y-35000000D02*
X126000000Y-28750000D01*
D37*
X137650000Y-47850000D02*
X137000000Y-48500000D01*
X137000000Y-48500000D02*
X137000000Y-49500000D01*
X143962500Y-47850000D02*
X137650000Y-47850000D01*
X142550000Y-54762500D02*
X142550000Y-53550000D01*
X142550000Y-53550000D02*
X138500000Y-49500000D01*
X137000000Y-49500000D02*
X137000000Y-51500000D01*
X138500000Y-49500000D02*
X137000000Y-49500000D01*
X136650000Y-51850000D02*
X135637500Y-51850000D01*
X137000000Y-51500000D02*
X136650000Y-51850000D01*
X137000000Y-48000000D02*
X137000000Y-48500000D01*
X135637500Y-47850000D02*
X136850000Y-47850000D01*
X136850000Y-47850000D02*
X137000000Y-48000000D01*
X133512500Y-47850000D02*
X133162500Y-48200000D01*
X135637500Y-47850000D02*
X133512500Y-47850000D01*
%TO.N,/mcu__pm_rx*%
X137050000Y-55950000D02*
X134000000Y-59000000D01*
X134000000Y-59000000D02*
X134020000Y-59020000D01*
X137050000Y-54762500D02*
X137050000Y-55950000D01*
X134020000Y-59020000D02*
X134020000Y-71250000D01*
%TO.N,/mcu_pm_tx*%
X131480000Y-57507500D02*
X131480000Y-71250000D01*
X135637500Y-53350000D02*
X131480000Y-57507500D01*
D38*
%TO.N,+5V*%
X121000000Y-70000000D02*
X125150000Y-70000000D01*
D37*
%TO.N,/B0*%
X156000000Y-34000000D02*
X160150000Y-34000000D01*
X154825000Y-35175000D02*
X156000000Y-34000000D01*
X154825000Y-38000000D02*
X154825000Y-35175000D01*
D38*
%TO.N,+5V*%
X125150000Y-70000000D02*
X126400000Y-71250000D01*
X113000000Y-70000000D02*
X121000000Y-70000000D01*
D39*
%TO.N,/SHT31_SDA*%
X139250000Y-36250000D02*
X139550000Y-36550000D01*
X136120000Y-31975000D02*
X139250000Y-35105000D01*
X139250000Y-35105000D02*
X139250000Y-36250000D01*
%TD*%
%TA.AperFunction,Conductor*%
%TO.N,+3.3V*%
G36*
X137943039Y-42019685D02*
G01*
X137988794Y-42072489D01*
X138000000Y-42124000D01*
X138000000Y-43876000D01*
X137980315Y-43943039D01*
X137927511Y-43988794D01*
X137876000Y-44000000D01*
X137000000Y-44000000D01*
X137000000Y-45250000D01*
X132750000Y-45250000D01*
X132500000Y-45500000D01*
X132500000Y-46000000D01*
X111124000Y-46000000D01*
X111056961Y-45980315D01*
X111011206Y-45927511D01*
X111000000Y-45876000D01*
X111000000Y-44000000D01*
X105000000Y-44000000D01*
X105000000Y-42000000D01*
X108000000Y-42000000D01*
X137876000Y-42000000D01*
X137943039Y-42019685D01*
G37*
%TD.AperFunction*%
%TD*%
%TA.AperFunction,Conductor*%
%TO.N,+3.3V*%
G36*
X138818744Y-47519685D02*
G01*
X138839386Y-47536319D01*
X139081545Y-47778478D01*
X139170591Y-47829889D01*
X139269908Y-47856501D01*
X139269911Y-47856501D01*
X139380324Y-47856501D01*
X139380340Y-47856500D01*
X142126000Y-47856500D01*
X142193039Y-47876185D01*
X142238794Y-47928989D01*
X142250000Y-47980500D01*
X142250000Y-49626000D01*
X142230315Y-49693039D01*
X142177511Y-49738794D01*
X142126000Y-49750000D01*
X136874000Y-49750000D01*
X136806961Y-49730315D01*
X136761206Y-49677511D01*
X136750000Y-49626000D01*
X136750000Y-48325181D01*
X136769685Y-48258142D01*
X136775625Y-48249693D01*
X136802263Y-48214978D01*
X136860198Y-48075108D01*
X136860199Y-48075103D01*
X136870088Y-48000000D01*
X136750000Y-48000000D01*
X137250000Y-47500000D01*
X138751705Y-47500000D01*
X138818744Y-47519685D01*
G37*
%TD.AperFunction*%
%TD*%
%TA.AperFunction,Conductor*%
%TO.N,GND*%
G36*
X82943039Y-28020185D02*
G01*
X82988794Y-28072989D01*
X83000000Y-28124500D01*
X83000000Y-31218500D01*
X82980315Y-31285539D01*
X82927511Y-31331294D01*
X82876000Y-31342500D01*
X82517500Y-31342500D01*
X82517500Y-33094017D01*
X82499091Y-33083389D01*
X82346491Y-33042500D01*
X82188509Y-33042500D01*
X82035909Y-33083389D01*
X82017500Y-33094017D01*
X82017500Y-31342500D01*
X81567528Y-31342500D01*
X81567512Y-31342501D01*
X81464802Y-31352994D01*
X81298380Y-31408141D01*
X81298375Y-31408143D01*
X81149154Y-31500184D01*
X81025184Y-31624154D01*
X80933143Y-31773375D01*
X80933141Y-31773380D01*
X80877994Y-31939802D01*
X80877993Y-31939809D01*
X80867500Y-32042513D01*
X80867500Y-33392500D01*
X81719018Y-33392500D01*
X81708389Y-33410909D01*
X81667500Y-33563509D01*
X81667500Y-33721491D01*
X81708389Y-33874091D01*
X81719018Y-33892500D01*
X80867501Y-33892500D01*
X80867501Y-35242486D01*
X80877994Y-35345197D01*
X80933141Y-35511619D01*
X80933143Y-35511624D01*
X81025184Y-35660845D01*
X81149154Y-35784815D01*
X81298375Y-35876856D01*
X81298380Y-35876858D01*
X81464802Y-35932005D01*
X81464809Y-35932006D01*
X81567519Y-35942499D01*
X82017499Y-35942499D01*
X82017500Y-35942498D01*
X82017500Y-34190982D01*
X82035909Y-34201611D01*
X82188509Y-34242500D01*
X82346491Y-34242500D01*
X82499091Y-34201611D01*
X82517500Y-34190982D01*
X82517500Y-35942499D01*
X82876000Y-35942499D01*
X82943039Y-35962184D01*
X82988794Y-36014988D01*
X83000000Y-36066499D01*
X83000000Y-36876000D01*
X82980315Y-36943039D01*
X82927511Y-36988794D01*
X82876000Y-37000000D01*
X78000000Y-37000000D01*
X78000000Y-45000000D01*
X90876000Y-45000000D01*
X90943039Y-45019685D01*
X90988794Y-45072489D01*
X91000000Y-45124000D01*
X91000000Y-51000000D01*
X90000000Y-51000000D01*
X90000000Y-52000000D01*
X91000000Y-52000000D01*
X91000000Y-57876000D01*
X90980315Y-57943039D01*
X90927511Y-57988794D01*
X90876000Y-58000000D01*
X78000000Y-58000000D01*
X78000000Y-67000000D01*
X82876000Y-67000000D01*
X82943039Y-67019685D01*
X82988794Y-67072489D01*
X83000000Y-67124000D01*
X83000000Y-67717454D01*
X82980315Y-67784493D01*
X82927511Y-67830248D01*
X82858353Y-67840192D01*
X82819705Y-67827939D01*
X82769910Y-67802567D01*
X82560336Y-67734473D01*
X82482500Y-67722144D01*
X82482500Y-69451517D01*
X82464091Y-69440889D01*
X82311491Y-69400000D01*
X82153509Y-69400000D01*
X82000909Y-69440889D01*
X81982500Y-69451517D01*
X81982500Y-67722144D01*
X81904664Y-67734473D01*
X81904661Y-67734473D01*
X81695089Y-67802567D01*
X81498739Y-67902613D01*
X81320458Y-68032142D01*
X81164642Y-68187958D01*
X81035113Y-68366239D01*
X80935067Y-68562589D01*
X80866973Y-68772164D01*
X80832500Y-68989818D01*
X80832500Y-69750000D01*
X81684018Y-69750000D01*
X81673389Y-69768409D01*
X81632500Y-69921009D01*
X81632500Y-70078991D01*
X81673389Y-70231591D01*
X81684018Y-70250000D01*
X80832500Y-70250000D01*
X80832500Y-71010181D01*
X80866973Y-71227835D01*
X80935067Y-71437410D01*
X81035113Y-71633760D01*
X81164642Y-71812041D01*
X81320458Y-71967857D01*
X81498739Y-72097386D01*
X81695089Y-72197432D01*
X81904663Y-72265526D01*
X81982499Y-72277854D01*
X81982500Y-72277854D01*
X81982500Y-70548482D01*
X82000909Y-70559111D01*
X82153509Y-70600000D01*
X82311491Y-70600000D01*
X82464091Y-70559111D01*
X82482500Y-70548482D01*
X82482500Y-72277854D01*
X82560334Y-72265526D01*
X82560337Y-72265526D01*
X82769912Y-72197431D01*
X82819704Y-72172061D01*
X82888373Y-72159164D01*
X82953114Y-72185439D01*
X82993371Y-72242545D01*
X83000000Y-72282545D01*
X83000000Y-75875500D01*
X82980315Y-75942539D01*
X82927511Y-75988294D01*
X82876000Y-75999500D01*
X72124000Y-75999500D01*
X72056961Y-75979815D01*
X72011206Y-75927011D01*
X72000000Y-75875500D01*
X72000000Y-55789624D01*
X82500000Y-55789624D01*
X82500000Y-56025729D01*
X82536934Y-56258924D01*
X82609897Y-56483479D01*
X82717087Y-56693851D01*
X82777338Y-56776781D01*
X82777340Y-56776782D01*
X83517037Y-56037085D01*
X83534075Y-56100670D01*
X83599901Y-56214684D01*
X83692993Y-56307776D01*
X83807007Y-56373602D01*
X83870590Y-56390639D01*
X83130893Y-57130335D01*
X83213828Y-57190591D01*
X83424197Y-57297779D01*
X83648752Y-57370742D01*
X83648751Y-57370742D01*
X83881948Y-57407677D01*
X84118052Y-57407677D01*
X84351247Y-57370742D01*
X84575802Y-57297779D01*
X84786163Y-57190595D01*
X84786169Y-57190591D01*
X84869104Y-57130335D01*
X84869105Y-57130335D01*
X84129408Y-56390639D01*
X84192993Y-56373602D01*
X84307007Y-56307776D01*
X84400099Y-56214684D01*
X84465925Y-56100670D01*
X84482962Y-56037086D01*
X85222658Y-56776782D01*
X85222658Y-56776781D01*
X85282914Y-56693846D01*
X85282918Y-56693840D01*
X85390102Y-56483479D01*
X85463065Y-56258924D01*
X85500000Y-56025729D01*
X85500000Y-55789624D01*
X85463065Y-55556429D01*
X85390102Y-55331874D01*
X85282914Y-55121505D01*
X85222658Y-55038571D01*
X85222658Y-55038570D01*
X84482962Y-55778267D01*
X84465925Y-55714684D01*
X84400099Y-55600670D01*
X84307007Y-55507578D01*
X84192993Y-55441752D01*
X84129409Y-55424714D01*
X84869105Y-54685017D01*
X84869104Y-54685015D01*
X84786174Y-54624764D01*
X84575802Y-54517574D01*
X84351247Y-54444611D01*
X84351248Y-54444611D01*
X84118052Y-54407677D01*
X83881948Y-54407677D01*
X83648752Y-54444611D01*
X83424197Y-54517574D01*
X83213830Y-54624761D01*
X83130894Y-54685017D01*
X83870591Y-55424714D01*
X83807007Y-55441752D01*
X83692993Y-55507578D01*
X83599901Y-55600670D01*
X83534075Y-55714684D01*
X83517037Y-55778268D01*
X82777340Y-55038571D01*
X82717084Y-55121507D01*
X82609897Y-55331874D01*
X82536934Y-55556429D01*
X82500000Y-55789624D01*
X72000000Y-55789624D01*
X72000000Y-47514270D01*
X82500000Y-47514270D01*
X82500000Y-47750375D01*
X82536934Y-47983570D01*
X82609897Y-48208125D01*
X82717087Y-48418497D01*
X82777338Y-48501427D01*
X82777340Y-48501428D01*
X83517037Y-47761731D01*
X83534075Y-47825316D01*
X83599901Y-47939330D01*
X83692993Y-48032422D01*
X83807007Y-48098248D01*
X83870590Y-48115285D01*
X83130893Y-48854981D01*
X83213828Y-48915237D01*
X83424197Y-49022425D01*
X83648752Y-49095388D01*
X83648751Y-49095388D01*
X83881948Y-49132323D01*
X84118052Y-49132323D01*
X84351247Y-49095388D01*
X84575802Y-49022425D01*
X84786163Y-48915241D01*
X84786169Y-48915237D01*
X84869104Y-48854981D01*
X84869105Y-48854981D01*
X84129408Y-48115285D01*
X84192993Y-48098248D01*
X84307007Y-48032422D01*
X84400099Y-47939330D01*
X84465925Y-47825316D01*
X84482962Y-47761732D01*
X85222658Y-48501428D01*
X85222658Y-48501427D01*
X85282914Y-48418492D01*
X85282918Y-48418486D01*
X85390102Y-48208125D01*
X85463065Y-47983570D01*
X85500000Y-47750375D01*
X85500000Y-47514270D01*
X85463065Y-47281075D01*
X85390102Y-47056520D01*
X85282914Y-46846151D01*
X85222658Y-46763217D01*
X85222658Y-46763216D01*
X84482962Y-47502913D01*
X84465925Y-47439330D01*
X84400099Y-47325316D01*
X84307007Y-47232224D01*
X84192993Y-47166398D01*
X84129409Y-47149360D01*
X84869105Y-46409663D01*
X84869104Y-46409661D01*
X84786174Y-46349410D01*
X84575802Y-46242220D01*
X84351247Y-46169257D01*
X84351248Y-46169257D01*
X84118052Y-46132323D01*
X83881948Y-46132323D01*
X83648752Y-46169257D01*
X83424197Y-46242220D01*
X83213830Y-46349407D01*
X83130894Y-46409663D01*
X83870591Y-47149360D01*
X83807007Y-47166398D01*
X83692993Y-47232224D01*
X83599901Y-47325316D01*
X83534075Y-47439330D01*
X83517037Y-47502914D01*
X82777340Y-46763217D01*
X82717084Y-46846153D01*
X82609897Y-47056520D01*
X82536934Y-47281075D01*
X82500000Y-47514270D01*
X72000000Y-47514270D01*
X72000000Y-28124500D01*
X72019685Y-28057461D01*
X72072489Y-28011706D01*
X72124000Y-28000500D01*
X82876000Y-28000500D01*
X82943039Y-28020185D01*
G37*
%TD.AperFunction*%
%TD*%
%TA.AperFunction,Conductor*%
%TO.N,+3.3V_INPUT*%
G36*
X98943039Y-28020185D02*
G01*
X98988794Y-28072989D01*
X99000000Y-28124500D01*
X99000000Y-31863987D01*
X98980315Y-31931026D01*
X98927511Y-31976781D01*
X98867891Y-31987722D01*
X98865955Y-31987595D01*
X98064612Y-32788939D01*
X98059111Y-32768409D01*
X97980119Y-32631592D01*
X97868408Y-32519881D01*
X97731591Y-32440889D01*
X97711058Y-32435387D01*
X98512403Y-31634043D01*
X98512403Y-31634040D01*
X98446504Y-31583473D01*
X98446491Y-31583464D01*
X98253520Y-31472054D01*
X98253502Y-31472045D01*
X98047618Y-31386763D01*
X97832367Y-31329088D01*
X97832354Y-31329085D01*
X97611425Y-31300000D01*
X97388575Y-31300000D01*
X97167645Y-31329085D01*
X97167632Y-31329088D01*
X96952381Y-31386763D01*
X96746497Y-31472045D01*
X96746479Y-31472054D01*
X96553511Y-31583462D01*
X96487595Y-31634042D01*
X97288941Y-32435387D01*
X97268409Y-32440889D01*
X97131592Y-32519881D01*
X97019881Y-32631592D01*
X96940889Y-32768409D01*
X96935387Y-32788940D01*
X96134042Y-31987595D01*
X96083462Y-32053511D01*
X95972054Y-32246479D01*
X95972045Y-32246497D01*
X95886763Y-32452381D01*
X95829088Y-32667632D01*
X95829085Y-32667645D01*
X95800000Y-32888575D01*
X95800000Y-33111424D01*
X95829085Y-33332354D01*
X95829088Y-33332367D01*
X95886763Y-33547618D01*
X95972045Y-33753502D01*
X95972054Y-33753520D01*
X96083464Y-33946491D01*
X96083473Y-33946504D01*
X96134040Y-34012403D01*
X96134043Y-34012403D01*
X96935387Y-33211059D01*
X96940889Y-33231591D01*
X97019881Y-33368408D01*
X97131592Y-33480119D01*
X97268409Y-33559111D01*
X97288940Y-33564612D01*
X96487595Y-34365955D01*
X96487595Y-34365956D01*
X96553507Y-34416533D01*
X96746485Y-34527949D01*
X96746497Y-34527954D01*
X96952381Y-34613236D01*
X97167632Y-34670911D01*
X97167645Y-34670914D01*
X97388575Y-34700000D01*
X97611425Y-34700000D01*
X97832354Y-34670914D01*
X97832367Y-34670911D01*
X98047618Y-34613236D01*
X98253502Y-34527954D01*
X98253514Y-34527949D01*
X98446498Y-34416530D01*
X98512403Y-34365957D01*
X98512404Y-34365956D01*
X97711059Y-33564612D01*
X97731591Y-33559111D01*
X97868408Y-33480119D01*
X97980119Y-33368408D01*
X98059111Y-33231591D01*
X98064612Y-33211059D01*
X98865955Y-34012403D01*
X98867891Y-34012277D01*
X98936074Y-34027536D01*
X98985184Y-34077234D01*
X99000000Y-34136012D01*
X99000000Y-36876000D01*
X98980315Y-36943039D01*
X98927511Y-36988794D01*
X98876000Y-37000000D01*
X92000000Y-37000000D01*
X92000000Y-43876000D01*
X91980315Y-43943039D01*
X91927511Y-43988794D01*
X91876000Y-44000000D01*
X85575105Y-44000000D01*
X85508066Y-43980315D01*
X85462311Y-43927511D01*
X85452367Y-43858353D01*
X85458923Y-43832667D01*
X85493596Y-43739702D01*
X85493598Y-43739695D01*
X85499999Y-43680167D01*
X85500000Y-43680150D01*
X85500000Y-42882323D01*
X84433012Y-42882323D01*
X84465925Y-42825316D01*
X84500000Y-42698149D01*
X84500000Y-42566497D01*
X84465925Y-42439330D01*
X84433012Y-42382323D01*
X85500000Y-42382323D01*
X85500000Y-41584495D01*
X85499999Y-41584478D01*
X85493598Y-41524950D01*
X85493596Y-41524943D01*
X85443354Y-41390236D01*
X85443350Y-41390229D01*
X85357190Y-41275135D01*
X85357187Y-41275132D01*
X85242093Y-41188972D01*
X85242086Y-41188968D01*
X85107379Y-41138726D01*
X85107372Y-41138724D01*
X85047844Y-41132323D01*
X84250000Y-41132323D01*
X84250000Y-42199311D01*
X84192993Y-42166398D01*
X84065826Y-42132323D01*
X83934174Y-42132323D01*
X83807007Y-42166398D01*
X83750000Y-42199311D01*
X83750000Y-41132323D01*
X82952155Y-41132323D01*
X82892627Y-41138724D01*
X82892620Y-41138726D01*
X82757913Y-41188968D01*
X82757906Y-41188972D01*
X82642812Y-41275132D01*
X82642809Y-41275135D01*
X82556649Y-41390229D01*
X82556645Y-41390236D01*
X82506403Y-41524943D01*
X82506401Y-41524950D01*
X82500000Y-41584478D01*
X82500000Y-42382323D01*
X83566988Y-42382323D01*
X83534075Y-42439330D01*
X83500000Y-42566497D01*
X83500000Y-42698149D01*
X83534075Y-42825316D01*
X83566988Y-42882323D01*
X82500000Y-42882323D01*
X82500000Y-43680167D01*
X82506401Y-43739695D01*
X82506403Y-43739702D01*
X82541077Y-43832667D01*
X82546061Y-43902358D01*
X82512576Y-43963681D01*
X82451253Y-43997166D01*
X82424895Y-44000000D01*
X79124000Y-44000000D01*
X79056961Y-43980315D01*
X79011206Y-43927511D01*
X79000000Y-43876000D01*
X79000000Y-38124000D01*
X79019685Y-38056961D01*
X79072489Y-38011206D01*
X79124000Y-38000000D01*
X85017500Y-38000000D01*
X85013479Y-35932153D01*
X85033033Y-35865077D01*
X85085748Y-35819219D01*
X85154887Y-35809141D01*
X85193775Y-35821429D01*
X85230087Y-35839931D01*
X85439663Y-35908026D01*
X85517499Y-35920354D01*
X85517500Y-35920354D01*
X85517500Y-34190982D01*
X85535909Y-34201611D01*
X85688509Y-34242500D01*
X85846491Y-34242500D01*
X85999091Y-34201611D01*
X86017500Y-34190982D01*
X86017500Y-35920354D01*
X86095334Y-35908026D01*
X86095337Y-35908026D01*
X86304910Y-35839932D01*
X86501260Y-35739886D01*
X86679541Y-35610357D01*
X86835357Y-35454541D01*
X86964886Y-35276260D01*
X87064932Y-35079910D01*
X87133026Y-34870335D01*
X87167500Y-34652681D01*
X87167500Y-33892500D01*
X86315982Y-33892500D01*
X86326611Y-33874091D01*
X86367500Y-33721491D01*
X86367500Y-33563509D01*
X86326611Y-33410909D01*
X86315982Y-33392500D01*
X87167500Y-33392500D01*
X87167500Y-32632318D01*
X87133026Y-32414664D01*
X87064932Y-32205089D01*
X86964886Y-32008739D01*
X86835357Y-31830458D01*
X86679541Y-31674642D01*
X86501260Y-31545113D01*
X86304910Y-31445067D01*
X86095336Y-31376973D01*
X86017500Y-31364644D01*
X86017500Y-33094017D01*
X85999091Y-33083389D01*
X85846491Y-33042500D01*
X85688509Y-33042500D01*
X85535909Y-33083389D01*
X85517500Y-33094017D01*
X85517500Y-31364644D01*
X85439664Y-31376973D01*
X85439661Y-31376973D01*
X85230086Y-31445068D01*
X85184878Y-31468103D01*
X85116209Y-31480999D01*
X85051468Y-31454722D01*
X85011212Y-31397615D01*
X85004585Y-31357865D01*
X84998299Y-28124741D01*
X85017853Y-28057663D01*
X85070568Y-28011806D01*
X85122299Y-28000500D01*
X98876000Y-28000500D01*
X98943039Y-28020185D01*
G37*
%TD.AperFunction*%
%TD*%
%TA.AperFunction,Conductor*%
%TO.N,+5V_INPUT*%
G36*
X91943039Y-59019685D02*
G01*
X91988794Y-59072489D01*
X92000000Y-59124000D01*
X92000000Y-67000000D01*
X98876000Y-67000000D01*
X98943039Y-67019685D01*
X98988794Y-67072489D01*
X99000000Y-67124000D01*
X99000000Y-68863987D01*
X98980315Y-68931026D01*
X98927511Y-68976781D01*
X98867891Y-68987722D01*
X98865955Y-68987595D01*
X98064612Y-69788939D01*
X98059111Y-69768409D01*
X97980119Y-69631592D01*
X97868408Y-69519881D01*
X97731591Y-69440889D01*
X97711058Y-69435387D01*
X98512403Y-68634043D01*
X98512403Y-68634040D01*
X98446504Y-68583473D01*
X98446491Y-68583464D01*
X98253520Y-68472054D01*
X98253502Y-68472045D01*
X98047618Y-68386763D01*
X97832367Y-68329088D01*
X97832354Y-68329085D01*
X97611425Y-68300000D01*
X97388575Y-68300000D01*
X97167645Y-68329085D01*
X97167632Y-68329088D01*
X96952381Y-68386763D01*
X96746497Y-68472045D01*
X96746479Y-68472054D01*
X96553511Y-68583462D01*
X96487595Y-68634042D01*
X97288941Y-69435387D01*
X97268409Y-69440889D01*
X97131592Y-69519881D01*
X97019881Y-69631592D01*
X96940889Y-69768409D01*
X96935387Y-69788940D01*
X96134042Y-68987595D01*
X96083462Y-69053511D01*
X95972054Y-69246479D01*
X95972045Y-69246497D01*
X95886763Y-69452381D01*
X95829088Y-69667632D01*
X95829085Y-69667645D01*
X95800000Y-69888575D01*
X95800000Y-70111424D01*
X95829085Y-70332354D01*
X95829088Y-70332367D01*
X95886763Y-70547618D01*
X95972045Y-70753502D01*
X95972054Y-70753520D01*
X96083464Y-70946491D01*
X96083473Y-70946504D01*
X96134040Y-71012403D01*
X96134043Y-71012403D01*
X96935387Y-70211059D01*
X96940889Y-70231591D01*
X97019881Y-70368408D01*
X97131592Y-70480119D01*
X97268409Y-70559111D01*
X97288940Y-70564612D01*
X96487595Y-71365955D01*
X96487595Y-71365956D01*
X96553507Y-71416533D01*
X96746485Y-71527949D01*
X96746497Y-71527954D01*
X96952381Y-71613236D01*
X97167632Y-71670911D01*
X97167645Y-71670914D01*
X97388575Y-71700000D01*
X97611425Y-71700000D01*
X97832354Y-71670914D01*
X97832367Y-71670911D01*
X98047618Y-71613236D01*
X98253502Y-71527954D01*
X98253514Y-71527949D01*
X98446498Y-71416530D01*
X98512403Y-71365957D01*
X98512404Y-71365956D01*
X97711059Y-70564612D01*
X97731591Y-70559111D01*
X97868408Y-70480119D01*
X97980119Y-70368408D01*
X98059111Y-70231591D01*
X98064612Y-70211059D01*
X98865955Y-71012403D01*
X98867891Y-71012277D01*
X98936074Y-71027536D01*
X98985184Y-71077234D01*
X99000000Y-71136012D01*
X99000000Y-75875500D01*
X98980315Y-75942539D01*
X98927511Y-75988294D01*
X98876000Y-75999500D01*
X84102399Y-75999500D01*
X84035360Y-75979815D01*
X83989605Y-75927011D01*
X83978399Y-75875229D01*
X83987526Y-71702690D01*
X83994750Y-68400013D01*
X84332500Y-68400013D01*
X84332500Y-69750000D01*
X85184018Y-69750000D01*
X85173389Y-69768409D01*
X85132500Y-69921009D01*
X85132500Y-70078991D01*
X85173389Y-70231591D01*
X85184018Y-70250000D01*
X84332501Y-70250000D01*
X84332501Y-71599986D01*
X84342994Y-71702697D01*
X84398141Y-71869119D01*
X84398143Y-71869124D01*
X84490184Y-72018345D01*
X84614154Y-72142315D01*
X84763375Y-72234356D01*
X84763380Y-72234358D01*
X84929802Y-72289505D01*
X84929809Y-72289506D01*
X85032519Y-72299999D01*
X85482499Y-72299999D01*
X85482500Y-72299998D01*
X85482500Y-70548482D01*
X85500909Y-70559111D01*
X85653509Y-70600000D01*
X85811491Y-70600000D01*
X85964091Y-70559111D01*
X85982500Y-70548482D01*
X85982500Y-72299999D01*
X86432472Y-72299999D01*
X86432486Y-72299998D01*
X86535197Y-72289505D01*
X86701619Y-72234358D01*
X86701624Y-72234356D01*
X86850845Y-72142315D01*
X86974815Y-72018345D01*
X87066856Y-71869124D01*
X87066858Y-71869119D01*
X87122005Y-71702697D01*
X87122006Y-71702690D01*
X87132499Y-71599986D01*
X87132500Y-71599973D01*
X87132500Y-70250000D01*
X86280982Y-70250000D01*
X86291611Y-70231591D01*
X86332500Y-70078991D01*
X86332500Y-69921009D01*
X86291611Y-69768409D01*
X86280982Y-69750000D01*
X87132499Y-69750000D01*
X87132499Y-68400028D01*
X87132498Y-68400013D01*
X87122005Y-68297302D01*
X87066858Y-68130880D01*
X87066856Y-68130875D01*
X86974815Y-67981654D01*
X86850845Y-67857684D01*
X86701624Y-67765643D01*
X86701619Y-67765641D01*
X86535197Y-67710494D01*
X86535190Y-67710493D01*
X86432486Y-67700000D01*
X85982500Y-67700000D01*
X85982500Y-69451517D01*
X85964091Y-69440889D01*
X85811491Y-69400000D01*
X85653509Y-69400000D01*
X85500909Y-69440889D01*
X85482500Y-69451517D01*
X85482500Y-67700000D01*
X85032528Y-67700000D01*
X85032512Y-67700001D01*
X84929802Y-67710494D01*
X84763380Y-67765641D01*
X84763375Y-67765643D01*
X84614154Y-67857684D01*
X84490184Y-67981654D01*
X84398143Y-68130875D01*
X84398141Y-68130880D01*
X84342994Y-68297302D01*
X84342993Y-68297309D01*
X84332500Y-68400013D01*
X83994750Y-68400013D01*
X84000000Y-66000000D01*
X83999999Y-66000000D01*
X79124000Y-66000000D01*
X79056961Y-65980315D01*
X79011206Y-65927511D01*
X79000000Y-65876000D01*
X79000000Y-59859832D01*
X82500000Y-59859832D01*
X82500000Y-60657677D01*
X83566988Y-60657677D01*
X83534075Y-60714684D01*
X83500000Y-60841851D01*
X83500000Y-60973503D01*
X83534075Y-61100670D01*
X83566988Y-61157677D01*
X82500000Y-61157677D01*
X82500000Y-61955521D01*
X82506401Y-62015049D01*
X82506403Y-62015056D01*
X82556645Y-62149763D01*
X82556649Y-62149770D01*
X82642809Y-62264864D01*
X82642812Y-62264867D01*
X82757906Y-62351027D01*
X82757913Y-62351031D01*
X82892620Y-62401273D01*
X82892627Y-62401275D01*
X82952155Y-62407676D01*
X82952172Y-62407677D01*
X83750000Y-62407677D01*
X83750000Y-61340689D01*
X83807007Y-61373602D01*
X83934174Y-61407677D01*
X84065826Y-61407677D01*
X84192993Y-61373602D01*
X84250000Y-61340689D01*
X84250000Y-62407677D01*
X85047828Y-62407677D01*
X85047844Y-62407676D01*
X85107372Y-62401275D01*
X85107379Y-62401273D01*
X85242086Y-62351031D01*
X85242093Y-62351027D01*
X85357187Y-62264867D01*
X85357190Y-62264864D01*
X85443350Y-62149770D01*
X85443354Y-62149763D01*
X85493596Y-62015056D01*
X85493598Y-62015049D01*
X85499999Y-61955521D01*
X85500000Y-61955504D01*
X85500000Y-61157677D01*
X84433012Y-61157677D01*
X84465925Y-61100670D01*
X84500000Y-60973503D01*
X84500000Y-60841851D01*
X84465925Y-60714684D01*
X84433012Y-60657677D01*
X85500000Y-60657677D01*
X85500000Y-59859849D01*
X85499999Y-59859832D01*
X85493598Y-59800304D01*
X85493596Y-59800297D01*
X85443354Y-59665590D01*
X85443350Y-59665583D01*
X85357190Y-59550489D01*
X85357187Y-59550486D01*
X85242093Y-59464326D01*
X85242086Y-59464322D01*
X85107379Y-59414080D01*
X85107372Y-59414078D01*
X85047844Y-59407677D01*
X84250000Y-59407677D01*
X84250000Y-60474665D01*
X84192993Y-60441752D01*
X84065826Y-60407677D01*
X83934174Y-60407677D01*
X83807007Y-60441752D01*
X83750000Y-60474665D01*
X83750000Y-59407677D01*
X82952155Y-59407677D01*
X82892627Y-59414078D01*
X82892620Y-59414080D01*
X82757913Y-59464322D01*
X82757906Y-59464326D01*
X82642812Y-59550486D01*
X82642809Y-59550489D01*
X82556649Y-59665583D01*
X82556645Y-59665590D01*
X82506403Y-59800297D01*
X82506401Y-59800304D01*
X82500000Y-59859832D01*
X79000000Y-59859832D01*
X79000000Y-59124000D01*
X79019685Y-59056961D01*
X79072489Y-59011206D01*
X79124000Y-59000000D01*
X91876000Y-59000000D01*
X91943039Y-59019685D01*
G37*
%TD.AperFunction*%
%TD*%
%TA.AperFunction,Conductor*%
%TO.N,+3.3V*%
G36*
X107943039Y-28020185D02*
G01*
X107988794Y-28072989D01*
X108000000Y-28124500D01*
X108000000Y-42000000D01*
X105000000Y-42000000D01*
X105000000Y-44000000D01*
X101575105Y-44000000D01*
X101508066Y-43980315D01*
X101462311Y-43927511D01*
X101452367Y-43858353D01*
X101458923Y-43832667D01*
X101493596Y-43739702D01*
X101493598Y-43739695D01*
X101499999Y-43680167D01*
X101500000Y-43680150D01*
X101500000Y-42882323D01*
X100433012Y-42882323D01*
X100465925Y-42825316D01*
X100500000Y-42698149D01*
X100500000Y-42566497D01*
X100465925Y-42439330D01*
X100433012Y-42382323D01*
X101500000Y-42382323D01*
X101500000Y-41584495D01*
X101499999Y-41584478D01*
X101493598Y-41524950D01*
X101493596Y-41524943D01*
X101443354Y-41390236D01*
X101443350Y-41390229D01*
X101357190Y-41275135D01*
X101357187Y-41275132D01*
X101242093Y-41188972D01*
X101242086Y-41188968D01*
X101107379Y-41138726D01*
X101107372Y-41138724D01*
X101047844Y-41132323D01*
X100250000Y-41132323D01*
X100250000Y-42199311D01*
X100192993Y-42166398D01*
X100065826Y-42132323D01*
X99934174Y-42132323D01*
X99807007Y-42166398D01*
X99750000Y-42199311D01*
X99750000Y-41132323D01*
X98952155Y-41132323D01*
X98892627Y-41138724D01*
X98892620Y-41138726D01*
X98757913Y-41188968D01*
X98757906Y-41188972D01*
X98642812Y-41275132D01*
X98642809Y-41275135D01*
X98556649Y-41390229D01*
X98556645Y-41390236D01*
X98506403Y-41524943D01*
X98506401Y-41524950D01*
X98500000Y-41584478D01*
X98500000Y-42382323D01*
X99566988Y-42382323D01*
X99534075Y-42439330D01*
X99500000Y-42566497D01*
X99500000Y-42698149D01*
X99534075Y-42825316D01*
X99566988Y-42882323D01*
X98500000Y-42882323D01*
X98500000Y-43680167D01*
X98506401Y-43739695D01*
X98506403Y-43739702D01*
X98541077Y-43832667D01*
X98546061Y-43902358D01*
X98512576Y-43963681D01*
X98451253Y-43997166D01*
X98424895Y-44000000D01*
X93124000Y-44000000D01*
X93056961Y-43980315D01*
X93011206Y-43927511D01*
X93000000Y-43876000D01*
X93000000Y-38124000D01*
X93019685Y-38056961D01*
X93072489Y-38011206D01*
X93124000Y-38000000D01*
X100000000Y-38000000D01*
X100000000Y-32888575D01*
X100800000Y-32888575D01*
X100800000Y-33111424D01*
X100829085Y-33332354D01*
X100829088Y-33332367D01*
X100886763Y-33547618D01*
X100972045Y-33753502D01*
X100972054Y-33753520D01*
X101083464Y-33946491D01*
X101083473Y-33946504D01*
X101134040Y-34012403D01*
X101134043Y-34012403D01*
X101935387Y-33211059D01*
X101940889Y-33231591D01*
X102019881Y-33368408D01*
X102131592Y-33480119D01*
X102268409Y-33559111D01*
X102288940Y-33564612D01*
X101487595Y-34365955D01*
X101487595Y-34365956D01*
X101553507Y-34416533D01*
X101746485Y-34527949D01*
X101746497Y-34527954D01*
X101952381Y-34613236D01*
X102167632Y-34670911D01*
X102167645Y-34670914D01*
X102388575Y-34700000D01*
X102611425Y-34700000D01*
X102832354Y-34670914D01*
X102832367Y-34670911D01*
X103047618Y-34613236D01*
X103253502Y-34527954D01*
X103253514Y-34527949D01*
X103446498Y-34416530D01*
X103512403Y-34365957D01*
X103512404Y-34365956D01*
X102711059Y-33564612D01*
X102731591Y-33559111D01*
X102868408Y-33480119D01*
X102980119Y-33368408D01*
X103059111Y-33231591D01*
X103064612Y-33211059D01*
X103865956Y-34012404D01*
X103865957Y-34012403D01*
X103916530Y-33946498D01*
X104027949Y-33753514D01*
X104027954Y-33753502D01*
X104113236Y-33547618D01*
X104170911Y-33332367D01*
X104170914Y-33332354D01*
X104200000Y-33111424D01*
X104200000Y-32888575D01*
X104170914Y-32667645D01*
X104170911Y-32667632D01*
X104113236Y-32452381D01*
X104027954Y-32246497D01*
X104027949Y-32246485D01*
X103916533Y-32053507D01*
X103865956Y-31987595D01*
X103865955Y-31987595D01*
X103064612Y-32788939D01*
X103059111Y-32768409D01*
X102980119Y-32631592D01*
X102868408Y-32519881D01*
X102731591Y-32440889D01*
X102711058Y-32435387D01*
X103512403Y-31634043D01*
X103512403Y-31634040D01*
X103446504Y-31583473D01*
X103446491Y-31583464D01*
X103253520Y-31472054D01*
X103253502Y-31472045D01*
X103047618Y-31386763D01*
X102832367Y-31329088D01*
X102832354Y-31329085D01*
X102611425Y-31300000D01*
X102388575Y-31300000D01*
X102167645Y-31329085D01*
X102167632Y-31329088D01*
X101952381Y-31386763D01*
X101746497Y-31472045D01*
X101746479Y-31472054D01*
X101553511Y-31583462D01*
X101487595Y-31634042D01*
X102288941Y-32435387D01*
X102268409Y-32440889D01*
X102131592Y-32519881D01*
X102019881Y-32631592D01*
X101940889Y-32768409D01*
X101935387Y-32788940D01*
X101134042Y-31987595D01*
X101083462Y-32053511D01*
X100972054Y-32246479D01*
X100972045Y-32246497D01*
X100886763Y-32452381D01*
X100829088Y-32667632D01*
X100829085Y-32667645D01*
X100800000Y-32888575D01*
X100000000Y-32888575D01*
X100000000Y-28124500D01*
X100019685Y-28057461D01*
X100072489Y-28011706D01*
X100124000Y-28000500D01*
X107876000Y-28000500D01*
X107943039Y-28020185D01*
G37*
%TD.AperFunction*%
%TD*%
%TA.AperFunction,Conductor*%
%TO.N,+5V*%
G36*
X107943039Y-59019685D02*
G01*
X107988794Y-59072489D01*
X108000000Y-59124000D01*
X108000000Y-75875500D01*
X107980315Y-75942539D01*
X107927511Y-75988294D01*
X107876000Y-75999500D01*
X100124000Y-75999500D01*
X100056961Y-75979815D01*
X100011206Y-75927011D01*
X100000000Y-75875500D01*
X100000000Y-69888575D01*
X100800000Y-69888575D01*
X100800000Y-70111424D01*
X100829085Y-70332354D01*
X100829088Y-70332367D01*
X100886763Y-70547618D01*
X100972045Y-70753502D01*
X100972054Y-70753520D01*
X101083464Y-70946491D01*
X101083473Y-70946504D01*
X101134040Y-71012403D01*
X101134043Y-71012403D01*
X101935387Y-70211059D01*
X101940889Y-70231591D01*
X102019881Y-70368408D01*
X102131592Y-70480119D01*
X102268409Y-70559111D01*
X102288940Y-70564612D01*
X101487595Y-71365955D01*
X101487595Y-71365956D01*
X101553507Y-71416533D01*
X101746485Y-71527949D01*
X101746497Y-71527954D01*
X101952381Y-71613236D01*
X102167632Y-71670911D01*
X102167645Y-71670914D01*
X102388575Y-71700000D01*
X102611425Y-71700000D01*
X102832354Y-71670914D01*
X102832367Y-71670911D01*
X103047618Y-71613236D01*
X103253502Y-71527954D01*
X103253514Y-71527949D01*
X103446498Y-71416530D01*
X103512403Y-71365957D01*
X103512404Y-71365956D01*
X102711059Y-70564612D01*
X102731591Y-70559111D01*
X102868408Y-70480119D01*
X102980119Y-70368408D01*
X103059111Y-70231591D01*
X103064612Y-70211059D01*
X103865956Y-71012404D01*
X103865957Y-71012403D01*
X103916530Y-70946498D01*
X104027949Y-70753514D01*
X104027954Y-70753502D01*
X104113236Y-70547618D01*
X104170911Y-70332367D01*
X104170914Y-70332354D01*
X104200000Y-70111424D01*
X104200000Y-69888575D01*
X104170914Y-69667645D01*
X104170911Y-69667632D01*
X104113236Y-69452381D01*
X104027954Y-69246497D01*
X104027949Y-69246485D01*
X103916533Y-69053507D01*
X103865956Y-68987595D01*
X103865955Y-68987595D01*
X103064612Y-69788939D01*
X103059111Y-69768409D01*
X102980119Y-69631592D01*
X102868408Y-69519881D01*
X102731591Y-69440889D01*
X102711058Y-69435387D01*
X103512403Y-68634043D01*
X103512403Y-68634040D01*
X103446504Y-68583473D01*
X103446491Y-68583464D01*
X103253520Y-68472054D01*
X103253502Y-68472045D01*
X103047618Y-68386763D01*
X102832367Y-68329088D01*
X102832354Y-68329085D01*
X102611425Y-68300000D01*
X102388575Y-68300000D01*
X102167645Y-68329085D01*
X102167632Y-68329088D01*
X101952381Y-68386763D01*
X101746497Y-68472045D01*
X101746479Y-68472054D01*
X101553511Y-68583462D01*
X101487595Y-68634042D01*
X102288941Y-69435387D01*
X102268409Y-69440889D01*
X102131592Y-69519881D01*
X102019881Y-69631592D01*
X101940889Y-69768409D01*
X101935387Y-69788940D01*
X101134042Y-68987595D01*
X101083462Y-69053511D01*
X100972054Y-69246479D01*
X100972045Y-69246497D01*
X100886763Y-69452381D01*
X100829088Y-69667632D01*
X100829085Y-69667645D01*
X100800000Y-69888575D01*
X100000000Y-69888575D01*
X100000000Y-66000000D01*
X93124000Y-66000000D01*
X93056961Y-65980315D01*
X93011206Y-65927511D01*
X93000000Y-65876000D01*
X93000000Y-59859832D01*
X98500000Y-59859832D01*
X98500000Y-60657677D01*
X99566988Y-60657677D01*
X99534075Y-60714684D01*
X99500000Y-60841851D01*
X99500000Y-60973503D01*
X99534075Y-61100670D01*
X99566988Y-61157677D01*
X98500000Y-61157677D01*
X98500000Y-61955521D01*
X98506401Y-62015049D01*
X98506403Y-62015056D01*
X98556645Y-62149763D01*
X98556649Y-62149770D01*
X98642809Y-62264864D01*
X98642812Y-62264867D01*
X98757906Y-62351027D01*
X98757913Y-62351031D01*
X98892620Y-62401273D01*
X98892627Y-62401275D01*
X98952155Y-62407676D01*
X98952172Y-62407677D01*
X99750000Y-62407677D01*
X99750000Y-61340689D01*
X99807007Y-61373602D01*
X99934174Y-61407677D01*
X100065826Y-61407677D01*
X100192993Y-61373602D01*
X100250000Y-61340689D01*
X100250000Y-62407677D01*
X101047828Y-62407677D01*
X101047844Y-62407676D01*
X101107372Y-62401275D01*
X101107379Y-62401273D01*
X101242086Y-62351031D01*
X101242093Y-62351027D01*
X101357187Y-62264867D01*
X101357190Y-62264864D01*
X101443350Y-62149770D01*
X101443354Y-62149763D01*
X101493596Y-62015056D01*
X101493598Y-62015049D01*
X101499999Y-61955521D01*
X101500000Y-61955504D01*
X101500000Y-61157677D01*
X100433012Y-61157677D01*
X100465925Y-61100670D01*
X100500000Y-60973503D01*
X100500000Y-60841851D01*
X100465925Y-60714684D01*
X100433012Y-60657677D01*
X101500000Y-60657677D01*
X101500000Y-59859849D01*
X101499999Y-59859832D01*
X101493598Y-59800304D01*
X101493596Y-59800297D01*
X101443354Y-59665590D01*
X101443350Y-59665583D01*
X101357190Y-59550489D01*
X101357187Y-59550486D01*
X101242093Y-59464326D01*
X101242086Y-59464322D01*
X101107379Y-59414080D01*
X101107372Y-59414078D01*
X101047844Y-59407677D01*
X100250000Y-59407677D01*
X100250000Y-60474665D01*
X100192993Y-60441752D01*
X100065826Y-60407677D01*
X99934174Y-60407677D01*
X99807007Y-60441752D01*
X99750000Y-60474665D01*
X99750000Y-59407677D01*
X98952155Y-59407677D01*
X98892627Y-59414078D01*
X98892620Y-59414080D01*
X98757913Y-59464322D01*
X98757906Y-59464326D01*
X98642812Y-59550486D01*
X98642809Y-59550489D01*
X98556649Y-59665583D01*
X98556645Y-59665590D01*
X98506403Y-59800297D01*
X98506401Y-59800304D01*
X98500000Y-59859832D01*
X93000000Y-59859832D01*
X93000000Y-59124000D01*
X93019685Y-59056961D01*
X93072489Y-59011206D01*
X93124000Y-59000000D01*
X107876000Y-59000000D01*
X107943039Y-59019685D01*
G37*
%TD.AperFunction*%
%TD*%
%TA.AperFunction,Conductor*%
%TO.N,GND*%
G36*
X109943039Y-45019685D02*
G01*
X109988794Y-45072489D01*
X110000000Y-45124000D01*
X110000000Y-57876000D01*
X109980315Y-57943039D01*
X109927511Y-57988794D01*
X109876000Y-58000000D01*
X93124000Y-58000000D01*
X93056961Y-57980315D01*
X93011206Y-57927511D01*
X93000000Y-57876000D01*
X93000000Y-55789624D01*
X98500000Y-55789624D01*
X98500000Y-56025729D01*
X98536934Y-56258924D01*
X98609897Y-56483479D01*
X98717087Y-56693851D01*
X98777338Y-56776781D01*
X98777340Y-56776782D01*
X99517037Y-56037085D01*
X99534075Y-56100670D01*
X99599901Y-56214684D01*
X99692993Y-56307776D01*
X99807007Y-56373602D01*
X99870590Y-56390639D01*
X99130893Y-57130335D01*
X99213828Y-57190591D01*
X99424197Y-57297779D01*
X99648752Y-57370742D01*
X99648751Y-57370742D01*
X99881948Y-57407677D01*
X100118052Y-57407677D01*
X100351247Y-57370742D01*
X100575802Y-57297779D01*
X100786163Y-57190595D01*
X100786169Y-57190591D01*
X100869104Y-57130335D01*
X100869105Y-57130335D01*
X100129408Y-56390639D01*
X100192993Y-56373602D01*
X100307007Y-56307776D01*
X100400099Y-56214684D01*
X100465925Y-56100670D01*
X100482962Y-56037086D01*
X101222658Y-56776782D01*
X101222658Y-56776781D01*
X101282914Y-56693846D01*
X101282918Y-56693840D01*
X101390102Y-56483479D01*
X101463065Y-56258924D01*
X101500000Y-56025729D01*
X101500000Y-55789624D01*
X101463065Y-55556429D01*
X101390102Y-55331874D01*
X101282914Y-55121505D01*
X101222658Y-55038571D01*
X101222658Y-55038570D01*
X100482962Y-55778267D01*
X100465925Y-55714684D01*
X100400099Y-55600670D01*
X100307007Y-55507578D01*
X100192993Y-55441752D01*
X100129409Y-55424714D01*
X100869105Y-54685017D01*
X100869104Y-54685015D01*
X100786174Y-54624764D01*
X100575802Y-54517574D01*
X100351247Y-54444611D01*
X100351248Y-54444611D01*
X100118052Y-54407677D01*
X99881948Y-54407677D01*
X99648752Y-54444611D01*
X99424197Y-54517574D01*
X99213830Y-54624761D01*
X99130894Y-54685017D01*
X99870591Y-55424714D01*
X99807007Y-55441752D01*
X99692993Y-55507578D01*
X99599901Y-55600670D01*
X99534075Y-55714684D01*
X99517037Y-55778268D01*
X98777340Y-55038571D01*
X98717084Y-55121507D01*
X98609897Y-55331874D01*
X98536934Y-55556429D01*
X98500000Y-55789624D01*
X93000000Y-55789624D01*
X93000000Y-52000000D01*
X90000000Y-52000000D01*
X90000000Y-51000000D01*
X93000000Y-51000000D01*
X93000000Y-47514270D01*
X98500000Y-47514270D01*
X98500000Y-47750375D01*
X98536934Y-47983570D01*
X98609897Y-48208125D01*
X98717087Y-48418497D01*
X98777338Y-48501427D01*
X98777340Y-48501428D01*
X99517037Y-47761731D01*
X99534075Y-47825316D01*
X99599901Y-47939330D01*
X99692993Y-48032422D01*
X99807007Y-48098248D01*
X99870590Y-48115285D01*
X99130893Y-48854981D01*
X99213828Y-48915237D01*
X99424197Y-49022425D01*
X99648752Y-49095388D01*
X99648751Y-49095388D01*
X99881948Y-49132323D01*
X100118052Y-49132323D01*
X100351247Y-49095388D01*
X100575802Y-49022425D01*
X100786163Y-48915241D01*
X100786169Y-48915237D01*
X100869104Y-48854981D01*
X100869105Y-48854981D01*
X100129408Y-48115285D01*
X100192993Y-48098248D01*
X100307007Y-48032422D01*
X100400099Y-47939330D01*
X100465925Y-47825316D01*
X100482962Y-47761732D01*
X101222658Y-48501428D01*
X101222658Y-48501427D01*
X101282914Y-48418492D01*
X101282918Y-48418486D01*
X101390102Y-48208125D01*
X101463065Y-47983570D01*
X101500000Y-47750375D01*
X101500000Y-47514270D01*
X101463065Y-47281075D01*
X101390102Y-47056520D01*
X101282914Y-46846151D01*
X101222658Y-46763217D01*
X101222658Y-46763216D01*
X100482962Y-47502913D01*
X100465925Y-47439330D01*
X100400099Y-47325316D01*
X100307007Y-47232224D01*
X100192993Y-47166398D01*
X100129409Y-47149360D01*
X100869105Y-46409663D01*
X100869104Y-46409661D01*
X100786174Y-46349410D01*
X100575802Y-46242220D01*
X100351247Y-46169257D01*
X100351248Y-46169257D01*
X100118052Y-46132323D01*
X99881948Y-46132323D01*
X99648752Y-46169257D01*
X99424197Y-46242220D01*
X99213830Y-46349407D01*
X99130894Y-46409663D01*
X99870591Y-47149360D01*
X99807007Y-47166398D01*
X99692993Y-47232224D01*
X99599901Y-47325316D01*
X99534075Y-47439330D01*
X99517037Y-47502914D01*
X98777340Y-46763217D01*
X98717084Y-46846153D01*
X98609897Y-47056520D01*
X98536934Y-47281075D01*
X98500000Y-47514270D01*
X93000000Y-47514270D01*
X93000000Y-45124000D01*
X93019685Y-45056961D01*
X93072489Y-45011206D01*
X93124000Y-45000000D01*
X109876000Y-45000000D01*
X109943039Y-45019685D01*
G37*
%TD.AperFunction*%
%TD*%
%TA.AperFunction,Conductor*%
%TO.N,+3.3V*%
G36*
X137104754Y-45269685D02*
G01*
X137150509Y-45322489D01*
X137161704Y-45375688D01*
X137161493Y-45391150D01*
X137159500Y-45398590D01*
X137159500Y-45537585D01*
X137159489Y-45538394D01*
X137157971Y-45543313D01*
X137146901Y-45591166D01*
X137110134Y-45666373D01*
X137110134Y-45666375D01*
X137099500Y-45739364D01*
X137099500Y-47135636D01*
X137110134Y-47208625D01*
X137110134Y-47208626D01*
X137110135Y-47208628D01*
X137165172Y-47321210D01*
X137165174Y-47321212D01*
X137212192Y-47368229D01*
X137250000Y-47406037D01*
X137250000Y-47500000D01*
X136750000Y-48000000D01*
X136607400Y-48000000D01*
X136540361Y-47980315D01*
X136524368Y-47967428D01*
X136521210Y-47965172D01*
X136408628Y-47910135D01*
X136408626Y-47910134D01*
X136408625Y-47910134D01*
X136335636Y-47899500D01*
X134939364Y-47899500D01*
X134866375Y-47910134D01*
X134866373Y-47910134D01*
X134866371Y-47910135D01*
X134753789Y-47965172D01*
X134745425Y-47971145D01*
X134744355Y-47969646D01*
X134693958Y-47997166D01*
X134667600Y-48000000D01*
X134499999Y-48000000D01*
X134250000Y-48249999D01*
X134250000Y-48663928D01*
X134230315Y-48730967D01*
X134219919Y-48744892D01*
X134037099Y-48956964D01*
X133978417Y-48994888D01*
X133943180Y-49000000D01*
X132801362Y-49000000D01*
X132734323Y-48980315D01*
X132713681Y-48963681D01*
X132536319Y-48786319D01*
X132502834Y-48724996D01*
X132500000Y-48698638D01*
X132500000Y-46000000D01*
X132500000Y-45500000D01*
X132750000Y-45250000D01*
X137000000Y-45250000D01*
X137037715Y-45250000D01*
X137104754Y-45269685D01*
G37*
%TD.AperFunction*%
%TD*%
M02*
